<?xml version="1.0" standalone="no"?>
<!DOCTYPE svg PUBLIC "-//W3C//DTD SVG 1.1//EN" "http://www.w3.org/Graphics/SVG/1.1/DTD/svg11.dtd" >
<svg xmlns="http://www.w3.org/2000/svg">
<metadata>
This is a custom SVG webfont generated by Font Squirrel.
Copyright   : Copyright  1993 Bigelow  Holmes Inc All rights reserved Pat Des 289420 Pats Pend
</metadata>
<defs>
<font id="LucidaSansUnicodeRegular" horiz-adv-x="1595" >
<font-face units-per-em="2048" ascent="1638" descent="-410" />
<missing-glyph horiz-adv-x="635" />
<glyph unicode=" "  horiz-adv-x="635" />
<glyph unicode="&#x09;" horiz-adv-x="635" />
<glyph unicode="&#xa0;" horiz-adv-x="635" />
<glyph unicode="!" horiz-adv-x="635" d="M220 0v193h194v-193h-194zM220 1160v290h194v-290l-24 -773h-145z" />
<glyph unicode="&#x22;" horiz-adv-x="749" d="M109 1547h193l-24 -483h-145zM447 1547h194l-25 -483h-145z" />
<glyph unicode="#" horiz-adv-x="1269" d="M15 435l24 122h299l85 338h-317l24 120h323l110 435h124l-109 -435h258l109 435h125l-109 -435h293l-23 -120h-300l-85 -338h317l-24 -122h-323l-108 -435h-126l109 435h-258l-109 -435h-125l109 435h-293zM464 557h257l86 338h-259z" />
<glyph unicode="$" horiz-adv-x="1269" d="M212 81v167q221 -103 387 -103v520q-199 122 -272 215t-73 222q0 146 94.5 241.5t250.5 106.5v122h96v-122q143 0 314 -65v-158q-188 81 -314 91v-516q53 -33 79 -48q151 -92 205.5 -165t54.5 -183q0 -154 -91 -263.5t-248 -142.5v-121h-96v121q-173 0 -387 81zM423 1106 q0 -74 36.5 -124.5t139.5 -116.5v447q-176 -55 -176 -206zM695 157q169 61 169 220q0 70 -32 114.5t-137 117.5v-452z" />
<glyph unicode="%" horiz-adv-x="1341" d="M12 1088q0 167 83 264.5t225 97.5t225 -97.5t83 -264.5t-83 -265t-225 -98t-225 98t-83 265zM24 -36l1142 1523h151l-1142 -1523h-151zM157 1088q0 -122 44 -194t119 -72t119 72t44 194t-44 194t-119 72t-119 -72t-44 -194zM713 363q0 166 83 264t225 98t225.5 -98 t83.5 -264q0 -167 -83.5 -265t-225.5 -98t-225 98t-83 265zM858 363q0 -123 44.5 -194.5t118.5 -71.5q76 0 120 71.5t44 194.5q0 122 -44 194t-120 72q-74 0 -118.5 -72t-44.5 -194z" />
<glyph unicode="&#x26;" horiz-adv-x="1399" d="M73 431q0 335 353 455q-98 177 -98 295q0 128 102 217t249 89q141 0 233 -83t92 -210q0 -218 -319 -379q146 -258 340 -483q89 131 89 369l-1 70h192q0 -321 -192 -554q88 -112 201 -217h-274l-72 86q-160 -122 -375 -122q-227 0 -373.5 131.5t-146.5 335.5zM266 478 q0 -154 104 -261.5t254 -107.5q136 0 260 89q-206 253 -392 573q-226 -90 -226 -293zM522 1190q0 -100 92 -252q208 95 208 253q0 68 -41.5 109.5t-109.5 41.5q-67 0 -108 -42t-41 -110z" />
<glyph unicode="'" horiz-adv-x="459" d="M109 1547h242l-49 -532h-145z" />
<glyph unicode="(" horiz-adv-x="652" d="M121 629q0 279 123.5 526.5t335.5 391.5v-133q-144 -157 -205 -337t-61 -448t61 -448.5t205 -337.5v-133q-212 144 -335.5 391.5t-123.5 527.5z" />
<glyph unicode=")" horiz-adv-x="652" d="M73 -157q144 157 204.5 337.5t60.5 448.5t-60.5 448.5t-204.5 336.5v133q211 -144 335 -391.5t124 -526.5q0 -280 -124 -527.5t-335 -391.5v133z" />
<glyph unicode="*" horiz-adv-x="967" d="M108 1125l45 138l278 -122q-28 -25 -28 -66l2 -15zM207 821l202 227q19 -44 68 -50l-153 -262zM412 1450h145l-31 -301q-17 10 -42 10q-24 0 -42 -10zM490 998q50 6 69 50l202 -227l-117 -85zM537 1141l278 122l44 -138l-296 -65l2 15q0 40 -28 66z" />
<glyph unicode="+" d="M218 532v97h532v531h97v-531h531v-97h-531v-532h-97v532h-532z" />
<glyph unicode="," horiz-adv-x="635" d="M196 0v242h242v-210q0 -322 -242 -347v73q94 26 94 222v20h-94z" />
<glyph unicode="-" horiz-adv-x="1161" d="M145 532v121h870v-121h-870z" />
<glyph unicode="." horiz-adv-x="635" d="M196 0v242h242v-242h-242z" />
<glyph unicode="/" horiz-adv-x="1052" d="M218 -290l515 1741h102l-516 -1741h-101z" />
<glyph unicode="0" horiz-adv-x="1269" d="M127 725q0 343 140 552.5t368 209.5q229 0 368.5 -209t139.5 -553q0 -343 -139.5 -552t-368.5 -209q-228 0 -368 209t-140 552zM333 725q0 -616 302 -616q303 0 303 616q0 617 -303 617q-302 0 -302 -617z" />
<glyph unicode="1" horiz-adv-x="1269" d="M296 1305v122l423 36v-1463h-194v1305h-229z" />
<glyph unicode="2" horiz-adv-x="1269" d="M167 0v170q84 197 341 429l110 99q214 193 214 383q0 121 -73 191t-201 70q-150 0 -355 -117v171q193 91 384 91q204 0 327 -110t123 -291q0 -130 -62.5 -231t-231.5 -245l-75 -64q-232 -197 -268 -376h630v-170h-863z" />
<glyph unicode="3" horiz-adv-x="1269" d="M204 191q207 -82 325 -82q140 0 227 80.5t87 209.5q0 306 -428 306h-77v130l68 1q402 0 402 283q0 223 -267 223q-143 0 -318 -82v169q172 58 331 58q216 0 332 -86.5t116 -249.5q0 -256 -303 -365q351 -81 351 -384q0 -205 -135.5 -321.5t-371.5 -116.5q-134 0 -339 47 v180z" />
<glyph unicode="4" horiz-adv-x="1269" d="M103 411v146l653 893h181v-882h194v-157h-194v-411h-181v411h-653zM292 568h476v645z" />
<glyph unicode="5" horiz-adv-x="1269" d="M244 -6v173q144 -58 274 -58q144 0 225.5 84t81.5 232q0 159 -115.5 243t-334.5 84q-51 0 -106 -7v705h734v-168h-565v-382q279 0 436 -128.5t157 -355.5q0 -212 -142.5 -332t-393.5 -120q-112 0 -251 30z" />
<glyph unicode="6" horiz-adv-x="1269" d="M134 693q0 460 236 676q129 119 355 119q132 0 326 -55v-169q-205 79 -338 79q-368 0 -368 -591q138 179 348 179q190 0 311 -126t121 -323q0 -226 -135.5 -372t-345.5 -146q-239 0 -374.5 193.5t-135.5 535.5zM353 512q0 -183 83.5 -293t222.5 -110q125 0 198.5 90 t73.5 245q0 161 -74.5 254.5t-203.5 93.5q-124 0 -212 -82.5t-88 -197.5z" />
<glyph unicode="7" horiz-adv-x="1269" d="M218 1269v181h931v-181q-558 -822 -625 -1269h-222q28 170 80.5 293t185.5 339l396 637h-746z" />
<glyph unicode="8" horiz-adv-x="1269" d="M173 357q0 260 289 433q-120 83 -166.5 154.5t-46.5 172.5q0 165 120.5 268t314.5 103q179 0 290.5 -87.5t111.5 -226.5q0 -211 -271 -384q329 -161 329 -415q0 -181 -137.5 -296t-352.5 -115q-216 0 -348.5 108t-132.5 285zM367 387q0 -124 80 -201t212 -77 q126 0 206 65.5t80 170.5q0 84 -49.5 142.5t-191.5 142.5l-138 81q-116 -90 -157.5 -157t-41.5 -167zM424 1153q0 -81 60.5 -145.5t223.5 -156.5q202 133 202 297q0 87 -68 140.5t-178 53.5q-106 0 -173 -52.5t-67 -136.5z" />
<glyph unicode="9" horiz-adv-x="1269" d="M153 971q0 223 135.5 369.5t341.5 146.5q236 0 372.5 -190t136.5 -519q0 -210 -66 -394.5t-176 -287.5q-142 -132 -374 -132q-113 0 -295 45v163q185 -63 314 -63q180 0 281.5 153.5t101.5 426.5q-147 -181 -334 -181q-183 0 -310.5 134.5t-127.5 328.5zM346 1004 q0 -165 75.5 -261t203.5 -96q124 0 210.5 83t86.5 201q0 185 -83.5 298.5t-220.5 113.5q-127 0 -199.5 -90.5t-72.5 -248.5z" />
<glyph unicode=":" horiz-adv-x="635" d="M220 0v193h194v-193h-194zM220 870v194h194v-194h-194z" />
<glyph unicode=";" horiz-adv-x="635" d="M220 0v193h194v-163q0 -297 -194 -345v73q70 36 70 219v23h-70zM220 870v194h194v-194h-194z" />
<glyph unicode="&#x3c;" d="M218 580l1160 580v-107l-942 -474l942 -471v-108z" />
<glyph unicode="=" d="M218 351v96h1160v-96h-1160zM218 713v97h1160v-97h-1160z" />
<glyph unicode="&#x3e;" d="M218 0v108l942 473l-942 472v107l1160 -580z" />
<glyph unicode="?" horiz-adv-x="846" d="M36 1269v164q182 55 341 55q199 0 316 -90t117 -243q0 -86 -33.5 -148t-129.5 -153l-61 -57q-91 -87 -119.5 -145t-28.5 -157v-108h-193v53q0 110 30 182.5t114 169.5l62 71q154 177 154 289q0 88 -68.5 139t-183.5 51q-148 0 -317 -73zM245 0v193h193v-193h-193z" />
<glyph unicode="@" horiz-adv-x="1722" d="M91 564q0 333 239 608q128 146 309.5 230.5t367.5 84.5q274 0 458.5 -176.5t184.5 -438.5q0 -242 -148 -412t-358 -170q-164 0 -164 113q0 41 21 103l39 123h-12q-177 -339 -379 -339q-85 0 -137 60t-52 160q0 138 70.5 294t174.5 247q119 103 269 103q30 0 78 -2 q48 -3 76 -3h134l-123 -624q-6 -31 -6 -60q0 -66 74 -66q131 0 233 139t102 318q0 225 -156 374t-393 149q-311 0 -552 -244.5t-241 -560.5q0 -220 151.5 -360.5t389.5 -140.5q154 0 295 70l35 -100q-176 -79 -346 -79q-275 0 -454.5 170t-179.5 430zM611 550 q0 -139 81 -139q60 0 158.5 111t201.5 294l38 191q-90 33 -157 33q-98 0 -161 -55q-66 -58 -113.5 -185.5t-47.5 -249.5z" />
<glyph unicode="A" horiz-adv-x="1384" d="M17 0l575 1450h204l566 -1450h-222l-158 402h-614l-160 -402h-191zM427 555h495l-247 625z" />
<glyph unicode="B" horiz-adv-x="1154" d="M187 0v1450h377q217 0 333 -82t116 -237q0 -126 -77.5 -224t-220.5 -151q356 -109 356 -393q0 -128 -78 -227q-60 -75 -144.5 -105.5t-234.5 -30.5h-427zM391 813h66q165 0 255.5 71t90.5 201q0 212 -332 212h-80v-484zM391 154h42q227 0 293 28q128 54 128 200 q0 130 -116 215.5t-289 85.5h-58v-529z" />
<glyph unicode="C" horiz-adv-x="1388" d="M102 724q0 364 187.5 563.5t529.5 199.5q194 0 456 -64v-193q-298 103 -460 103q-236 0 -365.5 -160t-129.5 -451q0 -278 138.5 -438t378.5 -160q205 0 440 127v-177q-215 -110 -469 -110q-338 0 -522 198t-184 562z" />
<glyph unicode="D" horiz-adv-x="1503" d="M187 1450h482q216 0 349 -48t230 -162q153 -183 153 -480q0 -337 -180 -545q-98 -115 -227 -165t-322 -50h-485v1450zM393 154h264q282 0 399 152q127 161 127 434q0 256 -125 402q-75 89 -180 122t-315 33h-170v-1143z" />
<glyph unicode="E" horiz-adv-x="1087" d="M187 0v1450h811v-153h-605v-466h507v-152h-507v-525h647v-154h-853z" />
<glyph unicode="F" horiz-adv-x="1076" d="M187 0v1450h811v-153h-605v-487h508v-151h-508v-659h-206z" />
<glyph unicode="G" horiz-adv-x="1450" d="M102 725q0 363 187.5 562.5t527.5 199.5q219 0 458 -66v-190q-300 102 -460 102q-235 0 -365 -159.5t-130 -449.5q0 -287 139.5 -446.5t390.5 -159.5q103 0 222 36v472h205v-587q-264 -75 -460 -75q-346 0 -530.5 196.5t-184.5 564.5z" />
<glyph unicode="H" horiz-adv-x="1474" d="M187 0v1450h206v-611h690v611h206v-1450h-206v685h-690v-685h-206z" />
<glyph unicode="I" horiz-adv-x="578" d="M186 0v1450h206v-1450h-206z" />
<glyph unicode="J" horiz-adv-x="624" d="M-180 -87q117 -38 209 -38q116 0 162.5 67.5t46.5 233.5v1274h206v-1267q0 -473 -448 -473q-69 0 -176 20v183z" />
<glyph unicode="K" horiz-adv-x="1310" d="M187 0v1450h193v-713l587 713h207l-568 -691l669 -759h-261l-634 735v-735h-193z" />
<glyph unicode="L" horiz-adv-x="1070" d="M187 0v1450h206v-1296h653v-154h-859z" />
<glyph unicode="M" horiz-adv-x="1728" d="M187 0v1450h285l402 -1122l414 1122h255v-1450h-193v1180l-399 -1083h-199l-388 1086v-1183h-177z" />
<glyph unicode="N" horiz-adv-x="1482" d="M187 0v1450h202l730 -1120v1120h177v-1450h-201l-731 1120v-1120h-177z" />
<glyph unicode="O" horiz-adv-x="1559" d="M102 725q0 347 184.5 554.5t493.5 207.5t493.5 -207.5t184.5 -554.5t-184.5 -554t-493.5 -207t-493.5 207t-184.5 554zM320 727q0 -287 122 -448t338 -161q217 0 338.5 161t121.5 448q0 285 -121.5 445.5t-338.5 160.5q-216 0 -338 -160.5t-122 -445.5z" />
<glyph unicode="P" horiz-adv-x="1109" d="M187 0v1450h395q171 0 263.5 -27.5t151.5 -98.5q77 -93 77 -254q0 -231 -157 -362.5t-435 -131.5h-91v-576h-204zM391 732h83q184 0 284 84.5t100 238.5q0 130 -79 186t-262 56h-126v-565z" />
<glyph unicode="Q" horiz-adv-x="1559" d="M102 725q0 347 184.5 554.5t493.5 207.5q310 0 494 -208t184 -557q0 -500 -371 -692q250 -109 518 -156l-130 -164q-342 111 -573 264q-93 -10 -142 -10q-293 0 -475.5 211.5t-182.5 549.5zM320 727q0 -287 122 -448t338 -161q217 0 338.5 160.5t121.5 446.5 q0 287 -121.5 447.5t-338.5 160.5q-216 0 -338 -160.5t-122 -445.5z" />
<glyph unicode="R" horiz-adv-x="1269" d="M187 0v1450h439q209 0 320 -92t111 -267q0 -138 -76.5 -246t-216.5 -166l485 -679h-253l-413 613h-192v-613h-204zM391 767h67q190 0 289 77.5t99 226.5q0 226 -326 226h-129v-530z" />
<glyph unicode="S" horiz-adv-x="1080" d="M98 231q245 -113 404 -113q120 0 194 64t74 167q0 85 -48.5 145t-178.5 133l-100 58q-185 106 -261 199.5t-76 217.5q0 168 121.5 276.5t309.5 108.5q168 0 354 -56v-188q-229 90 -342 90q-107 0 -176.5 -57t-69.5 -143q0 -73 51 -128.5t186 -133.5l104 -59 q188 -106 262.5 -201.5t74.5 -228.5q0 -189 -139 -303.5t-370 -114.5q-147 0 -374 63v204z" />
<glyph unicode="T" horiz-adv-x="1269" d="M18 1297v153h1234v-153h-514v-1297h-206v1297h-514z" />
<glyph unicode="U" horiz-adv-x="1390" d="M175 537v913h206v-915q0 -218 81 -317.5t257 -99.5q173 0 245 93.5t72 316.5v922h180v-919q0 -190 -37 -292t-134 -179q-122 -96 -335 -96q-275 0 -405 139t-130 434z" />
<glyph unicode="V" horiz-adv-x="1312" d="M35 1450h206l449 -1187l433 1187h180l-526 -1450h-194z" />
<glyph unicode="W" horiz-adv-x="1716" d="M2 1450h198l297 -1145l273 1145h198l259 -1130l319 1130h168l-407 -1450h-205l-255 1118l-268 -1118h-204z" />
<glyph unicode="X" horiz-adv-x="1256" d="M16 0l481 728l-458 722h243l349 -546l367 546h194l-464 -700l475 -750h-243l-368 575l-381 -575h-195z" />
<glyph unicode="Y" horiz-adv-x="1250" d="M17 1450h235l376 -654l406 654h191l-518 -840v-610h-206v606z" />
<glyph unicode="Z" horiz-adv-x="1213" d="M93 0v165l779 1132h-731v153h978v-153l-779 -1132h779v-165h-1026z" />
<glyph unicode="[" horiz-adv-x="652" d="M193 -290v1837h387v-145h-217v-1547h217v-145h-387z" />
<glyph unicode="\" horiz-adv-x="1052" d="M218 1451h101l516 -1741h-102z" />
<glyph unicode="]" horiz-adv-x="652" d="M73 -145h217v1547h-217v145h387v-1837h-387v145z" />
<glyph unicode="^" horiz-adv-x="1269" d="M103 387l532 1063l532 -1063h-163l-369 739l-369 -739h-163z" />
<glyph unicode="_" horiz-adv-x="1003" d="M84 0h834v-145h-834v145z" />
<glyph unicode="`" horiz-adv-x="1232" d="M387 1572h224l236 -315h-145z" />
<glyph unicode="a" horiz-adv-x="1108" d="M101 268q0 174 146.5 267.5t420.5 93.5h45v129q0 185 -193 185q-150 0 -327 -94v159q195 80 368 80q177 0 261 -81t84 -249v-483q0 -165 102 -165q13 0 38 4l13 -107q-65 -31 -145 -31q-135 0 -172 159q-174 -159 -334 -159q-133 0 -220 82.5t-87 209.5zM294 299 q0 -70 49 -118t120 -48q120 0 250 107v275l-61 2q-161 0 -259.5 -59.5t-98.5 -158.5z" />
<glyph unicode="b" horiz-adv-x="1263" d="M193 -12v1559h193v-683q119 224 356 224q192 0 302 -140t110 -384q0 -264 -124.5 -426t-328.5 -162q-189 0 -315 145l-23 -133h-170zM386 254q149 -133 284 -133q134 0 206.5 111t72.5 313q0 374 -247 374q-162 0 -316 -175v-490z" />
<glyph unicode="c" horiz-adv-x="1028" d="M109 538q0 260 140.5 405t392.5 145q124 0 278 -34v-162q-163 48 -266 48q-149 0 -238.5 -111.5t-89.5 -296.5q0 -179 92.5 -290t241.5 -111q132 0 272 68v-167q-187 -56 -323 -56q-216 0 -358 159.5t-142 402.5z" />
<glyph unicode="d" horiz-adv-x="1263" d="M109 499q0 265 125 427t329 162q189 0 313 -145v604h194v-1547h-194v200q-117 -224 -355 -224q-192 0 -302 140t-110 383zM315 518q0 -373 247 -373q160 0 314 175v490q-150 133 -284 133q-132 0 -204.5 -111t-72.5 -314z" />
<glyph unicode="e" horiz-adv-x="1118" d="M109 537q0 242 130.5 397t334.5 155q193 0 298.5 -138t105.5 -390l-1 -59h-671q42 -380 371 -380q121 0 296 65v-153q-194 -58 -332 -58q-236 0 -384 156t-148 405zM315 647h469q0 297 -221 297q-223 0 -248 -297z" />
<glyph unicode="f" horiz-adv-x="737" d="M78 919v145h151v128q0 380 347 380q97 0 221 -32v-153q-131 40 -209 40q-95 0 -130 -45.5t-35 -169.5v-148h266v-145h-266v-919h-194v919h-151z" />
<glyph unicode="g" horiz-adv-x="1251" d="M109 539q0 243 128.5 396t331.5 153q179 0 307 -145v121h194v-774q0 -250 -26 -370t-97 -196q-127 -135 -395 -135q-184 0 -355 57l23 168q167 -80 331 -80q325 0 325 346v168q-50 -106 -142.5 -165t-206.5 -59q-193 0 -305.5 139t-112.5 376zM315 540q0 -347 246 -347 q167 0 315 175v442q-127 133 -277 133q-133 0 -208.5 -107t-75.5 -296z" />
<glyph unicode="h" horiz-adv-x="1245" d="M193 0v1547h193v-683q153 224 374 224q140 0 221.5 -88t81.5 -236v-764h-193v702q0 118 -34.5 168.5t-115.5 50.5q-177 0 -334 -232v-689h-193z" />
<glyph unicode="i" horiz-adv-x="580" d="M193 0v1064h193v-1064h-193zM193 1257v193h193v-193h-193z" />
<glyph unicode="j" horiz-adv-x="610" d="M-150 -362v153q135 -57 206 -57q80 0 124 44q30 29 37 66t7 156v1064h194v-1064q0 -411 -346 -411q-103 0 -222 49zM224 1257v193h194v-193h-194z" />
<glyph unicode="k" horiz-adv-x="1173" d="M193 0v1547h193v-999l451 516h208l-431 -497l520 -567h-247l-501 546v-546h-193z" />
<glyph unicode="l" horiz-adv-x="580" d="M193 0v1547h193v-1547h-193z" />
<glyph unicode="m" horiz-adv-x="1873" d="M193 1064h193v-200q141 224 363 224q213 0 291 -224q137 225 356 225q141 0 218.5 -83t77.5 -232v-774h-194v744q0 182 -144 182q-150 0 -314 -213v-713h-194v744q0 183 -147 183q-146 0 -313 -214v-713h-193v1064z" />
<glyph unicode="n" horiz-adv-x="1245" d="M193 0v1064h193v-200q153 224 374 224q140 0 221.5 -88t81.5 -236v-764h-193v702q0 118 -34.5 168.5t-115.5 50.5q-177 0 -334 -232v-689h-193z" />
<glyph unicode="o" horiz-adv-x="1232" d="M109 532q0 257 136.5 406.5t370.5 149.5q235 0 371.5 -149.5t136.5 -406.5t-136.5 -406.5t-371.5 -149.5q-234 0 -370.5 149.5t-136.5 406.5zM315 532q0 -196 78.5 -303.5t222.5 -107.5t223.5 107.5t79.5 303.5t-79.5 303.5t-223.5 107.5t-222.5 -107.5t-78.5 -303.5z " />
<glyph unicode="p" horiz-adv-x="1263" d="M193 -387v1451h193v-200q119 224 356 224q192 0 302 -140t110 -384q0 -264 -124.5 -426t-328.5 -162q-189 0 -315 145v-508h-193zM386 254q149 -133 284 -133q134 0 206.5 111t72.5 313q0 374 -247 374q-162 0 -316 -175v-490z" />
<glyph unicode="q" horiz-adv-x="1263" d="M109 499q0 265 125 427t329 162q189 0 313 -145v121h194v-1451h-194v587q-117 -224 -355 -224q-192 0 -302 140t-110 383zM315 518q0 -373 247 -373q160 0 314 175v490q-150 133 -284 133q-132 0 -204.5 -111t-72.5 -314z" />
<glyph unicode="r" horiz-adv-x="821" d="M193 1064h193v-200q115 224 333 224q30 0 62 -5v-180q-50 16 -88 16q-183 0 -307 -217v-702h-193v1064z" />
<glyph unicode="s" horiz-adv-x="1023" d="M154 37v178q189 -94 329 -94q83 0 138 45t55 112q0 99 -154 164l-112 48q-250 104 -250 299q0 139 98.5 219t269.5 80q89 0 221 -25l40 -8v-160q-162 48 -258 48q-84 0 -134.5 -37t-50.5 -98q0 -88 141 -147l93 -40q158 -66 223.5 -140t65.5 -185q0 -140 -110.5 -230 t-283.5 -90q-132 0 -321 61z" />
<glyph unicode="t" horiz-adv-x="750" d="M68 919v145h133v193l193 19v-212h278v-145h-278v-590q0 -208 180 -208q38 0 93 12v-133q-89 -24 -154 -24q-147 0 -229.5 84t-82.5 234v625h-133z" />
<glyph unicode="u" horiz-adv-x="1245" d="M181 300v764h193v-701q0 -120 35 -170.5t116 -50.5q177 0 333 232v690h194v-1064h-194v200q-153 -224 -373 -224q-139 0 -221.5 87.5t-82.5 236.5z" />
<glyph unicode="v" horiz-adv-x="1038" d="M18 1064h193l309 -828l327 828h180l-420 -1064h-193z" />
<glyph unicode="w" horiz-adv-x="1546" d="M12 1064h189l233 -824l252 824h193l221 -824l267 824h166l-347 -1064h-194l-226 824l-254 -824h-195z" />
<glyph unicode="x" horiz-adv-x="1230" d="M86 0l405 550l-393 514h229l311 -409l281 409h188l-368 -540l401 -524h-230l-320 421l-310 -421h-194z" />
<glyph unicode="y" horiz-adv-x="1048" d="M16 1064h208l305 -801l326 801h182l-581 -1451h-201l172 387z" />
<glyph unicode="z" horiz-adv-x="1150" d="M121 0v145l658 774h-628v145h866v-145l-658 -774h671v-145h-909z" />
<glyph unicode="{" horiz-adv-x="652" d="M24 557v145h49q149 0 149 157q0 67 -15 138l-19 85q-18 84 -18 165q0 130 93.5 210.5t256.5 89.5v-145h-27q-67 0 -111 -34.5t-44 -86.5q0 -24 13 -93l17 -100q10 -65 10 -154q0 -183 -144 -305q144 -122 144 -307q0 -88 -10 -152l-17 -100q-13 -70 -13 -94 q0 -51 44.5 -86t110.5 -35h27v-145q-164 10 -257 90.5t-93 211.5q0 80 18 163l19 86q14 70 14 139q0 157 -148 157h-49z" />
<glyph unicode="|" horiz-adv-x="749" d="M326 -290v1837h97v-1837h-97z" />
<glyph unicode="}" horiz-adv-x="652" d="M133 -145h28q65 0 110 35t45 86q0 24 -13 94l-17 100q-12 62 -12 154q0 182 144 305q-144 122 -144 306q0 90 12 153l17 100q13 69 13 95q0 50 -45 84.5t-110 34.5h-28v145q165 -9 258 -89.5t93 -211.5q0 -80 -18 -164l-19 -85q-16 -71 -16 -139q0 -156 149 -156h49v-145 h-49q-149 0 -149 -159q0 -67 16 -137l19 -86q18 -83 18 -164q0 -131 -93.5 -211t-257.5 -90v145z" />
<glyph unicode="~" horiz-adv-x="1269" d="M103 435q0 142 75.5 232.5t194.5 90.5q79 0 211 -70l105 -55l125 -68q44 -21 90 -21q52 0 85 48.5t33 125.5v7h145q-20 -326 -261 -326q-87 0 -240 78l-109 57l-117 61q-35 17 -70 17q-53 0 -87.5 -49t-34.5 -128h-145z" />
<glyph unicode="&#xa1;" horiz-adv-x="635" d="M220 -97l25 774h145l24 -774v-290h-194v290zM220 870v194h194v-194h-194z" />
<glyph unicode="&#xa2;" horiz-adv-x="1269" d="M201 723q0 232 117.5 375t331.5 171v181h97v-181q130 -6 278 -45v-163q-173 59 -278 69v-823q133 0 278 66v-147q-146 -56 -278 -56v-170h-97v170q-199 19 -324 173t-125 380zM413 717q0 -323 237 -399v803q-237 -22 -237 -404z" />
<glyph unicode="&#xa3;" horiz-adv-x="1269" d="M242 170q206 65 206 309v223h-176v145h176v210q0 209 99.5 319.5t285.5 110.5q102 0 222 -30v-163q-121 48 -234 48q-95 0 -137.5 -53t-42.5 -173v-269h212v-145h-212v-125q0 -155 -35.5 -240t-134.5 -167h599v-170h-828v170z" />
<glyph unicode="&#xa4;" horiz-adv-x="1270" d="M96 272l191 192q-88 116 -88 261t88 262l-191 192l85 85l191 -191q123 87 262 87t262 -87l191 191l86 -85l-191 -192q87 -117 87 -262t-87 -261l191 -192l-86 -85l-191 191q-123 -88 -262 -88t-262 88l-191 -191zM344 725q0 -122 84 -206t206 -84q123 0 206.5 84 t83.5 206q0 123 -83.5 206.5t-206.5 83.5q-122 0 -206 -83.5t-84 -206.5z" />
<glyph unicode="&#xa5;" horiz-adv-x="1269" d="M78 1450h229l353 -563l380 563h175l-490 -725h290v-145h-290v-97h290v-145h-290v-338h-193v338h-290v145h290v97h-290v145h290z" />
<glyph unicode="&#xa6;" horiz-adv-x="745" d="M326 -290v725h97v-725h-97zM326 822v725h97v-725h-97z" />
<glyph unicode="&#xa7;" horiz-adv-x="1269" d="M217 -78q237 -103 402 -103q127 0 206 49t79 127q0 66 -42.5 104t-183.5 99l-173 73q-284 122 -284 330q0 148 144 293q-139 92 -139 236q0 161 127 259t334 98q147 0 338 -46v-157q-198 58 -341 58q-126 0 -204 -50t-78 -132q0 -58 38 -97t133 -77l134 -54 q202 -81 280 -159t78 -200q0 -139 -146 -302q161 -93 161 -262q0 -154 -131 -245t-350 -91q-153 0 -382 72v177zM390 648q0 -132 224 -226l209 -88q73 97 73 190q0 71 -46.5 116.5t-169.5 97.5l-217 91q-73 -88 -73 -181z" />
<glyph unicode="&#xa8;" horiz-adv-x="1232" d="M338 1257v170h170v-170h-170zM725 1257v170h170v-170h-170z" />
<glyph unicode="&#xa9;" horiz-adv-x="1716" d="M97 725q0 316 223.5 539t537.5 223q316 0 539 -223t223 -539q0 -314 -223 -537.5t-539 -223.5q-314 0 -537.5 223.5t-223.5 537.5zM206 725q0 -225 154 -418q187 -234 498 -234q312 0 499 234q154 193 154 418q0 228 -154 419q-188 234 -499 234q-310 0 -498 -234 q-154 -191 -154 -419zM466 720q0 198 115.5 316t308.5 118q90 0 221 -25l26 -5v-120q-133 54 -239 54q-130 0 -208.5 -92t-78.5 -242t81.5 -237.5t222.5 -87.5q111 0 222 61v-122q-138 -48 -250 -48q-185 0 -303 120.5t-118 309.5z" />
<glyph unicode="&#xaa;" horiz-adv-x="846" d="M121 1071q0 104 85.5 162.5t240.5 58.5h46v67q0 106 -117 106q-96 0 -200 -57v108q117 46 229 46q229 0 229 -200v-288q0 -87 55 -87q9 0 22 3l7 -82q-48 -17 -92 -17q-97 0 -124 90q-96 -90 -194 -90q-83 0 -135 51t-52 129zM262 1090q0 -39 27 -65.5t66 -26.5 q66 0 138 61v148h-36q-195 0 -195 -117z" />
<glyph unicode="&#xab;" horiz-adv-x="1051" d="M109 532l387 435l96 -72l-290 -363l290 -362l-96 -73zM496 532l387 435l96 -72l-290 -363l290 -362l-96 -73z" />
<glyph unicode="&#xac;" d="M218 677v97h1160v-484h-96v387h-1064z" />
<glyph unicode="&#xad;" horiz-adv-x="652" d="M109 532v145h435v-145h-435z" />
<glyph unicode="&#xae;" horiz-adv-x="1269" d="M200 1052q0 181 127.5 308t307.5 127q181 0 308 -127t127 -308t-127.5 -308.5t-307.5 -127.5t-307.5 127.5t-127.5 308.5zM297 1052q0 -139 100 -239t238 -100t238.5 100t100.5 239t-100 239t-239 100q-138 0 -238 -100t-100 -239zM460 786v519h151q199 0 199 -135 q0 -95 -106 -152l121 -232h-111l-110 212h-47v-212h-97zM557 1070h42q103 0 103 91q0 73 -99 73h-46v-164z" />
<glyph unicode="&#xaf;" horiz-adv-x="1003" d="M84 1427v145h834v-145h-834z" />
<glyph unicode="&#xb0;" horiz-adv-x="555" d="M63 1270q0 91 63 154t154 63t154.5 -63.5t63.5 -153.5q0 -91 -63.5 -154.5t-154.5 -63.5t-154 63.5t-63 154.5zM160 1269q0 -48 36 -84t84 -36q49 0 85 36t36 84q0 49 -36 85.5t-85 36.5q-48 0 -84 -36.5t-36 -85.5z" />
<glyph unicode="&#xb1;" d="M218 0v97h1160v-97h-1160zM218 677v97h532v386h97v-386h531v-97h-531v-387h-97v387h-532z" />
<glyph unicode="&#xb2;" horiz-adv-x="846" d="M146 580v120q65 112 178 214l69 61q153 135 153 252q0 146 -161 146q-93 0 -217 -68v115q124 53 247 53q128 0 206.5 -66.5t78.5 -174.5q0 -78 -39.5 -139.5t-141.5 -144.5l-52 -43q-130 -107 -152 -205h381v-120h-550z" />
<glyph unicode="&#xb3;" horiz-adv-x="846" d="M155 587v120q127 -50 204 -50q81 0 131 44t50 115q0 179 -255 179h-50v91h43q239 0 239 163q0 126 -153 126q-91 0 -197 -49v110q107 37 221 37q276 0 276 -205q0 -154 -187 -218q216 -49 216 -234q0 -119 -85 -188t-233 -69q-104 0 -220 28z" />
<glyph unicode="&#xb4;" horiz-adv-x="1232" d="M387 1257l236 315h224l-315 -315h-145z" />
<glyph unicode="&#xb5;" horiz-adv-x="1257" d="M193 -387v1451h193v-701q0 -206 178 -206q162 0 306 217v690h193v-1064h-193v200q-137 -224 -309 -224q-100 0 -175 48v-411h-193z" />
<glyph unicode="&#xb6;" horiz-adv-x="1269" d="M212 1131q0 152 84 236q84 83 326 83h387v-1740h-120v1620h-145v-1620h-122v1015q-193 14 -301.5 121.5t-108.5 284.5z" />
<glyph unicode="&#xb7;" horiz-adv-x="1269" d="M514 460v242h242v-242h-242z" />
<glyph unicode="&#xb8;" horiz-adv-x="1232" d="M500 -323q45 -15 103 -15q101 0 101 72q0 94 -184 94l93 172h96l-59 -107q75 0 132.5 -46.5t57.5 -108.5q0 -67 -57.5 -114t-139.5 -47q-71 0 -143 20v80z" />
<glyph unicode="&#xb9;" horiz-adv-x="846" d="M254 1356v81l290 23v-880h-145v776h-145z" />
<glyph unicode="&#xba;" horiz-adv-x="846" d="M121 1227q0 155 85.5 245t233.5 90q147 0 233 -90t86 -245q0 -156 -86 -246t-233 -90q-148 0 -233.5 90t-85.5 246zM274 1227q0 -238 166 -238q165 0 165 238q0 237 -165 237q-166 0 -166 -237z" />
<glyph unicode="&#xbb;" horiz-adv-x="1051" d="M73 170l290 362l-290 363l97 72l386 -435l-386 -435zM460 170l290 362l-290 363l96 72l387 -435l-387 -435z" />
<glyph unicode="&#xbc;" horiz-adv-x="1608" d="M97 1356v81l290 23v-880h-145v776h-145zM147 -36l1067 1523h132l-1065 -1523h-134zM858 237v112l395 521h137v-518h121v-115h-121v-237h-133v237h-399zM984 352h273v357z" />
<glyph unicode="&#xbd;" horiz-adv-x="1608" d="M97 1356v81l290 23v-880h-145v776h-145zM98 -36l1067 1523h132l-1065 -1523h-134zM958 0v120q65 112 178 214l69 61q153 135 153 252q0 146 -161 146q-93 0 -217 -68v115q124 53 247 53q128 0 206.5 -66.5t78.5 -174.5q0 -78 -39.5 -139.5t-141.5 -144.5l-52 -43 q-130 -107 -152 -205h381v-120h-550z" />
<glyph unicode="&#xbe;" horiz-adv-x="1608" d="M97 587v120q127 -50 204 -50q81 0 131 44t50 115q0 179 -255 179h-50v91h43q239 0 239 163q0 126 -153 126q-91 0 -197 -49v110q107 37 221 37q276 0 276 -205q0 -154 -187 -218q216 -49 216 -234q0 -119 -85 -188t-233 -69q-104 0 -220 28zM244 -36l1067 1523h132 l-1065 -1523h-134zM858 237v112l395 521h137v-518h121v-115h-121v-237h-133v237h-399zM984 352h273v357z" />
<glyph unicode="&#xbf;" horiz-adv-x="846" d="M36 -92q0 87 33.5 149t130.5 153l60 58q91 87 119.5 144t28.5 156v109h194v-54q0 -109 -30 -182t-114 -170l-63 -70q-153 -176 -153 -289q0 -87 67.5 -138.5t183.5 -51.5q147 0 317 73v-163q-182 -55 -341 -55q-199 0 -316 89.5t-117 241.5zM408 870v194h194v-194h-194z " />
<glyph unicode="&#xc0;" horiz-adv-x="1384" d="M17 0l575 1450h204l566 -1450h-222l-158 402h-614l-160 -402h-191zM379 1887h224l236 -315h-145zM427 555h495l-247 625z" />
<glyph unicode="&#xc1;" horiz-adv-x="1384" d="M17 0l575 1450h204l566 -1450h-222l-158 402h-614l-160 -402h-191zM427 555h495l-247 625zM549 1572l236 315h224l-315 -315h-145z" />
<glyph unicode="&#xc2;" horiz-adv-x="1384" d="M17 0l575 1450h204l566 -1450h-222l-158 402h-614l-160 -402h-191zM350 1572l237 315h213l236 -315h-145l-199 198l-197 -198h-145zM427 555h495l-247 625z" />
<glyph unicode="&#xc3;" horiz-adv-x="1384" d="M17 0l575 1450h204l566 -1450h-222l-158 402h-614l-160 -402h-191zM363 1572q11 230 181 230q72 0 133 -38l58 -36q55 -34 84 -34q67 0 76 108h121q-11 -230 -182 -230q-71 0 -132 39l-59 36q-55 33 -83 33q-68 0 -76 -108h-121zM427 555h495l-247 625z" />
<glyph unicode="&#xc4;" horiz-adv-x="1384" d="M17 0l575 1450h204l566 -1450h-222l-158 402h-614l-160 -402h-191zM412 1572v170h170v-170h-170zM427 555h495l-247 625zM799 1572v170h170v-170h-170z" />
<glyph unicode="&#xc5;" horiz-adv-x="1384" d="M17 0l575 1450h204l566 -1450h-222l-158 402h-614l-160 -402h-191zM427 555h495l-247 625zM471 1795q0 92 64.5 157t157.5 65t158 -64.5t65 -157.5t-64.5 -158t-158.5 -65q-93 0 -157.5 65t-64.5 158zM555 1795q0 -57 40.5 -97.5t97.5 -40.5q58 0 98.5 40t40.5 98t-41 98 t-98 40t-97.5 -40t-40.5 -98z" />
<glyph unicode="&#xc6;" horiz-adv-x="1819" d="M18 0l843 1450h866v-153h-606v-466h508v-152h-508v-525h651v-154h-857v406h-473l-236 -406h-188zM529 558h386v657z" />
<glyph unicode="&#xc7;" horiz-adv-x="1388" d="M102 724q0 364 187.5 563.5t529.5 199.5q194 0 456 -64v-193q-298 103 -460 103q-236 0 -365.5 -160t-129.5 -451q0 -278 138.5 -438t378.5 -160q205 0 440 127v-177q-215 -110 -469 -110q-338 0 -522 198t-184 562zM641 -323q45 -15 103 -15q101 0 101 72q0 94 -184 94 l93 172h96l-59 -107q75 0 132.5 -46.5t57.5 -108.5q0 -67 -57.5 -114t-139.5 -47q-71 0 -143 20v80z" />
<glyph unicode="&#xc8;" horiz-adv-x="1087" d="M187 0v1450h811v-153h-605v-466h507v-152h-507v-525h647v-154h-853zM290 1887h224l236 -315h-145z" />
<glyph unicode="&#xc9;" horiz-adv-x="1087" d="M187 0v1450h811v-153h-605v-466h507v-152h-507v-525h647v-154h-853zM447 1572l236 315h224l-315 -315h-145z" />
<glyph unicode="&#xca;" horiz-adv-x="1087" d="M187 0v1450h811v-153h-605v-466h507v-152h-507v-525h647v-154h-853zM259 1572l237 315h213l236 -315h-145l-199 198l-197 -198h-145z" />
<glyph unicode="&#xcb;" horiz-adv-x="1087" d="M187 0v1450h811v-153h-605v-466h507v-152h-507v-525h647v-154h-853zM335 1572v170h170v-170h-170zM722 1572v170h170v-170h-170z" />
<glyph unicode="&#xcc;" horiz-adv-x="578" d="M-26 1887h224l236 -315h-145zM186 0v1450h206v-1450h-206z" />
<glyph unicode="&#xcd;" horiz-adv-x="578" d="M144 1572l236 315h224l-315 -315h-145zM186 0v1450h206v-1450h-206z" />
<glyph unicode="&#xce;" horiz-adv-x="578" d="M-54 1572l237 315h213l236 -315h-145l-199 198l-197 -198h-145zM186 0v1450h206v-1450h-206z" />
<glyph unicode="&#xcf;" horiz-adv-x="578" d="M11 1572v170h170v-170h-170zM186 0v1450h206v-1450h-206zM398 1572v170h170v-170h-170z" />
<glyph unicode="&#xd0;" horiz-adv-x="1503" d="M-29 665v154h217v631h482q217 0 349.5 -48t229.5 -162q153 -183 153 -480q0 -337 -180 -545q-98 -115 -226.5 -165t-322.5 -50h-485v665h-217zM394 154h264q283 0 399 152q127 161 127 434q0 256 -125 402q-75 89 -180 122t-315 33h-170v-478h326v-154h-326v-511z" />
<glyph unicode="&#xd1;" horiz-adv-x="1482" d="M187 0v1450h202l730 -1120v1120h177v-1450h-201l-731 1120v-1120h-177zM439 1572q11 230 181 230q72 0 133 -38l58 -36q55 -34 84 -34q67 0 76 108h121q-11 -230 -182 -230q-71 0 -132 39l-59 36q-55 33 -83 33q-68 0 -76 -108h-121z" />
<glyph unicode="&#xd2;" horiz-adv-x="1559" d="M102 725q0 347 184.5 554.5t493.5 207.5t493.5 -207.5t184.5 -554.5t-184.5 -554t-493.5 -207t-493.5 207t-184.5 554zM320 727q0 -287 122 -448t338 -161q217 0 338.5 161t121.5 448q0 285 -121.5 445.5t-338.5 160.5q-216 0 -338 -160.5t-122 -445.5zM465 1887h224 l236 -315h-145z" />
<glyph unicode="&#xd3;" horiz-adv-x="1559" d="M102 725q0 347 184.5 554.5t493.5 207.5t493.5 -207.5t184.5 -554.5t-184.5 -554t-493.5 -207t-493.5 207t-184.5 554zM320 727q0 -287 122 -448t338 -161q217 0 338.5 161t121.5 448q0 285 -121.5 445.5t-338.5 160.5q-216 0 -338 -160.5t-122 -445.5zM635 1572l236 315 h224l-315 -315h-145z" />
<glyph unicode="&#xd4;" horiz-adv-x="1559" d="M102 725q0 347 184.5 554.5t493.5 207.5t493.5 -207.5t184.5 -554.5t-184.5 -554t-493.5 -207t-493.5 207t-184.5 554zM320 727q0 -287 122 -448t338 -161q217 0 338.5 161t121.5 448q0 285 -121.5 445.5t-338.5 160.5q-216 0 -338 -160.5t-122 -445.5zM437 1572l237 315 h213l236 -315h-145l-199 198l-197 -198h-145z" />
<glyph unicode="&#xd5;" horiz-adv-x="1559" d="M102 725q0 347 184.5 554.5t493.5 207.5t493.5 -207.5t184.5 -554.5t-184.5 -554t-493.5 -207t-493.5 207t-184.5 554zM320 727q0 -287 122 -448t338 -161q217 0 338.5 161t121.5 448q0 285 -121.5 445.5t-338.5 160.5q-216 0 -338 -160.5t-122 -445.5zM454 1572 q11 230 181 230q72 0 133 -38l58 -36q55 -34 84 -34q67 0 76 108h121q-11 -230 -182 -230q-71 0 -132 39l-59 36q-55 33 -83 33q-68 0 -76 -108h-121z" />
<glyph unicode="&#xd6;" horiz-adv-x="1559" d="M102 725q0 347 184.5 554.5t493.5 207.5t493.5 -207.5t184.5 -554.5t-184.5 -554t-493.5 -207t-493.5 207t-184.5 554zM320 727q0 -287 122 -448t338 -161q217 0 338.5 161t121.5 448q0 285 -121.5 445.5t-338.5 160.5q-216 0 -338 -160.5t-122 -445.5zM502 1572v170h170 v-170h-170zM889 1572v170h170v-170h-170z" />
<glyph unicode="&#xd7;" d="M218 69l511 511l-511 513l68 67l512 -511l512 511l68 -67l-512 -513l512 -511l-68 -69l-512 513l-512 -513z" />
<glyph unicode="&#xd8;" horiz-adv-x="1559" d="M102 726q0 347 184.5 554t492.5 207q232 0 405 -124l95 124h168l-165 -216q176 -212 176 -548q0 -344 -184.5 -551.5t-490.5 -207.5q-240 0 -407 123l-94 -123h-169l165 216q-176 213 -176 546zM320 727q0 -228 82 -385l673 880q-117 111 -296 111q-215 0 -337 -160.5 t-122 -445.5zM485 229q117 -111 297 -111q215 0 336.5 160.5t121.5 445.5q0 231 -82 385z" />
<glyph unicode="&#xd9;" horiz-adv-x="1390" d="M175 537v913h206v-915q0 -218 81 -317.5t257 -99.5q173 0 245 93.5t72 316.5v922h180v-919q0 -190 -37 -292t-134 -179q-122 -96 -335 -96q-275 0 -405 139t-130 434zM394 1887h224l236 -315h-145z" />
<glyph unicode="&#xda;" horiz-adv-x="1390" d="M175 537v913h206v-915q0 -218 81 -317.5t257 -99.5q173 0 245 93.5t72 316.5v922h180v-919q0 -190 -37 -292t-134 -179q-122 -96 -335 -96q-275 0 -405 139t-130 434zM563 1572l236 315h224l-315 -315h-145z" />
<glyph unicode="&#xdb;" horiz-adv-x="1390" d="M175 537v913h206v-915q0 -218 81 -317.5t257 -99.5q173 0 245 93.5t72 316.5v922h180v-919q0 -190 -37 -292t-134 -179q-122 -96 -335 -96q-275 0 -405 139t-130 434zM365 1572l237 315h213l236 -315h-145l-199 198l-197 -198h-145z" />
<glyph unicode="&#xdc;" horiz-adv-x="1390" d="M175 537v913h206v-915q0 -218 81 -317.5t257 -99.5q173 0 245 93.5t72 316.5v922h180v-919q0 -190 -37 -292t-134 -179q-122 -96 -335 -96q-275 0 -405 139t-130 434zM417 1572v170h170v-170h-170zM804 1572v170h170v-170h-170z" />
<glyph unicode="&#xdd;" horiz-adv-x="1250" d="M17 1450h235l376 -654l406 654h191l-518 -840v-610h-206v606zM483 1572l236 315h224l-315 -315h-145z" />
<glyph unicode="&#xde;" horiz-adv-x="1109" d="M187 0v1450h204v-287h191q263 0 377.5 -89t114.5 -291q0 -233 -156.5 -363.5t-435.5 -130.5h-91v-289h-204zM391 440h107q171 0 265.5 86t94.5 241q0 130 -79 185.5t-262 55.5h-126v-568z" />
<glyph unicode="&#xdf;" horiz-adv-x="1200" d="M193 1128q0 242 82 343t278 101q162 0 259 -70.5t97 -188.5q0 -119 -128 -289q-75 -99 -75 -138q0 -60 107 -152l158 -133q170 -143 170 -308q0 -147 -92.5 -232t-248.5 -85q-138 0 -277 56v166q180 -77 277 -77q72 0 115 42t43 112q0 50 -22.5 86.5t-89.5 94.5l-187 160 q-123 106 -123 215q0 82 98 233q81 125 81 215q0 148 -166 148q-163 0 -163 -218v-1209h-193v1128z" />
<glyph unicode="&#xe0;" horiz-adv-x="1108" d="M101 268q0 174 146.5 267.5t420.5 93.5h45v129q0 185 -193 185q-150 0 -327 -94v159q195 80 368 80q177 0 261 -81t84 -249v-483q0 -165 102 -165q13 0 38 4l13 -107q-65 -31 -145 -31q-135 0 -172 159q-174 -159 -334 -159q-133 0 -220 82.5t-87 209.5zM249 1572h224 l236 -315h-145zM294 299q0 -70 49 -118t120 -48q120 0 250 107v275l-61 2q-161 0 -259.5 -59.5t-98.5 -158.5z" />
<glyph unicode="&#xe1;" horiz-adv-x="1108" d="M101 268q0 174 146.5 267.5t420.5 93.5h45v129q0 185 -193 185q-150 0 -327 -94v159q195 80 368 80q177 0 261 -81t84 -249v-483q0 -165 102 -165q13 0 38 4l13 -107q-65 -31 -145 -31q-135 0 -172 159q-174 -159 -334 -159q-133 0 -220 82.5t-87 209.5zM294 299 q0 -70 49 -118t120 -48q120 0 250 107v275l-61 2q-161 0 -259.5 -59.5t-98.5 -158.5zM417 1257l236 315h224l-315 -315h-145z" />
<glyph unicode="&#xe2;" horiz-adv-x="1108" d="M101 268q0 174 146.5 267.5t420.5 93.5h45v129q0 185 -193 185q-150 0 -327 -94v159q195 80 368 80q177 0 261 -81t84 -249v-483q0 -165 102 -165q13 0 38 4l13 -107q-65 -31 -145 -31q-135 0 -172 159q-174 -159 -334 -159q-133 0 -220 82.5t-87 209.5zM215 1257 l237 315h213l236 -315h-145l-199 198l-197 -198h-145zM294 299q0 -70 49 -118t120 -48q120 0 250 107v275l-61 2q-161 0 -259.5 -59.5t-98.5 -158.5z" />
<glyph unicode="&#xe3;" horiz-adv-x="1108" d="M101 268q0 174 146.5 267.5t420.5 93.5h45v129q0 185 -193 185q-150 0 -327 -94v159q195 80 368 80q177 0 261 -81t84 -249v-483q0 -165 102 -165q13 0 38 4l13 -107q-65 -31 -145 -31q-135 0 -172 159q-174 -159 -334 -159q-133 0 -220 82.5t-87 209.5zM229 1257 q11 230 181 230q72 0 133 -38l58 -36q55 -34 84 -34q67 0 76 108h121q-11 -230 -182 -230q-71 0 -132 39l-59 36q-55 33 -83 33q-68 0 -76 -108h-121zM294 299q0 -70 49 -118t120 -48q120 0 250 107v275l-61 2q-161 0 -259.5 -59.5t-98.5 -158.5z" />
<glyph unicode="&#xe4;" horiz-adv-x="1108" d="M101 268q0 174 146.5 267.5t420.5 93.5h45v129q0 185 -193 185q-150 0 -327 -94v159q195 80 368 80q177 0 261 -81t84 -249v-483q0 -165 102 -165q13 0 38 4l13 -107q-65 -31 -145 -31q-135 0 -172 159q-174 -159 -334 -159q-133 0 -220 82.5t-87 209.5zM278 1257v170 h170v-170h-170zM294 299q0 -70 49 -118t120 -48q120 0 250 107v275l-61 2q-161 0 -259.5 -59.5t-98.5 -158.5zM665 1257v170h170v-170h-170z" />
<glyph unicode="&#xe5;" horiz-adv-x="1108" d="M101 268q0 174 146.5 267.5t420.5 93.5h45v129q0 185 -193 185q-150 0 -327 -94v159q195 80 368 80q177 0 261 -81t84 -249v-483q0 -165 102 -165q13 0 38 4l13 -107q-65 -31 -145 -31q-135 0 -172 159q-174 -159 -334 -159q-133 0 -220 82.5t-87 209.5zM294 299 q0 -70 49 -118t120 -48q120 0 250 107v275l-61 2q-161 0 -259.5 -59.5t-98.5 -158.5zM334 1480q0 92 64.5 157t157.5 65t158 -64.5t65 -157.5t-64.5 -158t-158.5 -65q-93 0 -157.5 65t-64.5 158zM418 1480q0 -57 40.5 -97.5t97.5 -40.5q58 0 98.5 40t40.5 98t-41 98t-98 40 t-97.5 -40t-40.5 -98z" />
<glyph unicode="&#xe6;" horiz-adv-x="1708" d="M101 268q0 174 146.5 267.5t420.5 93.5h45v129q0 185 -193 185q-150 0 -327 -94v159q195 80 369 80q188 0 297 -119q121 119 297 119q410 0 410 -586h-659q28 -381 358 -381q137 0 301 69v-154q-189 -60 -352 -60q-279 0 -421 213q-186 -213 -385 -213q-133 0 -220 82.5 t-87 209.5zM294 299q0 -70 49 -118t120 -48q120 0 250 107v275l-61 2q-161 0 -259.5 -59.5t-98.5 -158.5zM913 635h447q0 309 -209 309q-213 0 -238 -309z" />
<glyph unicode="&#xe7;" horiz-adv-x="1028" d="M109 538q0 260 140.5 405t392.5 145q124 0 278 -34v-162q-163 48 -266 48q-149 0 -238.5 -111.5t-89.5 -296.5q0 -179 92.5 -290t241.5 -111q132 0 272 68v-167q-187 -56 -323 -56q-216 0 -358 159.5t-142 402.5zM462 -323q45 -15 103 -15q101 0 101 72q0 94 -184 94 l93 172h96l-59 -107q75 0 132.5 -46.5t57.5 -108.5q0 -67 -57.5 -114t-139.5 -47q-71 0 -143 20v80z" />
<glyph unicode="&#xe8;" horiz-adv-x="1118" d="M109 537q0 242 130.5 397t334.5 155q193 0 298.5 -138t105.5 -390l-1 -59h-671q42 -380 371 -380q121 0 296 65v-153q-194 -58 -332 -58q-236 0 -384 156t-148 405zM243 1572h224l236 -315h-145zM315 647h469q0 297 -221 297q-223 0 -248 -297z" />
<glyph unicode="&#xe9;" horiz-adv-x="1118" d="M109 537q0 242 130.5 397t334.5 155q193 0 298.5 -138t105.5 -390l-1 -59h-671q42 -380 371 -380q121 0 296 65v-153q-194 -58 -332 -58q-236 0 -384 156t-148 405zM315 647h469q0 297 -221 297q-223 0 -248 -297zM412 1257l236 315h224l-315 -315h-145z" />
<glyph unicode="&#xea;" horiz-adv-x="1118" d="M109 537q0 242 130.5 397t334.5 155q193 0 298.5 -138t105.5 -390l-1 -59h-671q42 -380 371 -380q121 0 296 65v-153q-194 -58 -332 -58q-236 0 -384 156t-148 405zM230 1257l237 315h213l236 -315h-145l-199 198l-197 -198h-145zM315 647h469q0 297 -221 297 q-223 0 -248 -297z" />
<glyph unicode="&#xeb;" horiz-adv-x="1118" d="M109 537q0 242 130.5 397t334.5 155q193 0 298.5 -138t105.5 -390l-1 -59h-671q42 -380 371 -380q121 0 296 65v-153q-194 -58 -332 -58q-236 0 -384 156t-148 405zM302 1257v170h170v-170h-170zM315 647h469q0 297 -221 297q-223 0 -248 -297zM689 1257v170h170v-170 h-170z" />
<glyph unicode="&#xec;" horiz-adv-x="580" d="M-25 1572h224l236 -315h-145zM193 0v1064h193v-1064h-193z" />
<glyph unicode="&#xed;" horiz-adv-x="580" d="M145 1257l236 315h224l-315 -315h-145zM193 0v1064h193v-1064h-193z" />
<glyph unicode="&#xee;" horiz-adv-x="580" d="M-53 1257l237 315h213l236 -315h-145l-199 198l-197 -198h-145zM193 0v1064h193v-1064h-193z" />
<glyph unicode="&#xef;" horiz-adv-x="580" d="M12 1257v170h170v-170h-170zM193 0v1064h193v-1064h-193zM399 1257v170h170v-170h-170z" />
<glyph unicode="&#xf0;" horiz-adv-x="1209" d="M107 527q0 239 135 389t351 150q61 0 134 -20q-78 142 -242 245l-165 -165l-85 85l141 141q-114 50 -268 50v145q216 0 389 -74l165 166l86 -86l-140 -140q235 -156 363.5 -377t128.5 -471q0 -266 -136.5 -427.5t-360.5 -161.5q-223 0 -359.5 151.5t-136.5 399.5z M313 526q0 -187 79 -296t216 -109t217 111t80 303q0 389 -293 389q-141 0 -220 -106t-79 -292z" />
<glyph unicode="&#xf1;" horiz-adv-x="1245" d="M193 0v1064h193v-200q153 224 374 224q140 0 221.5 -88t81.5 -236v-764h-193v702q0 118 -34.5 168.5t-115.5 50.5q-177 0 -334 -232v-689h-193zM326 1257q11 230 181 230q72 0 133 -38l58 -36q55 -34 84 -34q67 0 76 108h121q-11 -230 -182 -230q-71 0 -132 39l-59 36 q-55 33 -83 33q-68 0 -76 -108h-121z" />
<glyph unicode="&#xf2;" horiz-adv-x="1232" d="M109 532q0 257 136.5 406.5t370.5 149.5q235 0 371.5 -149.5t136.5 -406.5t-136.5 -406.5t-371.5 -149.5q-234 0 -370.5 149.5t-136.5 406.5zM302 1572h224l236 -315h-145zM315 532q0 -196 78.5 -303.5t222.5 -107.5t223.5 107.5t79.5 303.5t-79.5 303.5t-223.5 107.5 t-222.5 -107.5t-78.5 -303.5z" />
<glyph unicode="&#xf3;" horiz-adv-x="1232" d="M109 532q0 257 136.5 406.5t370.5 149.5q235 0 371.5 -149.5t136.5 -406.5t-136.5 -406.5t-371.5 -149.5q-234 0 -370.5 149.5t-136.5 406.5zM315 532q0 -196 78.5 -303.5t222.5 -107.5t223.5 107.5t79.5 303.5t-79.5 303.5t-223.5 107.5t-222.5 -107.5t-78.5 -303.5z M471 1257l236 315h224l-315 -315h-145z" />
<glyph unicode="&#xf4;" horiz-adv-x="1232" d="M109 532q0 257 136.5 406.5t370.5 149.5q235 0 371.5 -149.5t136.5 -406.5t-136.5 -406.5t-371.5 -149.5q-234 0 -370.5 149.5t-136.5 406.5zM273 1257l237 315h213l236 -315h-145l-199 198l-197 -198h-145zM315 532q0 -196 78.5 -303.5t222.5 -107.5t223.5 107.5 t79.5 303.5t-79.5 303.5t-223.5 107.5t-222.5 -107.5t-78.5 -303.5z" />
<glyph unicode="&#xf5;" horiz-adv-x="1232" d="M109 532q0 257 136.5 406.5t370.5 149.5q235 0 371.5 -149.5t136.5 -406.5t-136.5 -406.5t-371.5 -149.5q-234 0 -370.5 149.5t-136.5 406.5zM290 1257q11 230 181 230q72 0 133 -38l58 -36q55 -34 84 -34q67 0 76 108h121q-11 -230 -182 -230q-71 0 -132 39l-59 36 q-55 33 -83 33q-68 0 -76 -108h-121zM315 532q0 -196 78.5 -303.5t222.5 -107.5t223.5 107.5t79.5 303.5t-79.5 303.5t-223.5 107.5t-222.5 -107.5t-78.5 -303.5z" />
<glyph unicode="&#xf6;" horiz-adv-x="1232" d="M109 532q0 257 136.5 406.5t370.5 149.5q235 0 371.5 -149.5t136.5 -406.5t-136.5 -406.5t-371.5 -149.5q-234 0 -370.5 149.5t-136.5 406.5zM315 532q0 -196 78.5 -303.5t222.5 -107.5t223.5 107.5t79.5 303.5t-79.5 303.5t-223.5 107.5t-222.5 -107.5t-78.5 -303.5z M338 1257v170h170v-170h-170zM725 1257v170h170v-170h-170z" />
<glyph unicode="&#xf7;" d="M218 532v97h1160v-97h-1160zM701 97v193h194v-193h-194zM701 870v194h194v-194h-194z" />
<glyph unicode="&#xf8;" horiz-adv-x="1232" d="M109 529q0 259 136 409t371 150q175 0 298 -84l67 84h143l-126 -162l2 -4q124 -156 124 -389q0 -257 -136 -407t-371 -150q-170 0 -298 83l-65 -83h-145l124 165q-124 143 -124 388zM315 536q0 -142 42 -244l453 578q-79 73 -192 73q-144 0 -223.5 -107.5t-79.5 -299.5z M423 192q76 -71 191 -71q145 0 225 107t80 299q0 134 -42 244z" />
<glyph unicode="&#xf9;" horiz-adv-x="1245" d="M181 300v764h193v-701q0 -120 35 -170.5t116 -50.5q177 0 333 232v690h194v-1064h-194v200q-153 -224 -373 -224q-139 0 -221.5 87.5t-82.5 236.5zM302 1572h224l236 -315h-145z" />
<glyph unicode="&#xfa;" horiz-adv-x="1245" d="M181 300v764h193v-701q0 -120 35 -170.5t116 -50.5q177 0 333 232v690h194v-1064h-194v200q-153 -224 -373 -224q-139 0 -221.5 87.5t-82.5 236.5zM471 1257l236 315h224l-315 -315h-145z" />
<glyph unicode="&#xfb;" horiz-adv-x="1245" d="M181 300v764h193v-701q0 -120 35 -170.5t116 -50.5q177 0 333 232v690h194v-1064h-194v200q-153 -224 -373 -224q-139 0 -221.5 87.5t-82.5 236.5zM273 1257l237 315h213l236 -315h-145l-199 198l-197 -198h-145z" />
<glyph unicode="&#xfc;" horiz-adv-x="1245" d="M181 300v764h193v-701q0 -120 35 -170.5t116 -50.5q177 0 333 232v690h194v-1064h-194v200q-153 -224 -373 -224q-139 0 -221.5 87.5t-82.5 236.5zM338 1257v170h170v-170h-170zM725 1257v170h170v-170h-170z" />
<glyph unicode="&#xfd;" horiz-adv-x="1048" d="M16 1064h208l305 -801l326 801h182l-581 -1451h-201l172 387zM384 1257l236 315h224l-315 -315h-145z" />
<glyph unicode="&#xfe;" horiz-adv-x="1263" d="M193 -387v1934h193v-683q119 224 356 224q192 0 302 -140t110 -384q0 -264 -124.5 -426t-328.5 -162q-189 0 -315 145v-508h-193zM386 254q149 -133 284 -133q134 0 206.5 111t72.5 313q0 374 -247 374q-162 0 -316 -175v-490z" />
<glyph unicode="&#xff;" horiz-adv-x="1048" d="M16 1064h208l305 -801l326 801h182l-581 -1451h-201l172 387zM261 1257v170h170v-170h-170zM648 1257v170h170v-170h-170z" />
<glyph unicode="&#x100;" horiz-adv-x="1384" d="M17 0l575 1450h204l566 -1450h-222l-158 402h-614l-160 -402h-191zM379 1572v145h629v-145h-629zM427 555h495l-247 625z" />
<glyph unicode="&#x101;" horiz-adv-x="1108" d="M101 268q0 174 146.5 267.5t420.5 93.5h45v129q0 185 -193 185q-150 0 -327 -94v159q195 80 368 80q177 0 261 -81t84 -249v-483q0 -165 102 -165q13 0 38 4l13 -107q-65 -31 -145 -31q-135 0 -172 159q-174 -159 -334 -159q-133 0 -220 82.5t-87 209.5zM222 1257v145 h629v-145h-629zM294 299q0 -70 49 -118t120 -48q120 0 250 107v275l-61 2q-161 0 -259.5 -59.5t-98.5 -158.5z" />
<glyph unicode="&#x102;" horiz-adv-x="1384" d="M17 0l575 1450h204l566 -1450h-222l-158 402h-614l-160 -402h-191zM363 1862h121q31 -145 205 -145q175 0 206 145h121q-15 -131 -104 -210.5t-223 -79.5q-133 0 -221.5 79t-104.5 211zM427 555h495l-247 625z" />
<glyph unicode="&#x103;" horiz-adv-x="1108" d="M101 268q0 174 146.5 267.5t420.5 93.5h45v129q0 185 -193 185q-150 0 -327 -94v159q195 80 368 80q177 0 261 -81t84 -249v-483q0 -165 102 -165q13 0 38 4l13 -107q-65 -31 -145 -31q-135 0 -172 159q-174 -159 -334 -159q-133 0 -220 82.5t-87 209.5zM254 1547h121 q31 -145 205 -145q175 0 206 145h121q-15 -131 -104 -210.5t-223 -79.5q-133 0 -221.5 79t-104.5 211zM294 299q0 -70 49 -118t120 -48q120 0 250 107v275l-61 2q-161 0 -259.5 -59.5t-98.5 -158.5z" />
<glyph unicode="&#x104;" horiz-adv-x="1384" d="M17 0l575 1450h204l566 -1450h-222l-158 402h-614l-160 -402h-191zM427 555h495l-247 625zM985 -207q0 123 155 207h105q-126 -75 -126 -174q0 -96 111 -96q56 0 90 15v-79q-59 -29 -135 -29q-90 0 -145 43.5t-55 112.5z" />
<glyph unicode="&#x105;" horiz-adv-x="1108" d="M101 268q0 174 146.5 267.5t420.5 93.5h45v129q0 185 -193 185q-150 0 -327 -94v159q195 80 368 80q177 0 261 -81t84 -249v-483q0 -165 102 -165q13 0 38 4l13 -107q-65 -31 -145 -31q-135 0 -172 159q-174 -159 -334 -159q-133 0 -220 82.5t-87 209.5zM294 299 q0 -70 49 -118t120 -48q120 0 250 107v275l-61 2q-161 0 -259.5 -59.5t-98.5 -158.5zM692 -207q0 123 155 207h105q-126 -75 -126 -174q0 -96 111 -96q56 0 90 15v-79q-59 -29 -135 -29q-90 0 -145 43.5t-55 112.5z" />
<glyph unicode="&#x106;" horiz-adv-x="1388" d="M102 724q0 364 187.5 563.5t529.5 199.5q194 0 456 -64v-193q-298 103 -460 103q-236 0 -365.5 -160t-129.5 -451q0 -278 138.5 -438t378.5 -160q205 0 440 127v-177q-215 -110 -469 -110q-338 0 -522 198t-184 562zM641 1572l236 315h224l-315 -315h-145z" />
<glyph unicode="&#x107;" horiz-adv-x="1028" d="M109 538q0 260 140.5 405t392.5 145q124 0 278 -34v-162q-163 48 -266 48q-149 0 -238.5 -111.5t-89.5 -296.5q0 -179 92.5 -290t241.5 -111q132 0 272 68v-167q-187 -56 -323 -56q-216 0 -358 159.5t-142 402.5zM436 1257l236 315h224l-315 -315h-145z" />
<glyph unicode="&#x108;" horiz-adv-x="1388" d="M102 724q0 364 187.5 563.5t529.5 199.5q194 0 456 -64v-193q-298 103 -460 103q-236 0 -365.5 -160t-129.5 -451q0 -278 138.5 -438t378.5 -160q205 0 440 127v-177q-215 -110 -469 -110q-338 0 -522 198t-184 562zM467 1572l237 315h213l236 -315h-145l-199 198 l-197 -198h-145z" />
<glyph unicode="&#x109;" horiz-adv-x="1028" d="M109 538q0 260 140.5 405t392.5 145q124 0 278 -34v-162q-163 48 -266 48q-149 0 -238.5 -111.5t-89.5 -296.5q0 -179 92.5 -290t241.5 -111q132 0 272 68v-167q-187 -56 -323 -56q-216 0 -358 159.5t-142 402.5zM254 1257l237 315h213l236 -315h-145l-199 198l-197 -198 h-145z" />
<glyph unicode="&#x10a;" horiz-adv-x="1388" d="M102 724q0 364 187.5 563.5t529.5 199.5q194 0 456 -64v-193q-298 103 -460 103q-236 0 -365.5 -160t-129.5 -451q0 -278 138.5 -438t378.5 -160q205 0 440 127v-177q-215 -110 -469 -110q-338 0 -522 198t-184 562zM715 1572v193h193v-193h-193z" />
<glyph unicode="&#x10b;" horiz-adv-x="1028" d="M109 538q0 260 140.5 405t392.5 145q124 0 278 -34v-162q-163 48 -266 48q-149 0 -238.5 -111.5t-89.5 -296.5q0 -179 92.5 -290t241.5 -111q132 0 272 68v-167q-187 -56 -323 -56q-216 0 -358 159.5t-142 402.5zM534 1257v193h193v-193h-193z" />
<glyph unicode="&#x10c;" horiz-adv-x="1388" d="M102 724q0 364 187.5 563.5t529.5 199.5q194 0 456 -64v-193q-298 103 -460 103q-236 0 -365.5 -160t-129.5 -451q0 -278 138.5 -438t378.5 -160q205 0 440 127v-177q-215 -110 -469 -110q-338 0 -522 198t-184 562zM465 1887h145l199 -198l197 198h145l-236 -315h-213z " />
<glyph unicode="&#x10d;" horiz-adv-x="1028" d="M109 538q0 260 140.5 405t392.5 145q124 0 278 -34v-162q-163 48 -266 48q-149 0 -238.5 -111.5t-89.5 -296.5q0 -179 92.5 -290t241.5 -111q132 0 272 68v-167q-187 -56 -323 -56q-216 0 -358 159.5t-142 402.5zM260 1572h145l199 -198l197 198h145l-236 -315h-213z" />
<glyph unicode="&#x10e;" horiz-adv-x="1503" d="M187 0v1450h482q216 0 349 -48t230 -162q153 -183 153 -480q0 -337 -180 -545q-98 -115 -227 -165t-322 -50h-485zM389 1887h145l199 -198l197 198h145l-236 -315h-213zM393 154h264q282 0 399 152q127 161 127 434q0 256 -125 402q-75 89 -180 122t-315 33h-170v-1143z " />
<glyph unicode="&#x10f;" horiz-adv-x="1553" d="M109 499q0 265 125 427t329 162q189 0 313 -145v604h194v-1547h-194v200q-117 -224 -355 -224q-192 0 -302 140t-110 383zM315 518q0 -373 247 -373q160 0 314 175v490q-150 133 -284 133q-132 0 -204.5 -111t-72.5 -314zM1265 1102v58q74 21 74 178v16h-74v193h193v-167 q0 -258 -193 -278z" />
<glyph unicode="&#x110;" horiz-adv-x="1503" d="M-29 665v154h217v631h482q217 0 349.5 -48t229.5 -162q153 -183 153 -480q0 -337 -180 -545q-98 -115 -226.5 -165t-322.5 -50h-485v665h-217zM394 154h264q283 0 399 152q127 161 127 434q0 256 -125 402q-75 89 -180 122t-315 33h-170v-478h326v-154h-326v-511z" />
<glyph unicode="&#x111;" horiz-adv-x="1263" d="M109 499q0 265 125 427t329 162q189 0 313 -145v266h-254v121h254v217h194v-217h193v-121h-193v-1209h-194v200q-117 -224 -355 -224q-192 0 -302 140t-110 383zM315 518q0 -373 247 -373q160 0 314 175v490q-150 133 -284 133q-132 0 -204.5 -111t-72.5 -314z" />
<glyph unicode="&#x112;" horiz-adv-x="1087" d="M187 0v1450h811v-153h-605v-466h507v-152h-507v-525h647v-154h-853zM308 1572v145h629v-145h-629z" />
<glyph unicode="&#x113;" horiz-adv-x="1118" d="M109 537q0 242 130.5 397t334.5 155q193 0 298.5 -138t105.5 -390l-1 -59h-671q42 -380 371 -380q121 0 296 65v-153q-194 -58 -332 -58q-236 0 -384 156t-148 405zM267 1257v145h629v-145h-629zM315 647h469q0 297 -221 297q-223 0 -248 -297z" />
<glyph unicode="&#x114;" horiz-adv-x="1087" d="M187 0v1450h811v-153h-605v-466h507v-152h-507v-525h647v-154h-853zM287 1862h121q31 -145 205 -145q175 0 206 145h121q-15 -131 -104 -210.5t-223 -79.5q-133 0 -221.5 79t-104.5 211z" />
<glyph unicode="&#x115;" horiz-adv-x="1118" d="M109 537q0 242 130.5 397t334.5 155q193 0 298.5 -138t105.5 -390l-1 -59h-671q42 -380 371 -380q121 0 296 65v-153q-194 -58 -332 -58q-236 0 -384 156t-148 405zM257 1547h121q31 -145 205 -145q175 0 206 145h121q-15 -131 -104 -210.5t-223 -79.5q-133 0 -221.5 79 t-104.5 211zM315 647h469q0 297 -221 297q-223 0 -248 -297z" />
<glyph unicode="&#x116;" horiz-adv-x="1087" d="M187 0v1450h811v-153h-605v-466h507v-152h-507v-525h647v-154h-853zM508 1572v193h193v-193h-193z" />
<glyph unicode="&#x117;" horiz-adv-x="1118" d="M109 537q0 242 130.5 397t334.5 155q193 0 298.5 -138t105.5 -390l-1 -59h-671q42 -380 371 -380q121 0 296 65v-153q-194 -58 -332 -58q-236 0 -384 156t-148 405zM315 647h469q0 297 -221 297q-223 0 -248 -297zM471 1257v193h193v-193h-193z" />
<glyph unicode="&#x118;" horiz-adv-x="1087" d="M187 0v1450h811v-153h-605v-466h507v-152h-507v-525h647v-154h-853zM668 -207q0 123 155 207h105q-126 -75 -126 -174q0 -96 111 -96q56 0 90 15v-79q-59 -29 -135 -29q-90 0 -145 43.5t-55 112.5z" />
<glyph unicode="&#x119;" horiz-adv-x="1118" d="M109 537q0 242 130.5 397t334.5 155q193 0 298.5 -138t105.5 -390l-1 -59h-671q42 -380 371 -380q121 0 296 65v-153q-194 -58 -332 -58q-236 0 -384 156t-148 405zM315 647h469q0 297 -221 297q-223 0 -248 -297zM524 -207q0 123 155 207h105q-126 -75 -126 -174 q0 -96 111 -96q56 0 90 15v-79q-59 -29 -135 -29q-90 0 -145 43.5t-55 112.5z" />
<glyph unicode="&#x11a;" horiz-adv-x="1087" d="M187 0v1450h811v-153h-605v-466h507v-152h-507v-525h647v-154h-853zM269 1887h145l199 -198l197 198h145l-236 -315h-213z" />
<glyph unicode="&#x11b;" horiz-adv-x="1118" d="M109 537q0 242 130.5 397t334.5 155q193 0 298.5 -138t105.5 -390l-1 -59h-671q42 -380 371 -380q121 0 296 65v-153q-194 -58 -332 -58q-236 0 -384 156t-148 405zM214 1572h145l199 -198l197 198h145l-236 -315h-213zM315 647h469q0 297 -221 297q-223 0 -248 -297z " />
<glyph unicode="&#x11c;" horiz-adv-x="1450" d="M102 725q0 363 187.5 562.5t527.5 199.5q219 0 458 -66v-190q-300 102 -460 102q-235 0 -365 -159.5t-130 -449.5q0 -287 139.5 -446.5t390.5 -159.5q103 0 222 36v472h205v-587q-264 -75 -460 -75q-346 0 -530.5 196.5t-184.5 564.5zM469 1572l237 315h213l236 -315 h-145l-199 198l-197 -198h-145z" />
<glyph unicode="&#x11d;" horiz-adv-x="1251" d="M109 539q0 243 128.5 396t331.5 153q179 0 307 -145v121h194v-774q0 -250 -26 -370t-97 -196q-127 -135 -395 -135q-184 0 -355 57l23 168q167 -80 331 -80q325 0 325 346v168q-50 -106 -142.5 -165t-206.5 -59q-193 0 -305.5 139t-112.5 376zM273 1257l237 315h213 l236 -315h-145l-199 198l-197 -198h-145zM315 540q0 -347 246 -347q167 0 315 175v442q-127 133 -277 133q-133 0 -208.5 -107t-75.5 -296z" />
<glyph unicode="&#x11e;" horiz-adv-x="1450" d="M102 725q0 363 187.5 562.5t527.5 199.5q219 0 458 -66v-190q-300 102 -460 102q-235 0 -365 -159.5t-130 -449.5q0 -287 139.5 -446.5t390.5 -159.5q103 0 222 36v472h205v-587q-264 -75 -460 -75q-346 0 -530.5 196.5t-184.5 564.5zM460 1862h121q31 -145 205 -145 q175 0 206 145h121q-15 -131 -104 -210.5t-223 -79.5q-133 0 -221.5 79t-104.5 211z" />
<glyph unicode="&#x11f;" horiz-adv-x="1251" d="M109 539q0 243 128.5 396t331.5 153q179 0 307 -145v121h194v-774q0 -250 -26 -370t-97 -196q-127 -135 -395 -135q-184 0 -355 57l23 168q167 -80 331 -80q325 0 325 346v168q-50 -106 -142.5 -165t-206.5 -59q-193 0 -305.5 139t-112.5 376zM263 1547h121 q31 -145 205 -145q175 0 206 145h121q-15 -131 -104 -210.5t-223 -79.5q-133 0 -221.5 79t-104.5 211zM315 540q0 -347 246 -347q167 0 315 175v442q-127 133 -277 133q-133 0 -208.5 -107t-75.5 -296z" />
<glyph unicode="&#x120;" horiz-adv-x="1450" d="M102 725q0 363 187.5 562.5t527.5 199.5q219 0 458 -66v-190q-300 102 -460 102q-235 0 -365 -159.5t-130 -449.5q0 -287 139.5 -446.5t390.5 -159.5q103 0 222 36v472h205v-587q-264 -75 -460 -75q-346 0 -530.5 196.5t-184.5 564.5zM715 1572v193h193v-193h-193z" />
<glyph unicode="&#x121;" horiz-adv-x="1251" d="M109 539q0 243 128.5 396t331.5 153q179 0 307 -145v121h194v-774q0 -250 -26 -370t-97 -196q-127 -135 -395 -135q-184 0 -355 57l23 168q167 -80 331 -80q325 0 325 346v168q-50 -106 -142.5 -165t-206.5 -59q-193 0 -305.5 139t-112.5 376zM315 540q0 -347 246 -347 q167 0 315 175v442q-127 133 -277 133q-133 0 -208.5 -107t-75.5 -296zM503 1257v193h193v-193h-193z" />
<glyph unicode="&#x122;" horiz-adv-x="1450" d="M102 725q0 363 187.5 562.5t527.5 199.5q219 0 458 -66v-190q-300 102 -460 102q-235 0 -365 -159.5t-130 -449.5q0 -287 139.5 -446.5t390.5 -159.5q103 0 222 36v472h205v-587q-264 -75 -460 -75q-346 0 -530.5 196.5t-184.5 564.5zM661 -323q45 -15 103 -15 q101 0 101 72q0 94 -184 94l93 172h96l-59 -107q75 0 132.5 -46.5t57.5 -108.5q0 -67 -57.5 -114t-139.5 -47q-71 0 -143 20v80z" />
<glyph unicode="&#x123;" horiz-adv-x="1251" d="M109 539q0 243 128.5 396t331.5 153q179 0 307 -145v121h194v-774q0 -250 -26 -370t-97 -196q-127 -135 -395 -135q-184 0 -355 57l23 168q167 -80 331 -80q325 0 325 346v168q-50 -106 -142.5 -165t-206.5 -59q-193 0 -305.5 139t-112.5 376zM315 540q0 -347 246 -347 q167 0 315 175v442q-127 133 -277 133q-133 0 -208.5 -107t-75.5 -296zM494 1257v168q0 258 193 277v-58q-75 -20 -75 -177v-17h75v-193h-193z" />
<glyph unicode="&#x124;" horiz-adv-x="1474" d="M187 0v1450h206v-611h690v611h206v-1450h-206v685h-690v-685h-206zM395 1572l237 315h213l236 -315h-145l-199 198l-197 -198h-145z" />
<glyph unicode="&#x125;" horiz-adv-x="1245" d="M-53 1644l237 315h213l236 -315h-145l-199 198l-197 -198h-145zM193 0v1547h193v-683q153 224 374 224q140 0 221.5 -88t81.5 -236v-764h-193v702q0 118 -34.5 168.5t-115.5 50.5q-177 0 -334 -232v-689h-193z" />
<glyph unicode="&#x126;" horiz-adv-x="1584" d="M48 1064v145h193v241h206v-241h690v241h206v-241h193v-145h-193v-1064h-206v685h-690v-685h-206v1064h-193zM447 839h690v225h-690v-225z" />
<glyph unicode="&#x127;" horiz-adv-x="1245" d="M0 1209v121h193v217h193v-217h291v-121h-291v-345q153 224 374 224q140 0 221.5 -88t81.5 -236v-764h-193v702q0 118 -34.5 168.5t-115.5 50.5q-177 0 -334 -232v-689h-193v1209h-193z" />
<glyph unicode="&#x128;" horiz-adv-x="578" d="M-37 1572q11 230 181 230q72 0 133 -38l58 -36q55 -34 84 -34q67 0 76 108h121q-11 -230 -182 -230q-71 0 -132 39l-59 36q-55 33 -83 33q-68 0 -76 -108h-121zM186 0v1450h206v-1450h-206z" />
<glyph unicode="&#x129;" horiz-adv-x="580" d="M-36 1257q11 230 181 230q72 0 133 -38l58 -36q55 -34 84 -34q67 0 76 108h121q-11 -230 -182 -230q-71 0 -132 39l-59 36q-55 33 -83 33q-68 0 -76 -108h-121zM193 0v1064h193v-1064h-193z" />
<glyph unicode="&#x12a;" horiz-adv-x="578" d="M-25 1572v145h629v-145h-629zM186 0v1450h206v-1450h-206z" />
<glyph unicode="&#x12b;" horiz-adv-x="580" d="M-24 1257v145h629v-145h-629zM193 0v1064h193v-1064h-193z" />
<glyph unicode="&#x12c;" horiz-adv-x="578" d="M-37 1862h121q31 -145 205 -145q175 0 206 145h121q-15 -131 -104 -210.5t-223 -79.5q-133 0 -221.5 79t-104.5 211zM186 0v1450h206v-1450h-206z" />
<glyph unicode="&#x12d;" horiz-adv-x="580" d="M-36 1547h121q31 -145 205 -145q175 0 206 145h121q-15 -131 -104 -210.5t-223 -79.5q-133 0 -221.5 79t-104.5 211zM193 0v1064h193v-1064h-193z" />
<glyph unicode="&#x12e;" horiz-adv-x="578" d="M132 -207q0 123 155 207h105q-126 -75 -126 -174q0 -96 111 -96q56 0 90 15v-79q-59 -29 -135 -29q-90 0 -145 43.5t-55 112.5zM186 0v1450h206v-1450h-206z" />
<glyph unicode="&#x12f;" horiz-adv-x="580" d="M127 -207q0 123 155 207h105q-126 -75 -126 -174q0 -96 111 -96q56 0 90 15v-79q-59 -29 -135 -29q-90 0 -145 43.5t-55 112.5zM194 0v1064h193v-1064h-193zM194 1257v193h193v-193h-193z" />
<glyph unicode="&#x130;" horiz-adv-x="578" d="M186 0v1450h206v-1450h-206zM192 1572v193h193v-193h-193z" />
<glyph unicode="&#x131;" horiz-adv-x="580" d="M193 0v1064h193v-1064h-193z" />
<glyph unicode="&#x132;" horiz-adv-x="1195" d="M186 0v1450h206v-1450h-206zM392 -87q117 -38 209 -38q116 0 162.5 67.5t46.5 233.5v1274h206v-1267q0 -473 -448 -473q-69 0 -176 20v183z" />
<glyph unicode="&#x133;" horiz-adv-x="1161" d="M193 0v1064h193v-1064h-193zM193 1257v193h193v-193h-193zM400 -209q135 -57 206 -57q80 0 124 44q30 29 37 66t7 156v1064h194v-1064q0 -411 -346 -411q-103 0 -222 49v153zM774 1257v193h194v-193h-194z" />
<glyph unicode="&#x134;" horiz-adv-x="624" d="M-180 -87q117 -38 209 -38q116 0 162.5 67.5t46.5 233.5v1274h206v-1267q0 -473 -448 -473q-69 0 -176 20v183zM-2 1572l237 315h213l236 -315h-145l-199 198l-197 -198h-145z" />
<glyph unicode="&#x135;" horiz-adv-x="610" d="M-150 -362v153q135 -57 206 -57q80 0 124 44q30 29 37 66t7 156v1064h194v-1064q0 -411 -346 -411q-103 0 -222 49zM-22 1257l237 315h213l236 -315h-145l-199 198l-197 -198h-145z" />
<glyph unicode="&#x136;" horiz-adv-x="1310" d="M187 0v1450h193v-713l587 713h207l-568 -691l669 -759h-261l-634 735v-735h-193zM516 -323q45 -15 103 -15q101 0 101 72q0 94 -184 94l93 172h96l-59 -107q75 0 132.5 -46.5t57.5 -108.5q0 -67 -57.5 -114t-139.5 -47q-71 0 -143 20v80z" />
<glyph unicode="&#x137;" horiz-adv-x="1173" d="M193 0v1547h193v-999l451 516h208l-431 -497l520 -567h-247l-501 546v-546h-193zM459 -323q45 -15 103 -15q101 0 101 72q0 94 -184 94l93 172h96l-59 -107q75 0 132.5 -46.5t57.5 -108.5q0 -67 -57.5 -114t-139.5 -47q-71 0 -143 20v80z" />
<glyph unicode="&#x138;" horiz-adv-x="1173" d="M193 0v1064h193v-516l451 516h208l-431 -497l520 -567h-247l-501 546v-546h-193z" />
<glyph unicode="&#x139;" horiz-adv-x="1070" d="M168 1572l236 315h224l-315 -315h-145zM187 0v1450h206v-1296h653v-154h-859z" />
<glyph unicode="&#x13a;" horiz-adv-x="580" d="M145 1644l236 315h224l-315 -315h-145zM193 0v1547h193v-1547h-193z" />
<glyph unicode="&#x13b;" horiz-adv-x="1070" d="M187 0v1450h206v-1296h653v-154h-859zM453 -323q45 -15 103 -15q101 0 101 72q0 94 -184 94l93 172h96l-59 -107q75 0 132.5 -46.5t57.5 -108.5q0 -67 -57.5 -114t-139.5 -47q-71 0 -143 20v80z" />
<glyph unicode="&#x13c;" horiz-adv-x="580" d="M140 -323q45 -15 103 -15q101 0 101 72q0 94 -184 94l93 172h96l-59 -107q75 0 132.5 -46.5t57.5 -108.5q0 -67 -57.5 -114t-139.5 -47q-71 0 -143 20v80zM193 0v1547h193v-1547h-193z" />
<glyph unicode="&#x13d;" horiz-adv-x="1070" d="M187 0v1450h206v-1296h653v-154h-859zM684 1005v58q74 21 74 178v16h-74v193h193v-167q0 -258 -193 -278z" />
<glyph unicode="&#x13e;" horiz-adv-x="580" d="M193 0v1547h193v-1547h-193zM582 1102v58q74 21 74 178v16h-74v193h193v-167q0 -258 -193 -278z" />
<glyph unicode="&#x13f;" horiz-adv-x="1070" d="M187 0v1450h206v-1296h653v-154h-859zM728 629v193h193v-193h-193z" />
<glyph unicode="&#x140;" horiz-adv-x="580" d="M193 0v1547h193v-1547h-193zM580 677v193h193v-193h-193z" />
<glyph unicode="&#x141;" horiz-adv-x="1070" d="M-28 489v171l216 118v672h205v-560l217 117v-171l-217 -117v-565h653v-154h-858v607z" />
<glyph unicode="&#x142;" horiz-adv-x="580" d="M-26 549v163l217 118v717h193v-610l219 110v-162l-219 -115v-770h-193v663z" />
<glyph unicode="&#x143;" horiz-adv-x="1482" d="M187 0v1450h202l730 -1120v1120h177v-1450h-201l-731 1120v-1120h-177zM597 1572l236 315h224l-315 -315h-145z" />
<glyph unicode="&#x144;" horiz-adv-x="1245" d="M193 0v1064h193v-200q153 224 374 224q140 0 221.5 -88t81.5 -236v-764h-193v702q0 118 -34.5 168.5t-115.5 50.5q-177 0 -334 -232v-689h-193zM459 1257l236 315h224l-315 -315h-145z" />
<glyph unicode="&#x145;" horiz-adv-x="1482" d="M187 0v1450h202l730 -1120v1120h177v-1450h-201l-731 1120v-1120h-177zM560 -323q45 -15 103 -15q101 0 101 72q0 94 -184 94l93 172h96l-59 -107q75 0 132.5 -46.5t57.5 -108.5q0 -67 -57.5 -114t-139.5 -47q-71 0 -143 20v80z" />
<glyph unicode="&#x146;" horiz-adv-x="1245" d="M193 0v1064h193v-200q153 224 374 224q140 0 221.5 -88t81.5 -236v-764h-193v702q0 118 -34.5 168.5t-115.5 50.5q-177 0 -334 -232v-689h-193zM499 -323q45 -15 103 -15q101 0 101 72q0 94 -184 94l93 172h96l-59 -107q75 0 132.5 -46.5t57.5 -108.5q0 -67 -57.5 -114 t-139.5 -47q-71 0 -143 20v80z" />
<glyph unicode="&#x147;" horiz-adv-x="1482" d="M187 0v1450h202l730 -1120v1120h177v-1450h-201l-731 1120v-1120h-177zM396 1887h145l199 -198l197 198h145l-236 -315h-213z" />
<glyph unicode="&#x148;" horiz-adv-x="1245" d="M193 0v1064h193v-200q153 224 374 224q140 0 221.5 -88t81.5 -236v-764h-193v702q0 118 -34.5 168.5t-115.5 50.5q-177 0 -334 -232v-689h-193zM284 1572h145l199 -198l197 198h145l-236 -315h-213z" />
<glyph unicode="&#x149;" horiz-adv-x="1245" d="M74 1102v58q74 21 74 178v16h-74v193h193v-167q0 -258 -193 -278zM435 0v1064h193v-200q153 224 374 224q140 0 221.5 -88t81.5 -236v-764h-193v702q0 118 -34.5 168.5t-115.5 50.5q-177 0 -334 -232v-689h-193z" />
<glyph unicode="&#x14a;" horiz-adv-x="1482" d="M187 0v1450h202l730 -1120v1120h177v-1540q0 -151 -83.5 -236.5t-231.5 -85.5q-72 0 -145 21v151q61 -27 143 -27q75 0 108 49.5t33 163.5v15l-756 1159v-1120h-177z" />
<glyph unicode="&#x14b;" horiz-adv-x="1245" d="M193 0v1064h193v-200q153 224 374 224q140 0 221.5 -88t81.5 -236v-854q0 -151 -82.5 -236.5t-231.5 -85.5q-72 0 -145 21v151q61 -27 123 -27q78 0 110.5 49t32.5 164v756q0 118 -34.5 168.5t-115.5 50.5q-177 0 -334 -232v-689h-193z" />
<glyph unicode="&#x14c;" horiz-adv-x="1559" d="M102 725q0 347 184.5 554.5t493.5 207.5t493.5 -207.5t184.5 -554.5t-184.5 -554t-493.5 -207t-493.5 207t-184.5 554zM320 727q0 -287 122 -448t338 -161q217 0 338.5 161t121.5 448q0 285 -121.5 445.5t-338.5 160.5q-216 0 -338 -160.5t-122 -445.5zM466 1572v145h629 v-145h-629z" />
<glyph unicode="&#x14d;" horiz-adv-x="1232" d="M109 532q0 257 136.5 406.5t370.5 149.5q235 0 371.5 -149.5t136.5 -406.5t-136.5 -406.5t-371.5 -149.5q-234 0 -370.5 149.5t-136.5 406.5zM302 1257v145h629v-145h-629zM315 532q0 -196 78.5 -303.5t222.5 -107.5t223.5 107.5t79.5 303.5t-79.5 303.5t-223.5 107.5 t-222.5 -107.5t-78.5 -303.5z" />
<glyph unicode="&#x14e;" horiz-adv-x="1559" d="M102 725q0 347 184.5 554.5t493.5 207.5t493.5 -207.5t184.5 -554.5t-184.5 -554t-493.5 -207t-493.5 207t-184.5 554zM320 727q0 -287 122 -448t338 -161q217 0 338.5 161t121.5 448q0 285 -121.5 445.5t-338.5 160.5q-216 0 -338 -160.5t-122 -445.5zM454 1862h121 q31 -145 205 -145q175 0 206 145h121q-15 -131 -104 -210.5t-223 -79.5q-133 0 -221.5 79t-104.5 211z" />
<glyph unicode="&#x14f;" horiz-adv-x="1232" d="M109 532q0 257 136.5 406.5t370.5 149.5q235 0 371.5 -149.5t136.5 -406.5t-136.5 -406.5t-371.5 -149.5q-234 0 -370.5 149.5t-136.5 406.5zM290 1547h121q31 -145 205 -145q175 0 206 145h121q-15 -131 -104 -210.5t-223 -79.5q-133 0 -221.5 79t-104.5 211zM315 532 q0 -196 78.5 -303.5t222.5 -107.5t223.5 107.5t79.5 303.5t-79.5 303.5t-223.5 107.5t-222.5 -107.5t-78.5 -303.5z" />
<glyph unicode="&#x150;" horiz-adv-x="1559" d="M102 725q0 347 184.5 554.5t493.5 207.5t493.5 -207.5t184.5 -554.5t-184.5 -554t-493.5 -207t-493.5 207t-184.5 554zM320 727q0 -287 122 -448t338 -161q217 0 338.5 161t121.5 448q0 285 -121.5 445.5t-338.5 160.5q-216 0 -338 -160.5t-122 -445.5zM553 1572l236 315 h188l-315 -315h-109zM898 1572l235 315h188l-314 -315h-109z" />
<glyph unicode="&#x151;" horiz-adv-x="1232" d="M109 532q0 257 136.5 406.5t370.5 149.5q235 0 371.5 -149.5t136.5 -406.5t-136.5 -406.5t-371.5 -149.5q-234 0 -370.5 149.5t-136.5 406.5zM315 532q0 -196 78.5 -303.5t222.5 -107.5t223.5 107.5t79.5 303.5t-79.5 303.5t-223.5 107.5t-222.5 -107.5t-78.5 -303.5z M390 1257l236 315h188l-315 -315h-109zM735 1257l235 315h188l-314 -315h-109z" />
<glyph unicode="&#x152;" horiz-adv-x="2007" d="M102 725q0 346 184 554t491 208q178 0 329 -92v55h811v-153h-605v-466h507v-152l-506 -1l-1 -524h647v-154h-853v57q-152 -93 -340 -93q-298 0 -481 210t-183 551zM320 725q0 -286 122 -446.5t338 -160.5q170 0 248 105.5t78 334.5v335q0 229 -78.5 334.5t-250.5 105.5 q-214 0 -335.5 -161.5t-121.5 -446.5z" />
<glyph unicode="&#x153;" horiz-adv-x="1862" d="M109 532q0 254 135.5 405t365.5 151q213 0 345 -196q119 196 357 196q409 0 409 -586h-660q29 -381 358 -381q137 0 302 69v-154q-189 -60 -343 -60q-147 0 -244.5 45.5t-174.5 149.5q-127 -195 -351 -195q-228 0 -363.5 151t-135.5 405zM315 532q0 -194 78 -302.5 t219 -108.5q252 0 252 428q0 394 -252 394q-141 0 -219 -108.5t-78 -302.5zM1068 635h447q0 309 -210 309q-212 0 -237 -309z" />
<glyph unicode="&#x154;" horiz-adv-x="1269" d="M187 0v1450h439q209 0 320 -92t111 -267q0 -138 -76.5 -246t-216.5 -166l485 -679h-253l-413 613h-192v-613h-204zM391 767h67q190 0 289 77.5t99 226.5q0 226 -326 226h-129v-530zM463 1572l236 315h224l-315 -315h-145z" />
<glyph unicode="&#x155;" horiz-adv-x="821" d="M193 0v1064h193v-200q115 224 333 224q30 0 62 -5v-180q-50 16 -88 16q-183 0 -307 -217v-702h-193zM317 1257l236 315h224l-315 -315h-145z" />
<glyph unicode="&#x156;" horiz-adv-x="1269" d="M187 0v1450h439q209 0 320 -92t111 -267q0 -138 -76.5 -246t-216.5 -166l485 -679h-253l-413 613h-192v-613h-204zM391 767h67q190 0 289 77.5t99 226.5q0 226 -326 226h-129v-530zM475 -323q45 -15 103 -15q101 0 101 72q0 94 -184 94l93 172h96l-59 -107 q75 0 132.5 -46.5t57.5 -108.5q0 -67 -57.5 -114t-139.5 -47q-71 0 -143 20v80z" />
<glyph unicode="&#x157;" horiz-adv-x="821" d="M179 -323q45 -15 103 -15q101 0 101 72q0 94 -184 94l93 172h96l-59 -107q75 0 132.5 -46.5t57.5 -108.5q0 -67 -57.5 -114t-139.5 -47q-71 0 -143 20v80zM193 0v1064h193v-200q115 224 333 224q30 0 62 -5v-180q-50 16 -88 16q-183 0 -307 -217v-702h-193z" />
<glyph unicode="&#x158;" horiz-adv-x="1269" d="M187 0v1450h439q209 0 320 -92t111 -267q0 -138 -76.5 -246t-216.5 -166l485 -679h-253l-413 613h-192v-613h-204zM240 1887h145l199 -198l197 198h145l-236 -315h-213zM391 767h67q190 0 289 77.5t99 226.5q0 226 -326 226h-129v-530z" />
<glyph unicode="&#x159;" horiz-adv-x="821" d="M151 1572h145l199 -198l197 198h145l-236 -315h-213zM193 0v1064h193v-200q115 224 333 224q30 0 62 -5v-180q-50 16 -88 16q-183 0 -307 -217v-702h-193z" />
<glyph unicode="&#x15a;" horiz-adv-x="1080" d="M98 27v204q245 -113 404 -113q120 0 194 64t74 167q0 85 -48.5 145t-178.5 133l-100 58q-185 106 -261 199.5t-76 217.5q0 168 121.5 276.5t309.5 108.5q168 0 354 -56v-188q-229 90 -342 90q-107 0 -176.5 -57t-69.5 -143q0 -73 51 -128.5t186 -133.5l104 -59 q188 -106 262.5 -201.5t74.5 -228.5q0 -189 -139 -303.5t-370 -114.5q-147 0 -374 63zM418 1572l236 315h224l-315 -315h-145z" />
<glyph unicode="&#x15b;" horiz-adv-x="1023" d="M154 37v178q189 -94 329 -94q83 0 138 45t55 112q0 99 -154 164l-112 48q-250 104 -250 299q0 139 98.5 219t269.5 80q89 0 221 -25l40 -8v-160q-162 48 -258 48q-84 0 -134.5 -37t-50.5 -98q0 -88 141 -147l93 -40q158 -66 223.5 -140t65.5 -185q0 -140 -110.5 -230 t-283.5 -90q-132 0 -321 61zM342 1257l236 315h224l-315 -315h-145z" />
<glyph unicode="&#x15c;" horiz-adv-x="1080" d="M98 27v204q245 -113 404 -113q120 0 194 64t74 167q0 85 -48.5 145t-178.5 133l-100 58q-185 106 -261 199.5t-76 217.5q0 168 121.5 276.5t309.5 108.5q168 0 354 -56v-188q-229 90 -342 90q-107 0 -176.5 -57t-69.5 -143q0 -73 51 -128.5t186 -133.5l104 -59 q188 -106 262.5 -201.5t74.5 -228.5q0 -189 -139 -303.5t-370 -114.5q-147 0 -374 63zM201 1572l237 315h213l236 -315h-145l-199 198l-197 -198h-145z" />
<glyph unicode="&#x15d;" horiz-adv-x="1023" d="M154 37v178q189 -94 329 -94q83 0 138 45t55 112q0 99 -154 164l-112 48q-250 104 -250 299q0 139 98.5 219t269.5 80q89 0 221 -25l40 -8v-160q-162 48 -258 48q-84 0 -134.5 -37t-50.5 -98q0 -88 141 -147l93 -40q158 -66 223.5 -140t65.5 -185q0 -140 -110.5 -230 t-283.5 -90q-132 0 -321 61zM171 1257l237 315h213l236 -315h-145l-199 198l-197 -198h-145z" />
<glyph unicode="&#x15e;" horiz-adv-x="1080" d="M98 27v204q245 -113 404 -113q120 0 194 64t74 167q0 85 -48.5 145t-178.5 133l-100 58q-185 106 -261 199.5t-76 217.5q0 168 121.5 276.5t309.5 108.5q168 0 354 -56v-188q-229 90 -342 90q-107 0 -176.5 -57t-69.5 -143q0 -73 51 -128.5t186 -133.5l104 -59 q188 -106 262.5 -201.5t74.5 -228.5q0 -189 -139 -303.5t-370 -114.5q-147 0 -374 63zM376 -323q45 -15 103 -15q101 0 101 72q0 94 -184 94l93 172h96l-59 -107q75 0 132.5 -46.5t57.5 -108.5q0 -67 -57.5 -114t-139.5 -47q-71 0 -143 20v80z" />
<glyph unicode="&#x15f;" horiz-adv-x="1023" d="M154 37v178q189 -94 329 -94q83 0 138 45t55 112q0 99 -154 164l-112 48q-250 104 -250 299q0 139 98.5 219t269.5 80q89 0 221 -25l40 -8v-160q-162 48 -258 48q-84 0 -134.5 -37t-50.5 -98q0 -88 141 -147l93 -40q158 -66 223.5 -140t65.5 -185q0 -140 -110.5 -230 t-283.5 -90q-132 0 -321 61zM365 -323q45 -15 103 -15q101 0 101 72q0 94 -184 94l93 172h96l-59 -107q75 0 132.5 -46.5t57.5 -108.5q0 -67 -57.5 -114t-139.5 -47q-71 0 -143 20v80z" />
<glyph unicode="&#x160;" horiz-adv-x="1080" d="M98 27v204q245 -113 404 -113q120 0 194 64t74 167q0 85 -48.5 145t-178.5 133l-100 58q-185 106 -261 199.5t-76 217.5q0 168 121.5 276.5t309.5 108.5q168 0 354 -56v-188q-229 90 -342 90q-107 0 -176.5 -57t-69.5 -143q0 -73 51 -128.5t186 -133.5l104 -59 q188 -106 262.5 -201.5t74.5 -228.5q0 -189 -139 -303.5t-370 -114.5q-147 0 -374 63zM219 1887h145l199 -198l197 198h145l-236 -315h-213z" />
<glyph unicode="&#x161;" horiz-adv-x="1023" d="M154 37v178q189 -94 329 -94q83 0 138 45t55 112q0 99 -154 164l-112 48q-250 104 -250 299q0 139 98.5 219t269.5 80q89 0 221 -25l40 -8v-160q-162 48 -258 48q-84 0 -134.5 -37t-50.5 -98q0 -88 141 -147l93 -40q158 -66 223.5 -140t65.5 -185q0 -140 -110.5 -230 t-283.5 -90q-132 0 -321 61zM166 1572h145l199 -198l197 198h145l-236 -315h-213z" />
<glyph unicode="&#x162;" horiz-adv-x="1269" d="M18 1297v153h1234v-153h-514v-1297h-206v1297h-514zM496 -323q45 -15 103 -15q101 0 101 72q0 94 -184 94l93 172h96l-59 -107q75 0 132.5 -46.5t57.5 -108.5q0 -67 -57.5 -114t-139.5 -47q-71 0 -143 20v80z" />
<glyph unicode="&#x163;" horiz-adv-x="750" d="M68 919v145h133v193l193 19v-212h278v-145h-278v-590q0 -208 180 -208q38 0 93 12v-133q-89 -24 -154 -24q-147 0 -229.5 84t-82.5 234v625h-133zM345 -323q45 -15 103 -15q101 0 101 72q0 94 -184 94l93 172h96l-59 -107q75 0 132.5 -46.5t57.5 -108.5q0 -67 -57.5 -114 t-139.5 -47q-71 0 -143 20v80z" />
<glyph unicode="&#x164;" horiz-adv-x="1269" d="M18 1297v153h1234v-153h-514v-1297h-206v1297h-514zM292 1887h145l199 -198l197 198h145l-236 -315h-213z" />
<glyph unicode="&#x165;" horiz-adv-x="1156" d="M68 919v145h133v193l193 19v-212h278v-145h-278v-590q0 -208 180 -208q38 0 93 12v-133q-89 -24 -154 -24q-147 0 -229.5 84t-82.5 234v625h-133zM565 1233v58q74 21 74 178v16h-74v193h193v-167q0 -258 -193 -278z" />
<glyph unicode="&#x166;" horiz-adv-x="1269" d="M18 1297v153h1234v-153h-514v-451h297v-145h-297v-701h-206v701h-297v145h297v451h-514z" />
<glyph unicode="&#x167;" horiz-adv-x="750" d="M20 557v120h181v242h-133v145h133v193l193 19v-212h278v-145h-278v-242h278v-120h-278v-228q0 -208 180 -208q38 0 93 12v-133q-89 -24 -154 -24q-147 0 -229.5 84t-82.5 234v263h-181z" />
<glyph unicode="&#x168;" horiz-adv-x="1390" d="M175 537v913h206v-915q0 -218 81 -317.5t257 -99.5q173 0 245 93.5t72 316.5v922h180v-919q0 -190 -37 -292t-134 -179q-122 -96 -335 -96q-275 0 -405 139t-130 434zM369 1572q11 230 181 230q72 0 133 -38l58 -36q55 -34 84 -34q67 0 76 108h121q-11 -230 -182 -230 q-71 0 -132 39l-59 36q-55 33 -83 33q-68 0 -76 -108h-121z" />
<glyph unicode="&#x169;" horiz-adv-x="1245" d="M181 300v764h193v-701q0 -120 35 -170.5t116 -50.5q177 0 333 232v690h194v-1064h-194v200q-153 -224 -373 -224q-139 0 -221.5 87.5t-82.5 236.5zM290 1257q11 230 181 230q72 0 133 -38l58 -36q55 -34 84 -34q67 0 76 108h121q-11 -230 -182 -230q-71 0 -132 39l-59 36 q-55 33 -83 33q-68 0 -76 -108h-121z" />
<glyph unicode="&#x16a;" horiz-adv-x="1390" d="M175 537v913h206v-915q0 -218 81 -317.5t257 -99.5q173 0 245 93.5t72 316.5v922h180v-919q0 -190 -37 -292t-134 -179q-122 -96 -335 -96q-275 0 -405 139t-130 434zM394 1572v145h629v-145h-629z" />
<glyph unicode="&#x16b;" horiz-adv-x="1245" d="M181 300v764h193v-701q0 -120 35 -170.5t116 -50.5q177 0 333 232v690h194v-1064h-194v200q-153 -224 -373 -224q-139 0 -221.5 87.5t-82.5 236.5zM302 1257v145h629v-145h-629z" />
<glyph unicode="&#x16c;" horiz-adv-x="1390" d="M175 537v913h206v-915q0 -218 81 -317.5t257 -99.5q173 0 245 93.5t72 316.5v922h180v-919q0 -190 -37 -292t-134 -179q-122 -96 -335 -96q-275 0 -405 139t-130 434zM382 1862h121q31 -145 205 -145q175 0 206 145h121q-15 -131 -104 -210.5t-223 -79.5 q-133 0 -221.5 79t-104.5 211z" />
<glyph unicode="&#x16d;" horiz-adv-x="1245" d="M181 300v764h193v-701q0 -120 35 -170.5t116 -50.5q177 0 333 232v690h194v-1064h-194v200q-153 -224 -373 -224q-139 0 -221.5 87.5t-82.5 236.5zM290 1547h121q31 -145 205 -145q175 0 206 145h121q-15 -131 -104 -210.5t-223 -79.5q-133 0 -221.5 79t-104.5 211z" />
<glyph unicode="&#x16e;" horiz-adv-x="1390" d="M175 537v913h206v-915q0 -218 81 -317.5t257 -99.5q173 0 245 93.5t72 316.5v922h180v-919q0 -190 -37 -292t-134 -179q-122 -96 -335 -96q-275 0 -405 139t-130 434zM473 1770q0 92 64.5 157t157.5 65t158 -64.5t65 -157.5t-64.5 -158t-158.5 -65q-93 0 -157.5 65 t-64.5 158zM557 1770q0 -57 40.5 -97.5t97.5 -40.5q58 0 98.5 40t40.5 98t-41 98t-98 40t-97.5 -40t-40.5 -98z" />
<glyph unicode="&#x16f;" horiz-adv-x="1245" d="M181 300v764h193v-701q0 -120 35 -170.5t116 -50.5q177 0 333 232v690h194v-1064h-194v200q-153 -224 -373 -224q-139 0 -221.5 87.5t-82.5 236.5zM394 1480q0 92 64.5 157t157.5 65t158 -64.5t65 -157.5t-64.5 -158t-158.5 -65q-93 0 -157.5 65t-64.5 158zM478 1480 q0 -57 40.5 -97.5t97.5 -40.5q58 0 98.5 40t40.5 98t-41 98t-98 40t-97.5 -40t-40.5 -98z" />
<glyph unicode="&#x170;" horiz-adv-x="1390" d="M175 537v913h206v-915q0 -218 81 -317.5t257 -99.5q173 0 245 93.5t72 316.5v922h180v-919q0 -190 -37 -292t-134 -179q-122 -96 -335 -96q-275 0 -405 139t-130 434zM482 1572l236 315h188l-315 -315h-109zM827 1572l235 315h188l-314 -315h-109z" />
<glyph unicode="&#x171;" horiz-adv-x="1245" d="M181 300v764h193v-701q0 -120 35 -170.5t116 -50.5q177 0 333 232v690h194v-1064h-194v200q-153 -224 -373 -224q-139 0 -221.5 87.5t-82.5 236.5zM374 1257l236 315h188l-315 -315h-109zM719 1257l235 315h188l-314 -315h-109z" />
<glyph unicode="&#x172;" horiz-adv-x="1390" d="M175 537v913h206v-915q0 -218 81 -317.5t257 -99.5q173 0 245 93.5t72 316.5v922h180v-919q0 -190 -37 -292t-134 -179q-122 -96 -335 -96q-275 0 -405 139t-130 434zM658 -207q0 123 155 207h105q-126 -75 -126 -174q0 -96 111 -96q56 0 90 15v-79q-59 -29 -135 -29 q-90 0 -145 43.5t-55 112.5z" />
<glyph unicode="&#x173;" horiz-adv-x="1245" d="M181 300v764h193v-701q0 -120 35 -170.5t116 -50.5q177 0 333 232v690h194v-1064h-194v200q-153 -224 -373 -224q-139 0 -221.5 87.5t-82.5 236.5zM703 -207q0 123 155 207h105q-126 -75 -126 -174q0 -96 111 -96q56 0 90 15v-79q-59 -29 -135 -29q-90 0 -145 43.5 t-55 112.5z" />
<glyph unicode="&#x174;" horiz-adv-x="1716" d="M2 1450h198l297 -1145l273 1145h198l259 -1130l319 1130h168l-407 -1450h-205l-255 1118l-268 -1118h-204zM526 1572l237 315h213l236 -315h-145l-199 198l-197 -198h-145z" />
<glyph unicode="&#x175;" horiz-adv-x="1546" d="M12 1064h189l233 -824l252 824h193l221 -824l267 824h166l-347 -1064h-194l-226 824l-254 -824h-195zM439 1257l237 315h213l236 -315h-145l-199 198l-197 -198h-145z" />
<glyph unicode="&#x176;" horiz-adv-x="1250" d="M17 1450h235l376 -654l406 654h191l-518 -840v-610h-206v606zM299 1572l237 315h213l236 -315h-145l-199 198l-197 -198h-145z" />
<glyph unicode="&#x177;" horiz-adv-x="1048" d="M16 1064h208l305 -801l326 801h182l-581 -1451h-201l172 387zM196 1257l237 315h213l236 -315h-145l-199 198l-197 -198h-145z" />
<glyph unicode="&#x178;" horiz-adv-x="1250" d="M17 1450h235l376 -654l406 654h191l-518 -840v-610h-206v606zM343 1572v170h170v-170h-170zM730 1572v170h170v-170h-170z" />
<glyph unicode="&#x179;" horiz-adv-x="1213" d="M93 0v165l779 1132h-731v153h978v-153l-779 -1132h779v-165h-1026zM473 1572l236 315h224l-315 -315h-145z" />
<glyph unicode="&#x17a;" horiz-adv-x="1150" d="M121 0v145l658 774h-628v145h866v-145l-658 -774h671v-145h-909zM406 1257l236 315h224l-315 -315h-145z" />
<glyph unicode="&#x17b;" horiz-adv-x="1213" d="M93 0v165l779 1132h-731v153h978v-153l-779 -1132h779v-165h-1026zM534 1572v193h193v-193h-193z" />
<glyph unicode="&#x17c;" horiz-adv-x="1150" d="M121 0v145l658 774h-628v145h866v-145l-658 -774h671v-145h-909zM478 1257v193h193v-193h-193z" />
<glyph unicode="&#x17d;" horiz-adv-x="1213" d="M93 0v165l779 1132h-731v153h978v-153l-779 -1132h779v-165h-1026zM297 1887h145l199 -198l197 198h145l-236 -315h-213z" />
<glyph unicode="&#x17e;" horiz-adv-x="1150" d="M121 0v145l658 774h-628v145h866v-145l-658 -774h671v-145h-909zM230 1572h145l199 -198l197 198h145l-236 -315h-213z" />
<glyph unicode="&#x17f;" horiz-adv-x="699" d="M78 919v145h151v128q0 380 347 380q97 0 221 -32v-153q-131 40 -209 40q-95 0 -130 -45.5t-35 -169.5v-1212h-194v919h-151z" />
<glyph unicode="&#x180;" horiz-adv-x="1263" d="M0 1209v121h193v217h193v-217h255v-121h-255v-345q119 224 356 224q192 0 302 -140t110 -384q0 -264 -124.5 -426t-328.5 -162q-189 0 -315 145l-23 -133h-170v1221h-193zM386 254q149 -133 284 -133q134 0 206.5 111t72.5 313q0 374 -247 374q-162 0 -316 -175v-490z " />
<glyph unicode="&#x181;" horiz-adv-x="1402" d="M24 1141q0 166 96 237.5t316 71.5h376q218 0 334 -82t116 -237q0 -126 -77.5 -224t-220.5 -151q356 -109 356 -393q0 -128 -78 -227q-60 -75 -144.5 -105.5t-234.5 -30.5h-427v1299h-17q-137 0 -190 -34.5t-53 -124.5q0 -77 30 -142h-160q-22 77 -22 143zM640 813h66 q165 0 255.5 71t90.5 201q0 212 -332 212h-80v-484zM640 154h42q226 0 293 28q127 54 127 200q0 130 -115.5 215.5t-288.5 85.5h-58v-529z" />
<glyph unicode="&#x182;" horiz-adv-x="1167" d="M187 0v1450h811v-151h-605v-471h111q172 0 250.5 -14t149.5 -59q166 -106 166 -313q0 -242 -189 -361q-129 -81 -430 -81h-264zM393 151h73q211 0 294 61q104 76 104 216q0 132 -87.5 190.5t-282.5 58.5h-101v-526z" />
<glyph unicode="&#x183;" horiz-adv-x="1263" d="M193 -12v1559h768v-145h-574l-1 -538q119 224 356 224q192 0 302 -140t110 -384q0 -264 -124.5 -426t-328.5 -162q-189 0 -315 145l-23 -133h-170zM386 254q149 -133 284 -133q134 0 206.5 111t72.5 313q0 374 -247 374q-162 0 -316 -175v-490z" />
<glyph unicode="&#x184;" horiz-adv-x="1142" d="M187 0v1450h206v-622h111q172 0 250.5 -14t149.5 -59q166 -106 166 -313q0 -242 -189 -361q-129 -81 -430 -81h-264zM393 151h73q211 0 294 61q104 76 104 216q0 132 -87.5 190.5t-282.5 58.5h-101v-526z" />
<glyph unicode="&#x185;" horiz-adv-x="991" d="M200 0v1064h193v-429h69q440 0 440 -310q0 -325 -469 -325h-233zM393 145h53q250 0 250 176q0 162 -247 162h-56v-338z" />
<glyph unicode="&#x186;" horiz-adv-x="1388" d="M112 1200v176q214 111 468 111q338 0 522.5 -198t184.5 -563q0 -363 -188 -562.5t-530 -199.5q-194 0 -455 64v192q298 -102 459 -102q236 0 365.5 159.5t129.5 450.5q0 278 -138 438t-378 160q-205 0 -440 -126z" />
<glyph unicode="&#x187;" horiz-adv-x="1388" d="M102 724q0 363 187 563t527 200q152 0 308 -30v12q0 206 74 299.5t237 93.5q64 0 143 -21v-159q-67 29 -143 29q-89 0 -124.5 -53.5t-35.5 -190.5v-237q-298 103 -460 103q-236 0 -365.5 -160t-129.5 -451q0 -278 138.5 -438t378.5 -160q205 0 440 127v-177 q-215 -110 -469 -110q-338 0 -522 198t-184 562z" />
<glyph unicode="&#x188;" horiz-adv-x="1068" d="M109 538q0 261 140.5 405.5t394.5 144.5q61 0 131 -8v117q0 375 296 375q75 0 155 -20v-146q-64 27 -138 27q-95 0 -131.5 -51.5t-36.5 -189.5v-300q-163 48 -266 48q-149 0 -238.5 -111.5t-89.5 -296.5q0 -179 92.5 -290t241.5 -111q132 0 272 68v-167 q-187 -56 -323 -56q-216 0 -358 159.5t-142 402.5z" />
<glyph unicode="&#x189;" horiz-adv-x="1503" d="M-29 665v154h217v631h482q217 0 349.5 -48t229.5 -162q153 -183 153 -480q0 -337 -180 -545q-98 -115 -226.5 -165t-322.5 -50h-485v665h-217zM394 154h264q283 0 399 152q127 161 127 434q0 256 -125 402q-75 89 -180 122t-315 33h-170v-478h326v-154h-326v-511z" />
<glyph unicode="&#x18a;" horiz-adv-x="1751" d="M24 1141q0 166 96 237.5t316 71.5h482q216 0 348.5 -48t229.5 -162q154 -183 154 -480q0 -337 -180 -545q-98 -115 -227 -165t-322 -50h-485v1299h-17q-137 0 -190 -34.5t-53 -124.5q0 -77 30 -142h-160q-22 77 -22 143zM642 154h264q282 0 399 152q127 161 127 434 q0 256 -125 402q-75 89 -180 122t-316 33h-169v-1143z" />
<glyph unicode="&#x18b;" horiz-adv-x="1166" d="M97 442q0 207 166 313q71 45 149.5 59t249.5 14h112v471h-604v151h810v-1450h-264q-300 0 -430 81q-189 119 -189 361zM303 427q0 -139 104 -215q82 -61 294 -61h73v526h-101q-196 0 -283 -58.5t-87 -191.5z" />
<glyph unicode="&#x18c;" horiz-adv-x="1263" d="M109 499q0 265 125 427t329 162q189 0 313 -145v459h-574v145h768v-1547h-194v200q-117 -224 -355 -224q-192 0 -302 140t-110 383zM315 518q0 -373 247 -373q160 0 314 175v490q-150 133 -284 133q-132 0 -204.5 -111t-72.5 -314z" />
<glyph unicode="&#x18d;" horiz-adv-x="1184" d="M109 1063q0 223 135.5 366t348.5 143q208 0 345.5 -139.5t137.5 -351.5q0 -347 -371 -491q178 -93 256.5 -174t78.5 -172q0 -125 -121 -196.5t-336 -71.5q-136 0 -251 28v161q126 -44 272 -44q109 0 176 29t67 77q0 73 -174 175l-92 53l-106 64q-194 117 -280 245.5 t-86 298.5zM315 1069q0 -131 53.5 -215.5t192.5 -169.5q309 108 309 401q0 146 -81 244t-203 98q-117 0 -194 -102.5t-77 -255.5z" />
<glyph unicode="&#x18e;" horiz-adv-x="1087" d="M48 1297v153h853v-1450h-810v154h605v465h-508v152h508v526h-648z" />
<glyph unicode="&#x18f;" horiz-adv-x="1360" d="M112 658l1 80h939q0 250 -139 415t-349 165q-218 0 -442 -108v185q208 92 436 92q329 0 514.5 -202.5t185.5 -560.5q0 -340 -171 -550t-447 -210q-528 0 -528 694zM332 557q0 -442 315 -442q149 0 254 124.5t135 334.5h-704v-17z" />
<glyph unicode="&#x190;" horiz-adv-x="1057" d="M145 402q0 132 72.5 240t198.5 162q-229 138 -229 352q0 158 112.5 245t315.5 87q193 0 352 -58v-160q-158 66 -313 66q-115 0 -185.5 -60.5t-70.5 -158.5q0 -123 93.5 -191t265.5 -68h23v-150h-24q-179 0 -286 -84.5t-107 -223.5q0 -127 86 -206t223 -79q118 0 320 75 v-180q-184 -46 -335 -46q-238 0 -375 117.5t-137 320.5z" />
<glyph unicode="&#x191;" horiz-adv-x="1076" d="M-96 -228q71 -32 141 -32q88 0 115.5 45t27.5 188v1477h811v-153h-605v-487h508v-151h-508v-679q0 -205 -72 -298.5t-230 -93.5q-101 0 -188 27v157z" />
<glyph unicode="&#x192;" horiz-adv-x="784" d="M-96 -225q129 -41 208 -41q95 0 130 45.5t35 168.5v971h-169v145h169v128q0 380 346 380q98 0 221 -32v-153q-130 40 -208 40q-95 0 -130.5 -45.5t-35.5 -169.5v-148h267v-145h-267v-950q0 -380 -346 -380q-98 0 -220 32v154z" />
<glyph unicode="&#x193;" horiz-adv-x="1450" d="M102 725q0 362 187 562t527 200q152 0 308 -30v12q0 206 74 299.5t237 93.5q64 0 143 -21v-159q-67 29 -143 29q-89 0 -124.5 -53.5t-35.5 -190.5v-236q-300 102 -460 102q-235 0 -365 -159.5t-130 -449.5q0 -287 139.5 -446.5t390.5 -159.5q103 0 222 36v472h205v-587 q-264 -75 -460 -75q-346 0 -530.5 196.5t-184.5 564.5z" />
<glyph unicode="&#x194;" horiz-adv-x="1319" d="M12 1450h213l448 -962l451 962h183l-542 -1167l12 -18q65 -101 112 -225.5t47 -195.5q0 -109 -80 -182t-199 -73q-114 0 -185.5 65.5t-71.5 168.5q0 150 151 402l16 28zM568 -169q0 -97 90 -97q97 0 97 104q0 76 -97 254q-9 -18 -13 -27q-77 -161 -77 -234z" />
<glyph unicode="&#x195;" horiz-adv-x="1825" d="M193 0v1547h193v-683q153 224 374 224q140 0 221.5 -88t81.5 -236v-398q0 -123 36.5 -175t120.5 -52q145 0 230 150t85 407q0 224 -60 368h210q31 -125 31 -289q0 -363 -151 -581t-403 -218q-127 0 -206 73q-50 46 -68 108.5t-18 193.5v351q0 118 -34.5 168.5 t-115.5 50.5q-177 0 -334 -232v-689h-193z" />
<glyph unicode="&#x196;" horiz-adv-x="803" d="M170 455v995h205v-980q0 -202 39.5 -269.5t156.5 -67.5q64 0 167 36v-162q-122 -43 -226 -43q-153 0 -239 87q-58 61 -80.5 147.5t-22.5 256.5z" />
<glyph unicode="&#x197;" horiz-adv-x="737" d="M24 695v152h243v603h205v-603h241v-152h-241v-695h-205v695h-243z" />
<glyph unicode="&#x198;" horiz-adv-x="1332" d="M187 1450h194v-710q193 345 407 537t406 192q103 0 188 -52v-177q-106 77 -199 77q-125 0 -286.5 -149.5t-305.5 -396.5l684 -771h-266l-628 734v-734h-194v1450z" />
<glyph unicode="&#x199;" horiz-adv-x="1173" d="M193 0v964q0 608 491 608q128 0 259 -41v-170q-132 66 -270 66q-155 0 -221 -114.5t-66 -384.5v-380l451 516h208l-431 -497l520 -567h-247l-501 546v-546h-193z" />
<glyph unicode="&#x19a;" horiz-adv-x="725" d="M24 713v145h243v689h193v-689h242v-145h-242v-713h-193v713h-243z" />
<glyph unicode="&#x19b;" horiz-adv-x="1192" d="M44 0l445 965l-57 135l-244 -107l-49 110l245 107l-23 42q-40 73 -87.5 99.5t-136.5 26.5h-28v169h36q177 0 260.5 -52t154.5 -207l244 107l49 -111l-244 -107l320 -733q95 -216 197 -387l33 -57h-217q-100 166 -182 351l-181 409l-349 -760h-186z" />
<glyph unicode="&#x19c;" horiz-adv-x="2134" d="M170 447v1003h205v-1009q0 -158 42 -224t143 -66q209 0 396 272v1027h205v-1009q0 -157 44.5 -223.5t150.5 -66.5q100 0 203.5 73t181.5 199v1027h206v-1450h-206v212q-176 -248 -433 -248q-264 0 -339 266q-191 -266 -457 -266q-177 0 -269 126q-73 100 -73 357z" />
<glyph unicode="&#x19d;" horiz-adv-x="1482" d="M-86 -239q62 -28 123 -28q83 0 117 49t34 165v1503h202l730 -1120v1120h177v-1450h-201l-731 1120v-1210q0 -152 -81 -236.5t-226 -84.5q-72 0 -144 20v152z" />
<glyph unicode="&#x19e;" horiz-adv-x="1245" d="M193 0v1064h193v-200q153 224 374 224q140 0 221.5 -88t81.5 -236v-1151h-193v1089q0 118 -34.5 168.5t-115.5 50.5q-177 0 -334 -232v-689h-193z" />
<glyph unicode="&#x19f;" horiz-adv-x="1560" d="M102 725q0 347 184.5 554.5t493.5 207.5t493.5 -207.5t184.5 -554.5t-184.5 -554t-493.5 -207t-493.5 207t-184.5 554zM321 671q18 -270 135 -411.5t324 -141.5t324.5 141.5t134.5 411.5h-918zM324 828h912q-22 241 -141 373t-315 132t-315 -132t-141 -373z" />
<glyph unicode="&#x1a0;" horiz-adv-x="1559" d="M102 725q0 348 184.5 555t494.5 207q121 0 232 -37h17q137 0 190.5 35.5t53.5 125.5q0 77 -29 142h159q21 -78 21 -144q0 -215 -192 -286q225 -205 225 -598q0 -347 -184.5 -554t-493.5 -207t-493.5 207t-184.5 554zM320 727q0 -287 122 -448t338 -161q217 0 338.5 161 t121.5 448q0 285 -121.5 445.5t-338.5 160.5q-216 0 -338 -160.5t-122 -445.5z" />
<glyph unicode="&#x1a1;" horiz-adv-x="1257" d="M109 532q0 256 136.5 406t369.5 150q87 0 173 -24h31q138 0 189.5 36t51.5 133q0 73 -26 136h146q20 -80 20 -155q0 -219 -208 -279q132 -165 132 -404q0 -256 -136.5 -405.5t-371.5 -149.5q-234 0 -370.5 149.5t-136.5 406.5zM315 532q0 -196 78.5 -303.5t222.5 -107.5 t223.5 107.5t79.5 303.5t-79.5 303.5t-223.5 107.5t-222.5 -107.5t-78.5 -303.5z" />
<glyph unicode="&#x1a2;" horiz-adv-x="2127" d="M103 728q0 346 185.5 552.5t496.5 206.5q261 0 437 -151l15 12q164 140 358 140q364 0 364 -428v-1447h-206v1405q0 168 -40.5 237t-139.5 69q-116 0 -252 -98q142 -209 142 -504q0 -345 -186 -551.5t-497 -206.5q-306 0 -491.5 209.5t-185.5 554.5zM320 726 q0 -290 122 -450.5t340 -160.5q219 0 341.5 160.5t122.5 447.5t-123 450t-340 163q-218 0 -340.5 -162t-122.5 -448z" />
<glyph unicode="&#x1a3;" horiz-adv-x="1790" d="M109 534q0 254 136 404.5t367 150.5q213 0 353 -129l15 14q124 115 278 115q351 0 351 -430v-1046h-194v984q0 211 -39 262q-50 66 -137 66q-89 0 -187 -82q73 -143 73 -312q0 -253 -137.5 -404t-369.5 -151q-237 0 -373 149t-136 409zM315 529q0 -192 79.5 -300 t221.5 -108q143 0 223 110t80 306q0 191 -80 299t-224 108q-145 0 -222.5 -108t-77.5 -307z" />
<glyph unicode="&#x1a4;" horiz-adv-x="1358" d="M24 1141q0 166 96 237.5t316 71.5h395q171 0 263.5 -27.5t151.5 -98.5q77 -93 77 -254q0 -231 -157 -362.5t-435 -131.5h-91v-576h-204v1299h-17q-137 0 -190 -34.5t-53 -124.5q0 -77 30 -142h-160q-22 77 -22 143zM640 732h83q183 0 283 84.5t100 238.5q0 130 -78.5 186 t-261.5 56h-126v-565z" />
<glyph unicode="&#x1a5;" horiz-adv-x="1263" d="M193 -387v1351q0 608 491 608q128 0 259 -41v-170q-132 66 -270 66q-155 0 -221 -114.5t-66 -384.5v-64q119 224 356 224q192 0 302 -140t110 -384q0 -264 -124.5 -426t-328.5 -162q-189 0 -315 145v-508h-193zM386 254q149 -133 284 -133q134 0 206.5 111t72.5 313 q0 374 -247 374q-162 0 -316 -175v-490z" />
<glyph unicode="&#x1a6;" horiz-adv-x="1274" d="M187 1644h206v-194h234q210 0 320 -91t110 -266q0 -138 -75.5 -245.5t-215.5 -165.5l484 -978h-231l-435 912h-191v-616h-206v1644zM393 767h65q188 0 285 78t97 228q0 226 -319 226h-128v-532z" />
<glyph unicode="&#x1a7;" horiz-adv-x="1080" d="M100 383q0 132 74.5 227.5t261.5 201.5l105 59q135 78 186 133.5t51 128.5q0 87 -70 143.5t-177 56.5q-112 0 -341 -90v188q186 56 354 56q188 0 309.5 -108.5t121.5 -276.5q0 -124 -75.5 -217.5t-261.5 -199.5l-100 -58q-130 -73 -179 -133t-49 -145q0 -104 75 -167.5 t196 -63.5q157 0 402 113v-204q-227 -63 -372 -63q-233 0 -372 114t-139 305z" />
<glyph unicode="&#x1a8;" horiz-adv-x="1022" d="M154 296q0 111 65.5 185t223.5 140l93 40q140 59 140 147q0 135 -188 135q-92 0 -254 -48v160l40 8q132 25 222 25q170 0 268 -80t98 -219q0 -195 -249 -299l-113 -48q-153 -65 -153 -164q0 -67 55 -112t139 -45q139 0 328 94v-178q-189 -61 -322 -61q-173 0 -283 90 t-110 230z" />
<glyph unicode="&#x1a9;" horiz-adv-x="1167" d="M48 0v181l562 546l-514 572v151h998v-151h-725l488 -542l-594 -576h861v-181h-1076z" />
<glyph unicode="&#x1aa;" horiz-adv-x="1058" d="M36 1242q0 141 99 236t246 95q375 0 375 -513v-963q0 -204 42.5 -284t150.5 -80q87 0 206 47v-158q-110 -34 -216 -34q-376 0 -376 509v877q-95 -67 -199 -67q-133 0 -230.5 99.5t-97.5 235.5zM181 1241q0 -81 57 -134.5t141 -53.5q105 0 184 77v28q0 269 -193 269 q-80 0 -134.5 -53.5t-54.5 -132.5z" />
<glyph unicode="&#x1ab;" horiz-adv-x="750" d="M68 919v145h133v193l193 19v-212h278v-145h-278v-590q0 -208 180 -208q38 0 93 12v-223q0 -151 -83 -236t-231 -85q-72 0 -145 20v152q61 -27 122 -27q79 0 111.5 48.5t32.5 164.5v30q-273 32 -273 317v625h-133z" />
<glyph unicode="&#x1ac;" horiz-adv-x="1348" d="M24 1141q0 166 96 237.5t315 71.5h897v-153h-515v-1297h-205v1297h-194q-136 0 -189.5 -35t-53.5 -125q0 -77 30 -142h-159q-22 79 -22 146z" />
<glyph unicode="&#x1ad;" horiz-adv-x="750" d="M68 919v145h133v186q0 152 83 237t231 85q72 0 146 -21v-151q-62 27 -124 27q-77 0 -110 -48.5t-33 -164.5v-150h278v-145h-278v-590q0 -208 180 -208q38 0 93 12v-133q-89 -24 -154 -24q-147 0 -229.5 84t-82.5 234v625h-133z" />
<glyph unicode="&#x1ae;" horiz-adv-x="1269" d="M18 1297v153h1234v-153h-514v-1324q0 -144 27.5 -188.5t114.5 -44.5q72 0 142 32v-157q-87 -27 -189 -27q-158 0 -229.5 94t-71.5 298v1317h-514z" />
<glyph unicode="&#x1af;" horiz-adv-x="1651" d="M175 537v913h206v-915q0 -218 81 -317.5t257 -99.5q173 0 245 93.5t72 316.5v922h192q141 0 194.5 35t53.5 126q0 77 -30 142h160q21 -78 21 -144q0 -163 -94 -236.5t-305 -73.5h-12v-768q0 -190 -37 -292t-134 -179q-122 -96 -335 -96q-275 0 -405 139t-130 434z" />
<glyph unicode="&#x1b0;" horiz-adv-x="1468" d="M181 300v764h193v-701q0 -120 35 -170.5t116 -50.5q177 0 333 232v690h194q138 0 189.5 36t51.5 133q0 73 -27 136h146q20 -80 20 -155q0 -295 -380 -295v-919h-194v200q-153 -224 -373 -224q-139 0 -221.5 87.5t-82.5 236.5z" />
<glyph unicode="&#x1b1;" horiz-adv-x="1571" d="M61 1299v151h599v-151q-334 -224 -334 -644q0 -255 121.5 -397.5t338.5 -142.5q215 0 337.5 142t122.5 389q0 429 -333 653v151h598v-151h-399q351 -264 351 -664q0 -294 -190 -482.5t-487 -188.5t-487 188.5t-190 483.5q0 400 351 663h-399z" />
<glyph unicode="&#x1b2;" horiz-adv-x="1432" d="M170 608v842h205v-879q0 -136 18 -208.5t65 -132.5q92 -115 246 -115q188 0 298 154.5t110 417.5q0 181 -53 397.5t-134 365.5h243q49 -115 84.5 -310.5t35.5 -355.5q0 -387 -160.5 -603.5t-446.5 -216.5q-220 0 -360 129q-88 81 -119.5 189t-31.5 326z" />
<glyph unicode="&#x1b3;" horiz-adv-x="1281" d="M-35 1223v191q96 55 207 55q110 0 185.5 -58.5t158.5 -208.5q96 -172 173 -396l401 644h192l-519 -843v-606l-205 -1v575q-47 157 -163 404q-85 181 -139 239t-137 58q-68 0 -154 -53z" />
<glyph unicode="&#x1b4;" horiz-adv-x="1348" d="M1 1064h210l301 -796l294 722l49 119q80 193 173.5 276.5t230.5 83.5q66 0 149 -23v-177q-84 35 -154 35q-82 0 -135.5 -62t-125.5 -243l-34 -84l-520 -1302h-203l174 387z" />
<glyph unicode="&#x1b5;" horiz-adv-x="1214" d="M93 0v165l353 513h-221v154h327l320 465h-731v153h978v-153l-319 -465h235v-154h-341l-354 -513h779v-165h-1026z" />
<glyph unicode="&#x1b6;" horiz-adv-x="1151" d="M121 0v145l298 351h-220v120h323l257 303h-628v145h866v-145l-257 -303h221v-120h-323l-299 -351h671v-145h-909z" />
<glyph unicode="&#x1b7;" horiz-adv-x="1118" d="M91 196q183 -81 358 -81q144 0 231.5 77.5t87.5 205.5q0 138 -117 224t-305 86q-50 0 -122 -13v148l489 426h-610v181h841v-181l-478 -412q222 0 371 -127.5t149 -317.5q0 -209 -146 -328.5t-400 -119.5q-174 0 -349 50v182z" />
<glyph unicode="&#x1b8;" horiz-adv-x="1118" d="M133 412q0 190 149 317.5t372 127.5l-479 412v181h841v-181h-610l489 -426v-148q-72 13 -123 13q-187 0 -304 -86.5t-117 -223.5q0 -129 88 -206t236 -77q171 0 353 81v-182q-174 -50 -351 -50q-253 0 -398.5 119.5t-145.5 328.5z" />
<glyph unicode="&#x1b9;" horiz-adv-x="1028" d="M97 24q0 188 137 307t377 139l-478 449v145h798v-158h-574l471 -436v-134h-15q-238 0 -374 -86t-136 -237q0 -129 84 -204t228 -75q137 0 335 68v-164q-200 -49 -343 -49q-228 0 -369 120t-141 315z" />
<glyph unicode="&#x1ba;" horiz-adv-x="1039" d="M115 -175q0 84 73 150t240 135l117 47q114 47 150.5 77.5t36.5 78.5q0 134 -284 134q-127 0 -229 -22v148l466 346h-563v145h810v-145l-444 -326q48 5 70 5q163 0 265.5 -81t102.5 -210q0 -111 -71.5 -180.5t-268.5 -150.5l-105 -43q-98 -40 -129 -63.5t-31 -57.5 q0 -78 157 -78q151 0 345 80v-159q-162 -66 -334 -66q-174 0 -274 63t-100 173z" />
<glyph unicode="&#x1bb;" horiz-adv-x="1269" d="M167 0v170q80 188 321 410h-297v145h457q184 182 184 356q0 121 -73 191t-201 70q-150 0 -355 -117v171q193 91 384 91q203 0 326.5 -110t123.5 -290q0 -207 -169 -362h162v-145h-320q-13 -10 -19 -15q-17 -12 -23 -19q-232 -197 -268 -376h630v-170h-863z" />
<glyph unicode="&#x1bc;" horiz-adv-x="1269" d="M244 -6v173q144 -58 274 -58q144 0 225.5 84t81.5 232q0 159 -115.5 243t-334.5 84q-51 0 -106 -7v705h734v-168h-565v-382q279 0 436 -128.5t157 -355.5q0 -212 -142.5 -332t-393.5 -120q-112 0 -251 30z" />
<glyph unicode="&#x1bd;" horiz-adv-x="952" d="M164 144q80 -23 181 -23q249 0 249 194q0 221 -327 221q-41 0 -85 -7v535h590v-169h-445v-215q222 0 347.5 -98.5t125.5 -272.5q0 -158 -115.5 -246.5t-318.5 -88.5q-89 0 -202 22v148z" />
<glyph unicode="&#x1be;" horiz-adv-x="919" d="M48 1040v145h199v362h193l1 -362h314v-145h-314l-1 -29q0 -95 22 -137.5t118 -134.5l45 -44q148 -142 190.5 -212.5t42.5 -172.5q0 -155 -109 -244.5t-297 -89.5q-169 0 -356 60v159q167 -74 328 -74q115 0 180.5 55t65.5 152q0 130 -164 282l-47 43q-124 115 -168 192 t-44 181v14h-199z" />
<glyph unicode="&#x1bf;" horiz-adv-x="1215" d="M193 1064h193v-195q190 219 413 219q139 0 232 -92t93 -233q0 -211 -191 -415t-547 -371v-364h-193v1451zM386 133l46 28q486 285 486 566q0 179 -180 179q-177 0 -352 -195v-578z" />
<glyph unicode="&#x1c0;" horiz-adv-x="568" d="M218 0v1547h133v-1547h-133z" />
<glyph unicode="&#x1c1;" horiz-adv-x="894" d="M218 0v1547h133v-1547h-133zM544 0v1547h133v-1547h-133z" />
<glyph unicode="&#x1c2;" horiz-adv-x="1293" d="M145 508v120h435v291h-435v121h435v507h133v-507h436v-121h-436v-291h436v-120h-436v-508h-133v508h-435z" />
<glyph unicode="&#x1c3;" horiz-adv-x="635" d="M220 0v193h194v-193h-194zM220 1160v290h194v-290l-24 -773h-145z" />
<glyph unicode="&#x1c4;" horiz-adv-x="2546" d="M187 0v1450h482q216 0 349 -48t230 -162q153 -183 153 -480q0 -337 -180 -545q-98 -115 -227 -165t-322 -50h-485zM393 154h264q282 0 399 152q127 161 127 434q0 256 -125 402q-75 89 -180 122t-315 33h-170v-1143zM1425 0v165l779 1132h-731v153h978v-153l-779 -1132 h779v-165h-1026zM1619 1887h145l199 -198l197 198h145l-236 -315h-213z" />
<glyph unicode="&#x1c5;" horiz-adv-x="2580" d="M187 0v1450h482q216 0 349 -48t230 -162q153 -183 153 -480q0 -337 -180 -545q-98 -115 -227 -165t-322 -50h-485zM393 154h264q282 0 399 152q127 161 127 434q0 256 -125 402q-75 89 -180 122t-315 33h-170v-1143zM1551 0v145l658 774h-628v145h866v-145l-658 -774h671 v-145h-909zM1687 1572h145l199 -198l197 198h145l-236 -315h-213z" />
<glyph unicode="&#x1c6;" horiz-adv-x="2293" d="M109 499q0 265 125 427t329 162q189 0 313 -145v604h194v-1547h-194v200q-117 -224 -355 -224q-192 0 -302 140t-110 383zM315 518q0 -373 247 -373q160 0 314 175v490q-150 133 -284 133q-132 0 -204.5 -111t-72.5 -314zM1264 0v145l658 774h-628v145h866v-145 l-658 -774h671v-145h-909zM1413 1572h145l199 -198l197 198h145l-236 -315h-213z" />
<glyph unicode="&#x1c7;" horiz-adv-x="1672" d="M187 0v1450h206v-1296h653v-154h-859zM869 -87q117 -38 209 -38q116 0 162.5 67.5t46.5 233.5v1274h206v-1267q0 -473 -448 -473q-69 0 -176 20v183z" />
<glyph unicode="&#x1c8;" horiz-adv-x="1637" d="M187 0v1450h206v-1296h653v-154h-859zM877 -209q135 -57 206 -57q80 0 124 44q30 29 37 66t7 156v1064h194v-1064q0 -411 -346 -411q-103 0 -222 49v153zM1251 1257v193h194v-193h-194z" />
<glyph unicode="&#x1c9;" horiz-adv-x="1064" d="M193 0v1547h193v-1547h-193zM303 -209q135 -57 206 -57q80 0 124 44q30 29 37 66t7 156v1064h194v-1064q0 -411 -346 -411q-103 0 -222 49v153zM677 1257v193h194v-193h-194z" />
<glyph unicode="&#x1ca;" horiz-adv-x="2023" d="M187 0v1450h202l730 -1120v1120h177v-1450h-201l-731 1120v-1120h-177zM1219 -87q117 -38 209 -38q116 0 162.5 67.5t46.5 233.5v1274h206v-1267q0 -473 -448 -473q-69 0 -176 20v183z" />
<glyph unicode="&#x1cb;" horiz-adv-x="1984" d="M187 0v1450h202l730 -1120v1120h177v-1450h-201l-731 1120v-1120h-177zM1224 -209q135 -57 206 -57q80 0 124 44q30 29 37 66t7 156v1064h194v-1064q0 -411 -346 -411q-103 0 -222 49v153zM1598 1257v193h194v-193h-194z" />
<glyph unicode="&#x1cc;" horiz-adv-x="1741" d="M193 0v1064h193v-200q153 224 374 224q140 0 221.5 -88t81.5 -236v-764h-193v702q0 118 -34.5 168.5t-115.5 50.5q-177 0 -334 -232v-689h-193zM980 -209q135 -57 206 -57q80 0 124 44q30 29 37 66t7 156v1064h194v-1064q0 -411 -346 -411q-103 0 -222 49v153zM1354 1257 v193h194v-193h-194z" />
<glyph unicode="&#x1cd;" horiz-adv-x="1384" d="M17 0l575 1450h204l566 -1450h-222l-158 402h-614l-160 -402h-191zM350 1887h145l199 -198l197 198h145l-236 -315h-213zM427 555h495l-247 625z" />
<glyph unicode="&#x1ce;" horiz-adv-x="1108" d="M101 268q0 174 146.5 267.5t420.5 93.5h45v129q0 185 -193 185q-150 0 -327 -94v159q195 80 368 80q177 0 261 -81t84 -249v-483q0 -165 102 -165q13 0 38 4l13 -107q-65 -31 -145 -31q-135 0 -172 159q-174 -159 -334 -159q-133 0 -220 82.5t-87 209.5zM220 1572h145 l199 -198l197 198h145l-236 -315h-213zM294 299q0 -70 49 -118t120 -48q120 0 250 107v275l-61 2q-161 0 -259.5 -59.5t-98.5 -158.5z" />
<glyph unicode="&#x1cf;" horiz-adv-x="578" d="M-54 1887h145l199 -198l197 198h145l-236 -315h-213zM186 0v1450h206v-1450h-206z" />
<glyph unicode="&#x1d0;" horiz-adv-x="580" d="M-53 1572h145l199 -198l197 198h145l-236 -315h-213zM193 0v1064h193v-1064h-193z" />
<glyph unicode="&#x1d1;" horiz-adv-x="1559" d="M102 725q0 347 184.5 554.5t493.5 207.5t493.5 -207.5t184.5 -554.5t-184.5 -554t-493.5 -207t-493.5 207t-184.5 554zM320 727q0 -287 122 -448t338 -161q217 0 338.5 161t121.5 448q0 285 -121.5 445.5t-338.5 160.5q-216 0 -338 -160.5t-122 -445.5zM437 1887h145 l199 -198l197 198h145l-236 -315h-213z" />
<glyph unicode="&#x1d2;" horiz-adv-x="1232" d="M109 532q0 257 136.5 406.5t370.5 149.5q235 0 371.5 -149.5t136.5 -406.5t-136.5 -406.5t-371.5 -149.5q-234 0 -370.5 149.5t-136.5 406.5zM273 1572h145l199 -198l197 198h145l-236 -315h-213zM315 532q0 -196 78.5 -303.5t222.5 -107.5t223.5 107.5t79.5 303.5 t-79.5 303.5t-223.5 107.5t-222.5 -107.5t-78.5 -303.5z" />
<glyph unicode="&#x1d3;" horiz-adv-x="1390" d="M175 537v913h206v-915q0 -218 81 -317.5t257 -99.5q173 0 245 93.5t72 316.5v922h180v-919q0 -190 -37 -292t-134 -179q-122 -96 -335 -96q-275 0 -405 139t-130 434zM365 1887h145l199 -198l197 198h145l-236 -315h-213z" />
<glyph unicode="&#x1d4;" horiz-adv-x="1245" d="M181 300v764h193v-701q0 -120 35 -170.5t116 -50.5q177 0 333 232v690h194v-1064h-194v200q-153 -224 -373 -224q-139 0 -221.5 87.5t-82.5 236.5zM273 1572h145l199 -198l197 198h145l-236 -315h-213z" />
<glyph unicode="&#x1d5;" horiz-adv-x="1390" d="M175 537v913h206v-915q0 -218 81 -317.5t257 -99.5q173 0 245 93.5t72 316.5v922h180v-919q0 -190 -37 -292t-134 -179q-122 -96 -335 -96q-275 0 -405 139t-130 434zM394 1886v145h629v-145h-629zM430 1572v170h170v-170h-170zM817 1572v170h170v-170h-170z" />
<glyph unicode="&#x1d6;" horiz-adv-x="1245" d="M181 300v764h193v-701q0 -120 35 -170.5t116 -50.5q177 0 333 232v690h194v-1064h-194v200q-153 -224 -373 -224q-139 0 -221.5 87.5t-82.5 236.5zM302 1572v145h629v-145h-629zM338 1257v170h170v-170h-170zM725 1257v170h170v-170h-170z" />
<glyph unicode="&#x1d7;" horiz-adv-x="1390" d="M175 537v913h206v-915q0 -218 81 -317.5t257 -99.5q173 0 245 93.5t72 316.5v922h180v-919q0 -190 -37 -292t-134 -179q-122 -96 -335 -96q-275 0 -405 139t-130 434zM430 1572v170h170v-170h-170zM563 1886l236 315h224l-315 -315h-145zM817 1572v170h170v-170h-170z " />
<glyph unicode="&#x1d8;" horiz-adv-x="1245" d="M181 300v764h193v-701q0 -120 35 -170.5t116 -50.5q177 0 333 232v690h194v-1064h-194v200q-153 -224 -373 -224q-139 0 -221.5 87.5t-82.5 236.5zM338 1257v170h170v-170h-170zM471 1572l236 315h224l-315 -315h-145zM725 1257v170h170v-170h-170z" />
<glyph unicode="&#x1d9;" horiz-adv-x="1390" d="M175 537v913h206v-915q0 -218 81 -317.5t257 -99.5q173 0 245 93.5t72 316.5v922h180v-919q0 -190 -37 -292t-134 -179q-122 -96 -335 -96q-275 0 -405 139t-130 434zM365 2201h145l199 -198l197 198h145l-236 -315h-213zM430 1572v170h170v-170h-170zM817 1572v170h170 v-170h-170z" />
<glyph unicode="&#x1da;" horiz-adv-x="1245" d="M181 300v764h193v-701q0 -120 35 -170.5t116 -50.5q177 0 333 232v690h194v-1064h-194v200q-153 -224 -373 -224q-139 0 -221.5 87.5t-82.5 236.5zM273 1887h145l199 -198l197 198h145l-236 -315h-213zM338 1257v170h170v-170h-170zM725 1257v170h170v-170h-170z" />
<glyph unicode="&#x1db;" horiz-adv-x="1390" d="M175 537v913h206v-915q0 -218 81 -317.5t257 -99.5q173 0 245 93.5t72 316.5v922h180v-919q0 -190 -37 -292t-134 -179q-122 -96 -335 -96q-275 0 -405 139t-130 434zM394 2201h224l236 -315h-145zM430 1572v170h170v-170h-170zM817 1572v170h170v-170h-170z" />
<glyph unicode="&#x1dc;" horiz-adv-x="1245" d="M181 300v764h193v-701q0 -120 35 -170.5t116 -50.5q177 0 333 232v690h194v-1064h-194v200q-153 -224 -373 -224q-139 0 -221.5 87.5t-82.5 236.5zM302 1887h224l236 -315h-145zM338 1257v170h170v-170h-170zM725 1257v170h170v-170h-170z" />
<glyph unicode="&#x1dd;" horiz-adv-x="1118" d="M142 503l1 60h671q-41 379 -371 379q-121 0 -295 -65v152q193 59 331 59q236 0 384 -156t148 -405q0 -242 -130 -396.5t-335 -154.5q-193 0 -298.5 137t-105.5 390zM336 417q0 -296 223 -296q221 0 247 296h-470z" />
<glyph unicode="&#x1de;" horiz-adv-x="1384" d="M17 0l575 1450h204l566 -1450h-222l-158 402h-614l-160 -402h-191zM375 1886v145h629v-145h-629zM412 1572v170h170v-170h-170zM427 555h495l-247 625zM799 1572v170h170v-170h-170z" />
<glyph unicode="&#x1df;" horiz-adv-x="1108" d="M101 268q0 174 146.5 267.5t420.5 93.5h45v129q0 185 -193 185q-150 0 -327 -94v159q195 80 368 80q177 0 261 -81t84 -249v-483q0 -165 102 -165q13 0 38 4l13 -107q-65 -31 -145 -31q-135 0 -172 159q-174 -159 -334 -159q-133 0 -220 82.5t-87 209.5zM242 1572v145 h629v-145h-629zM278 1257v170h170v-170h-170zM294 299q0 -70 49 -118t120 -48q120 0 250 107v275l-61 2q-161 0 -259.5 -59.5t-98.5 -158.5zM665 1257v170h170v-170h-170z" />
<glyph unicode="&#x1e0;" horiz-adv-x="1384" d="M17 0l575 1450h204l566 -1450h-222l-158 402h-614l-160 -402h-191zM375 1886v145h629v-145h-629zM427 555h495l-247 625zM593 1572v193h193v-193h-193z" />
<glyph unicode="&#x1e1;" horiz-adv-x="1108" d="M101 268q0 174 146.5 267.5t420.5 93.5h45v129q0 185 -193 185q-150 0 -327 -94v159q195 80 368 80q177 0 261 -81t84 -249v-483q0 -165 102 -165q13 0 38 4l13 -107q-65 -31 -145 -31q-135 0 -172 159q-174 -159 -334 -159q-133 0 -220 82.5t-87 209.5zM242 1572v145 h629v-145h-629zM294 299q0 -70 49 -118t120 -48q120 0 250 107v275l-61 2q-161 0 -259.5 -59.5t-98.5 -158.5zM518 1233v193h193v-193h-193z" />
<glyph unicode="&#x1e2;" horiz-adv-x="1819" d="M18 0l843 1450h866v-153h-606v-466h508v-152h-508v-525h651v-154h-857v406h-473l-236 -406h-188zM529 558h386v657zM915 1572v145h629v-145h-629z" />
<glyph unicode="&#x1e3;" horiz-adv-x="1708" d="M101 268q0 174 146.5 267.5t420.5 93.5h45v129q0 185 -193 185q-150 0 -327 -94v159q195 80 369 80q188 0 297 -119q121 119 297 119q410 0 410 -586h-659q28 -381 358 -381q137 0 301 69v-154q-189 -60 -352 -60q-279 0 -421 213q-186 -213 -385 -213q-133 0 -220 82.5 t-87 209.5zM294 299q0 -70 49 -118t120 -48q120 0 250 107v275l-61 2q-161 0 -259.5 -59.5t-98.5 -158.5zM531 1257v145h629v-145h-629zM913 635h447q0 309 -209 309q-213 0 -238 -309z" />
<glyph unicode="&#x1e4;" horiz-adv-x="1616" d="M102 725q0 363 187.5 562.5t527.5 199.5q219 0 458 -66v-190q-300 102 -460 102q-235 0 -365 -159.5t-130 -449.5q0 -287 139.5 -446.5t390.5 -159.5q103 0 222 36v193h-242v154h242v218h205v-218h242v-154h-242v-308q-264 -75 -460 -75q-346 0 -530.5 196.5 t-184.5 564.5z" />
<glyph unicode="&#x1e5;" horiz-adv-x="1408" d="M109 539q0 243 128.5 396t331.5 153q179 0 307 -145v121h194v-408h242v-121h-242v-245q0 -250 -26 -370t-97 -196q-127 -135 -395 -135q-184 0 -355 57l23 168q167 -80 331 -80q325 0 325 346v168q-50 -106 -142.5 -165t-206.5 -59q-193 0 -305.5 139t-112.5 376z M315 540q0 -347 246 -347q167 0 315 175v167h-265v121h265v154q-127 133 -277 133q-133 0 -208.5 -107t-75.5 -296z" />
<glyph unicode="&#x1e6;" horiz-adv-x="1450" d="M102 725q0 363 187.5 562.5t527.5 199.5q219 0 458 -66v-190q-300 102 -460 102q-235 0 -365 -159.5t-130 -449.5q0 -287 139.5 -446.5t390.5 -159.5q103 0 222 36v472h205v-587q-264 -75 -460 -75q-346 0 -530.5 196.5t-184.5 564.5zM469 1887h145l199 -198l197 198h145 l-236 -315h-213z" />
<glyph unicode="&#x1e7;" horiz-adv-x="1251" d="M109 539q0 243 128.5 396t331.5 153q179 0 307 -145v121h194v-774q0 -250 -26 -370t-97 -196q-127 -135 -395 -135q-184 0 -355 57l23 168q167 -80 331 -80q325 0 325 346v168q-50 -106 -142.5 -165t-206.5 -59q-193 0 -305.5 139t-112.5 376zM248 1572h145l199 -198 l197 198h145l-236 -315h-213zM315 540q0 -347 246 -347q167 0 315 175v442q-127 133 -277 133q-133 0 -208.5 -107t-75.5 -296z" />
<glyph unicode="&#x1e8;" horiz-adv-x="1310" d="M187 0v1450h193v-713l587 713h207l-568 -691l669 -759h-261l-634 735v-735h-193zM291 1887h145l199 -198l197 198h145l-236 -315h-213z" />
<glyph unicode="&#x1e9;" horiz-adv-x="1173" d="M193 0v1547h193v-999l451 516h208l-431 -497l520 -567h-247l-501 546v-546h-193zM358 1887h145l199 -198l197 198h145l-236 -315h-213z" />
<glyph unicode="&#x1ea;" horiz-adv-x="1559" d="M102 725q0 347 184.5 554.5t493.5 207.5t493.5 -207.5t184.5 -554.5t-184.5 -554t-493.5 -207t-493.5 207t-184.5 554zM320 727q0 -287 122 -448t338 -161q217 0 338.5 161t121.5 448q0 285 -121.5 445.5t-338.5 160.5q-216 0 -338 -160.5t-122 -445.5zM683 -207 q0 123 155 207h105q-126 -75 -126 -174q0 -96 111 -96q56 0 90 15v-79q-59 -29 -135 -29q-90 0 -145 43.5t-55 112.5z" />
<glyph unicode="&#x1eb;" horiz-adv-x="1232" d="M109 532q0 257 136.5 406.5t370.5 149.5q235 0 371.5 -149.5t136.5 -406.5t-136.5 -406.5t-371.5 -149.5q-234 0 -370.5 149.5t-136.5 406.5zM315 532q0 -196 78.5 -303.5t222.5 -107.5t223.5 107.5t79.5 303.5t-79.5 303.5t-223.5 107.5t-222.5 -107.5t-78.5 -303.5z M503 -207q0 123 155 207h105q-126 -75 -126 -174q0 -96 111 -96q56 0 90 15v-79q-59 -29 -135 -29q-90 0 -145 43.5t-55 112.5z" />
<glyph unicode="&#x1ec;" horiz-adv-x="1559" d="M102 725q0 347 184.5 554.5t493.5 207.5t493.5 -207.5t184.5 -554.5t-184.5 -554t-493.5 -207t-493.5 207t-184.5 554zM320 727q0 -287 122 -448t338 -161q217 0 338.5 161t121.5 448q0 285 -121.5 445.5t-338.5 160.5q-216 0 -338 -160.5t-122 -445.5zM466 1572v145h629 v-145h-629zM683 -207q0 123 155 207h105q-126 -75 -126 -174q0 -96 111 -96q56 0 90 15v-79q-59 -29 -135 -29q-90 0 -145 43.5t-55 112.5z" />
<glyph unicode="&#x1ed;" horiz-adv-x="1232" d="M109 532q0 257 136.5 406.5t370.5 149.5q235 0 371.5 -149.5t136.5 -406.5t-136.5 -406.5t-371.5 -149.5q-234 0 -370.5 149.5t-136.5 406.5zM302 1257v145h629v-145h-629zM315 532q0 -196 78.5 -303.5t222.5 -107.5t223.5 107.5t79.5 303.5t-79.5 303.5t-223.5 107.5 t-222.5 -107.5t-78.5 -303.5zM503 -207q0 123 155 207h105q-126 -75 -126 -174q0 -96 111 -96q56 0 90 15v-79q-59 -29 -135 -29q-90 0 -145 43.5t-55 112.5z" />
<glyph unicode="&#x1ee;" horiz-adv-x="1118" d="M91 14v182q183 -81 358 -81q144 0 231.5 77.5t87.5 205.5q0 138 -117 224t-305 86q-50 0 -122 -13v148l489 426h-610v181h841v-181l-478 -412q222 0 371 -127.5t149 -317.5q0 -209 -146 -328.5t-400 -119.5q-174 0 -349 50zM180 1887h145l199 -198l197 198h145l-236 -315 h-213z" />
<glyph unicode="&#x1ef;" horiz-adv-x="1028" d="M78 -198q197 -68 338 -68q142 0 225.5 75.5t83.5 201.5q0 152 -135.5 238.5t-372.5 86.5h-18v134l472 436h-574v158h798v-145l-478 -449q240 -20 377 -139t137 -307q0 -196 -141.5 -315.5t-372.5 -119.5q-139 0 -339 49v164zM152 1572h145l199 -198l197 198h145 l-236 -315h-213z" />
<glyph unicode="&#x1f0;" horiz-adv-x="610" d="M-150 -362v153q135 -57 206 -57q80 0 124 44q30 29 37 66t7 156v1064h194v-1064q0 -411 -346 -411q-103 0 -222 49zM-22 1572h145l198 -198l198 198h145l-236 -315h-213z" />
<glyph unicode="&#x1fa;" horiz-adv-x="1384" d="M17 0l575 1450h204l566 -1450h-222l-158 402h-614l-160 -402h-191zM427 555h495l-247 625zM471 1675q0 92 64.5 157t157.5 65t158 -64.5t65 -157.5t-64.5 -158t-158.5 -65q-93 0 -157.5 65t-64.5 158zM549 1982l236 315h224l-315 -315h-145zM555 1675q0 -57 40.5 -97.5 t97.5 -40.5q58 0 98.5 40t40.5 98t-41 98t-98 40t-97.5 -40t-40.5 -98z" />
<glyph unicode="&#x1fb;" horiz-adv-x="1108" d="M101 268q0 174 146.5 267.5t420.5 93.5h45v129q0 185 -193 185q-150 0 -327 -94v159q195 80 368 80q177 0 261 -81t84 -249v-483q0 -165 102 -165q13 0 38 4l13 -107q-65 -31 -145 -31q-135 0 -172 159q-174 -159 -334 -159q-133 0 -220 82.5t-87 209.5zM294 299 q0 -70 49 -118t120 -48q120 0 250 107v275l-61 2q-161 0 -259.5 -59.5t-98.5 -158.5zM333 1407q0 92 64.5 157t157.5 65t158 -64.5t65 -157.5t-64.5 -158t-158.5 -65q-93 0 -157.5 65t-64.5 158zM411 1726l236 315h224l-315 -315h-145zM417 1407q0 -57 40.5 -97.5 t97.5 -40.5q58 0 98.5 40t40.5 98t-41 98t-98 40t-97.5 -40t-40.5 -98z" />
<glyph unicode="&#x1fc;" horiz-adv-x="1819" d="M18 0l843 1450h866v-153h-606v-466h508v-152h-508v-525h651v-154h-857v406h-473l-236 -406h-188zM529 558h386v657zM976 1572l236 315h224l-315 -315h-145z" />
<glyph unicode="&#x1fd;" horiz-adv-x="1708" d="M101 268q0 174 146.5 267.5t420.5 93.5h45v129q0 185 -193 185q-150 0 -327 -94v159q195 80 369 80q188 0 297 -119q121 119 297 119q410 0 410 -586h-659q28 -381 358 -381q137 0 301 69v-154q-189 -60 -352 -60q-279 0 -421 213q-186 -213 -385 -213q-133 0 -220 82.5 t-87 209.5zM294 299q0 -70 49 -118t120 -48q120 0 250 107v275l-61 2q-161 0 -259.5 -59.5t-98.5 -158.5zM713 1257l236 315h224l-315 -315h-145zM913 635h447q0 309 -209 309q-213 0 -238 -309z" />
<glyph unicode="&#x1fe;" horiz-adv-x="1559" d="M102 726q0 347 184.5 554t492.5 207q232 0 405 -124l95 124h168l-165 -216q176 -212 176 -548q0 -344 -184.5 -551.5t-490.5 -207.5q-240 0 -407 123l-94 -123h-169l165 216q-176 213 -176 546zM320 727q0 -228 82 -385l673 880q-117 111 -296 111q-215 0 -337 -160.5 t-122 -445.5zM485 229q117 -111 297 -111q215 0 336.5 160.5t121.5 445.5q0 231 -82 385zM635 1572l236 315h224l-315 -315h-145z" />
<glyph unicode="&#x1ff;" horiz-adv-x="1232" d="M109 -24l124 165q-124 143 -124 388q0 259 136 409t371 150q175 0 298 -84l67 84h143l-126 -162l2 -4q124 -156 124 -389q0 -257 -136 -407t-371 -150q-170 0 -298 83l-65 -83h-145zM315 536q0 -142 42 -244l453 578q-79 73 -192 73q-144 0 -223.5 -107.5t-79.5 -299.5z M423 192q76 -71 191 -71q145 0 225 107t80 299q0 134 -42 244zM471 1257l236 315h224l-315 -315h-145z" />
<glyph unicode="&#x218;" horiz-adv-x="1080" d="M98 27v204q245 -113 404 -113q120 0 194 64t74 167q0 85 -48.5 145t-178.5 133l-100 58q-185 106 -261 199.5t-76 217.5q0 168 121.5 276.5t309.5 108.5q168 0 354 -56v-188q-229 90 -342 90q-107 0 -176.5 -57t-69.5 -143q0 -73 51 -128.5t186 -133.5l104 -59 q188 -106 262.5 -201.5t74.5 -228.5q0 -189 -139 -303.5t-370 -114.5q-147 0 -374 63zM444 -97h193v-169q0 -257 -193 -276v58q74 20 74 177v16h-74v194z" />
<glyph unicode="&#x219;" horiz-adv-x="1023" d="M154 37v178q189 -94 329 -94q83 0 138 45t55 112q0 99 -154 164l-112 48q-250 104 -250 299q0 139 98.5 219t269.5 80q89 0 221 -25l40 -8v-160q-162 48 -258 48q-84 0 -134.5 -37t-50.5 -98q0 -88 141 -147l93 -40q158 -66 223.5 -140t65.5 -185q0 -140 -110.5 -230 t-283.5 -90q-132 0 -321 61zM416 -97h193v-169q0 -257 -193 -276v58q74 20 74 177v16h-74v194z" />
<glyph unicode="&#x21a;" horiz-adv-x="1269" d="M18 1297v153h1234v-153h-514v-1297h-206v1297h-514zM539 -97h193v-169q0 -257 -193 -276v58q74 20 74 177v16h-74v194z" />
<glyph unicode="&#x21b;" horiz-adv-x="750" d="M68 919v145h133v193l193 19v-212h278v-145h-278v-590q0 -208 180 -208q38 0 93 12v-133q-89 -24 -154 -24q-147 0 -229.5 84t-82.5 234v625h-133zM323 -97h193v-169q0 -257 -193 -276v58q74 20 74 177v16h-74v194z" />
<glyph unicode="&#x250;" horiz-adv-x="1108" d="M48 1057q67 31 145 31q135 0 173 -159q174 159 335 159q132 0 218.5 -83t86.5 -208q0 -176 -146.5 -269.5t-419.5 -93.5l-46 1v-129q0 -185 193 -185q150 0 327 95v-160q-194 -80 -367 -80q-177 0 -261.5 80.5t-84.5 250.5v482q0 165 -102 165q-13 0 -37 -3zM394 548 l63 -1q159 0 257.5 59.5t98.5 157.5q0 71 -48.5 119t-119.5 48q-120 0 -251 -108v-275z" />
<glyph unicode="&#x251;" horiz-adv-x="1221" d="M109 390q0 309 207 536q148 162 355 162q87 0 163 -24h194v-1064h-194v316q-70 -151 -187.5 -245.5t-235.5 -94.5q-133 0 -217.5 116t-84.5 298zM315 429q0 -272 170 -272q80 0 174 97.5t175 264.5v410q-64 32 -141 32q-155 0 -266.5 -156.5t-111.5 -375.5z" />
<glyph unicode="&#x252;" horiz-adv-x="1221" d="M193 0v1064h193v-315q71 151 188.5 245.5t235.5 94.5q133 0 217.5 -116t84.5 -299q0 -308 -206 -536q-148 -162 -356 -162q-86 0 -164 24h-193zM386 135q65 -32 142 -32q155 0 266.5 156.5t111.5 374.5q0 272 -170 272q-80 0 -174.5 -97t-175.5 -264v-410z" />
<glyph unicode="&#x253;" horiz-adv-x="1263" d="M193 -12v976q0 608 491 608q128 0 259 -41v-170q-132 66 -270 66q-155 0 -221 -114.5t-66 -384.5v-64q119 224 356 224q192 0 302 -140t110 -384q0 -264 -124.5 -426t-328.5 -162q-189 0 -315 145l-23 -133h-170zM386 254q149 -133 285 -133q133 0 205.5 111t72.5 313 q0 374 -248 374q-161 0 -315 -175v-490z" />
<glyph unicode="&#x254;" horiz-adv-x="1028" d="M96 865v167q187 56 323 56q216 0 358 -160t142 -402q0 -260 -140.5 -405t-393.5 -145q-124 0 -278 35v161q164 -49 267 -49q148 0 237.5 111.5t89.5 296.5q0 180 -92 291t-241 111q-132 0 -272 -68z" />
<glyph unicode="&#x255;" horiz-adv-x="1118" d="M109 550q0 254 148 396t410 142q138 0 252 -32v-161q-133 48 -268 48q-158 0 -247 -103.5t-89 -285.5q0 -171 83 -281q78 104 188.5 166.5t216.5 62.5q109 0 181.5 -65.5t72.5 -163.5q0 -126 -109 -211.5t-272 -85.5q-141 0 -260 62q-53 -115 -53 -231h-147q0 172 78 312 q-185 158 -185 431zM506 178q90 -57 185 -57q87 0 154.5 46t67.5 106q0 84 -111 84q-144 0 -296 -179z" />
<glyph unicode="&#x256;" horiz-adv-x="1263" d="M109 499q0 265 125 427t329 162q189 0 313 -145v604h194v-1601q0 -116 33 -164.5t111 -48.5q61 0 122 27v-151q-73 -21 -144 -21q-149 0 -232.5 85.5t-83.5 236.5v290q-117 -224 -355 -224q-192 0 -302 140t-110 383zM315 518q0 -373 247 -373q160 0 314 175v490 q-150 133 -284 133q-132 0 -204.5 -111t-72.5 -314z" />
<glyph unicode="&#x257;" horiz-adv-x="1263" d="M109 499q0 265 125 427t329 162q189 0 313 -145v307q0 152 83.5 237t232.5 85q71 0 144 -21v-151q-61 27 -123 27q-77 0 -110 -48.5t-33 -164.5v-1214h-194v200q-117 -224 -355 -224q-192 0 -302 140t-110 383zM315 518q0 -373 247 -373q160 0 314 175v490 q-150 133 -284 133q-132 0 -204.5 -111t-72.5 -314z" />
<glyph unicode="&#x258;" horiz-adv-x="1118" d="M142 502v60q0 252 105 389.5t299 137.5q204 0 334 -155t130 -397q0 -249 -148 -405t-384 -156q-138 0 -331 58v153q174 -65 296 -65q329 0 370 380h-671zM335 647h470q-26 297 -247 297q-223 0 -223 -297z" />
<glyph unicode="&#x259;" horiz-adv-x="1118" d="M142 503l1 60h671q-41 379 -371 379q-121 0 -295 -65v152q193 59 331 59q236 0 384 -156t148 -405q0 -242 -130 -396.5t-335 -154.5q-193 0 -298.5 137t-105.5 390zM336 417q0 -296 223 -296q221 0 247 296h-470z" />
<glyph unicode="&#x25a;" horiz-adv-x="1583" d="M139 877v153q209 58 327 58q194 0 316.5 -90t192.5 -282l385 103v-215q0 -123 23.5 -167t88.5 -44q43 0 100 32v-151q-88 -26 -134 -26q-223 0 -223 309v73l-212 -59l1 -49q0 -239 -129 -392.5t-330 -153.5q-189 0 -297.5 137t-108.5 375l653 176q-77 280 -357 280 q-118 0 -296 -67zM329 388l5 -44q26 -223 218 -223q255 0 255 396z" />
<glyph unicode="&#x25b;" horiz-adv-x="955" d="M109 300q0 97 71.5 178.5t186.5 113.5q-197 101 -197 245q0 119 99.5 185t279.5 66q172 0 261 -34v-146l-10 2q-123 34 -244 34q-93 0 -149 -34.5t-56 -91.5q0 -85 90.5 -131t257.5 -46h26v-145h-137q-124 0 -205 -53.5t-81 -136.5q0 -86 70 -135.5t190 -49.5 q122 0 257 62l15 6v-156q-156 -57 -300 -57q-181 0 -303 93t-122 231z" />
<glyph unicode="&#x25c;" horiz-adv-x="955" d="M121 33v156l14 -6q135 -62 259 -62q119 0 189 49.5t70 133.5t-80 138t-206 54h-138v145h27q349 0 349 177q0 125 -210 125q-118 0 -240 -33l-10 -2v146q88 34 261 34q179 0 279.5 -66t100.5 -185q0 -144 -198 -245q115 -32 186.5 -113.5t71.5 -178.5q0 -138 -121.5 -231 t-304.5 -93q-143 0 -299 57z" />
<glyph unicode="&#x25d;" horiz-adv-x="1338" d="M121 33v156l14 -6q135 -62 259 -62q119 0 189 49.5t70 133.5t-80 138t-206 54h-138v145h27q349 0 349 177q0 125 -210 125q-118 0 -240 -33l-10 -2v146q88 34 262 34q220 0 322 -103l385 103v-216q0 -122 23.5 -166t88.5 -44q43 0 100 32v-151q-87 -27 -134 -27 q-223 0 -223 309v75l-184 -52l1 -15q0 -140 -198 -241q115 -32 186.5 -113.5t71.5 -178.5q0 -138 -121.5 -231t-304.5 -93q-143 0 -299 57z" />
<glyph unicode="&#x25e;" horiz-adv-x="1160" d="M109 514q0 268 140.5 421t388.5 153q191 0 302.5 -72.5t111.5 -197.5q0 -78 -52 -146.5t-138 -102.5q202 -84 202 -256q0 -151 -123.5 -244t-323.5 -93q-240 0 -374 142t-134 396zM260 516q0 -190 92.5 -292.5t261.5 -102.5q114 0 185 54.5t71 142.5q0 165 -283 165h-104 v146h100q141 0 217.5 42t76.5 121q0 66 -71 108.5t-183 42.5q-169 0 -266 -114.5t-97 -312.5z" />
<glyph unicode="&#x25f;" horiz-adv-x="791" d="M-72 -209q136 -57 206 -57q81 0 125 44q29 29 36.5 66t7.5 156v532h-241v145h241v387h194v-387h242v-145h-242v-532q0 -411 -347 -411q-103 0 -222 49v153z" />
<glyph unicode="&#x260;" horiz-adv-x="1251" d="M109 539q0 243 128.5 396t331.5 153q179 0 307 -145v293q0 336 328 336q68 0 138 -21v-145q-52 21 -109 21q-102 0 -132.5 -40.5t-30.5 -177.5v-919q0 -250 -26 -370t-97 -196q-127 -135 -395 -135q-184 0 -355 57l23 168q167 -80 331 -80q325 0 325 346v168 q-50 -106 -142.5 -165t-206.5 -59q-193 0 -305.5 139t-112.5 376zM315 540q0 -347 246 -347q167 0 315 175v442q-127 133 -277 133q-133 0 -208.5 -107t-75.5 -296z" />
<glyph unicode="&#x261;" horiz-adv-x="1251" d="M109 539q0 243 128.5 396t331.5 153q179 0 307 -145v121h194v-774q0 -250 -26 -370t-97 -196q-127 -135 -395 -135q-184 0 -355 57l23 168q167 -80 331 -80q325 0 325 346v168q-50 -106 -142.5 -165t-206.5 -59q-193 0 -305.5 139t-112.5 376zM315 540q0 -347 246 -347 q167 0 315 175v442q-127 133 -277 133q-133 0 -208.5 -107t-75.5 -296z" />
<glyph unicode="&#x262;" horiz-adv-x="1176" d="M109 532q0 266 147 411t415 145q169 0 357 -43v-152q-221 50 -343 50q-180 0 -276.5 -108t-96.5 -310q0 -198 95.5 -306t269.5 -108q65 0 159 14v336h194v-433q-210 -52 -360 -52q-271 0 -416 144t-145 412z" />
<glyph unicode="&#x263;" horiz-adv-x="1082" d="M0 915l91 149q125 -26 233.5 -151t234.5 -384l18 -40q174 228 234 336t60 187q0 24 -9 52h181q4 -26 4 -42q0 -88 -67.5 -206t-278.5 -404l-46 -62q155 -283 155 -457q0 -131 -82.5 -217.5t-209.5 -86.5q-117 0 -190 75t-73 196q0 219 194 471q-133 296 -231.5 424.5 t-217.5 159.5zM406 -114q0 -74 34 -119t90 -45q105 0 105 129q0 118 -104 364q-125 -162 -125 -329z" />
<glyph unicode="&#x264;" horiz-adv-x="1070" d="M48 906v146q48 18 82 18q167 0 409 -328q235 328 450 328q14 0 32 -2v-136q-12 1 -20 1q-69 0 -170.5 -82.5t-202.5 -220.5l17 -25q153 -226 153 -352q0 -115 -88 -196t-211 -81q-115 0 -195.5 71t-80.5 173q0 135 194 394q-202 298 -328 298q-17 0 -41 -6zM368 234 q0 -55 36.5 -90t92.5 -35q55 0 93 37.5t38 90.5q0 45 -41 131.5t-90 141.5q-129 -151 -129 -276z" />
<glyph unicode="&#x265;" horiz-adv-x="1245" d="M181 300v764h193v-701q0 -120 35 -170.5t116 -50.5q178 0 333 232v690h194v-1451h-194v587q-152 -224 -373 -224q-139 0 -221.5 87.5t-82.5 236.5z" />
<glyph unicode="&#x266;" horiz-adv-x="1245" d="M193 0v964q0 608 491 608q128 0 259 -41v-170q-132 66 -270 66q-155 0 -221 -114.5t-66 -384.5v-64q153 224 374 224q140 0 221.5 -88t81.5 -236v-764h-193v702q0 118 -34.5 168.5t-115.5 50.5q-177 0 -334 -232v-689h-193z" />
<glyph unicode="&#x267;" horiz-adv-x="1245" d="M193 0v964q0 608 491 608q128 0 259 -41v-170q-132 66 -270 66q-155 0 -221 -114.5t-66 -384.5v-64q153 224 374 224q140 0 221.5 -88t81.5 -236v-854q0 -151 -82.5 -236.5t-231.5 -85.5q-72 0 -145 21v151q61 -27 123 -27q78 0 110.5 49t32.5 164v756q0 118 -34.5 168.5 t-115.5 50.5q-177 0 -334 -232v-689h-193z" />
<glyph unicode="&#x268;" horiz-adv-x="773" d="M48 532v145h242v387h193v-387h242v-145h-242v-532h-193v532h-242zM290 1257v193h193v-193h-193z" />
<glyph unicode="&#x269;" horiz-adv-x="743" d="M187 374v690h193v-671q0 -149 35 -210.5t119 -61.5q72 0 149 41v-145q-90 -41 -190 -41q-150 0 -233 93q-73 81 -73 305z" />
<glyph unicode="&#x26a;" horiz-adv-x="822" d="M121 0v145h193v774h-193v145h580v-145h-193v-774h193v-145h-580z" />
<glyph unicode="&#x26b;" horiz-adv-x="1015" d="M36 616q0 154 67 240.5t186 86.5q64 0 122 -19v623h194v-682q65 -31 127 -31q101 0 101 157l1 24h145q0 -326 -247 -326q-61 0 -127 23v-712h-194v769q-67 29 -127 29q-103 0 -103 -182h-145z" />
<glyph unicode="&#x26c;" horiz-adv-x="1039" d="M24 899q0 96 66.5 162.5t162.5 66.5q149 0 279 -163v582h193v-786h290v-145h-290v-616h-193v616h-85q-423 0 -423 283zM170 898q0 -79 68 -108t250 -29h44q-67 98 -147 160t-138 62q-77 0 -77 -85z" />
<glyph unicode="&#x26d;" horiz-adv-x="598" d="M193 -90v1637h193v-1601q0 -116 33 -164.5t111 -48.5q62 0 123 27v-151q-74 -21 -145 -21q-148 0 -231.5 85.5t-83.5 236.5z" />
<glyph unicode="&#x26e;" horiz-adv-x="1318" d="M193 0v1547h193v-483h805v-145l-428 -453q213 -10 338.5 -123t125.5 -294q0 -196 -152 -335q-137 -125 -385 -125q-103 0 -255 32v159q167 -46 259 -46q147 0 237 80.5t90 212.5q0 148 -115 229t-326 81v146l410 436h-604v-919h-193z" />
<glyph unicode="&#x26f;" horiz-adv-x="1873" d="M181 290v774h193v-744q0 -183 145 -183q150 0 315 214v713h194v-744q0 -184 147 -184q146 0 312 215v713h194v-1064h-194v200q-140 -224 -362 -224q-214 0 -291 224q-137 -224 -357 -224q-141 0 -218.5 82.5t-77.5 231.5z" />
<glyph unicode="&#x270;" horiz-adv-x="1873" d="M181 290v774h193v-744q0 -183 145 -183q150 0 315 214v713h194v-744q0 -184 147 -184q146 0 312 215v713h194v-1451h-194v587q-140 -224 -362 -224q-214 0 -291 224q-137 -224 -357 -224q-141 0 -218.5 82.5t-77.5 231.5z" />
<glyph unicode="&#x271;" horiz-adv-x="1873" d="M193 1064h193v-200q141 224 363 224q213 0 291 -224q137 225 356 225q141 0 218.5 -83t77.5 -232v-864q0 -151 -83 -236.5t-231 -85.5q-73 0 -145 21v151q61 -27 122 -27q78 0 110.5 49t32.5 164v798q0 182 -144 182q-150 0 -314 -213v-713h-194v744q0 183 -147 183 q-146 0 -313 -214v-713h-193v1064z" />
<glyph unicode="&#x272;" horiz-adv-x="1263" d="M-54 -240q61 -27 123 -27q78 0 111 49t33 164v1118h193v-200q153 224 373 224q139 0 221.5 -88t82.5 -236v-764h-194v702q0 118 -34.5 168.5t-115.5 50.5q-177 0 -333 -232v-779q0 -151 -83.5 -236.5t-231.5 -85.5q-71 0 -145 21v151z" />
<glyph unicode="&#x273;" horiz-adv-x="1270" d="M193 0v1064h193v-200q153 224 374 224q140 0 221.5 -88t81.5 -236v-818q0 -116 33 -164.5t111 -48.5q62 0 123 27v-151q-74 -21 -145 -21q-148 0 -231.5 85.5t-83.5 236.5v792q0 118 -34.5 168.5t-115.5 50.5q-177 0 -334 -232v-689h-193z" />
<glyph unicode="&#x274;" horiz-adv-x="1257" d="M193 0v1064h170l532 -763v763h168v-1064h-168l-532 763v-763h-170z" />
<glyph unicode="&#x275;" horiz-adv-x="1232" d="M109 532q0 257 136.5 406.5t370.5 149.5q235 0 371.5 -149.5t136.5 -406.5t-136.5 -406.5t-371.5 -149.5q-234 0 -370.5 149.5t-136.5 406.5zM317 471q25 -350 299 -350q275 0 300 350h-599zM318 616h596q-33 327 -298 327q-264 0 -298 -327z" />
<glyph unicode="&#x276;" horiz-adv-x="1625" d="M109 533q0 250 145 402.5t382 152.5q99 0 226 -41v17h647v-145h-454v-292h382l2 -141h-384v-341h474v-145h-667v21q-125 -45 -225 -45q-238 0 -383 153t-145 404zM312 533q0 -194 85 -303t237 -109q228 0 228 289v247q0 286 -230 286q-150 0 -235 -109t-85 -301z" />
<glyph unicode="&#x277;" horiz-adv-x="1619" d="M109 453q0 291 190 463t511 172t511 -172t190 -464q0 -210 -107.5 -343t-279.5 -133q-186 0 -314 186q-128 -186 -314 -186q-172 0 -279.5 133t-107.5 344zM296 466q0 -142 59.5 -228.5t156.5 -86.5q69 0 131 50t95 132q-43 94 -43 183q0 100 43 203h144q43 -103 43 -203 q0 -89 -43 -183q33 -82 95 -132t131 -50q97 0 156.5 86.5t59.5 228.5q0 196 -128 337q-129 140 -395 140q-248 0 -377 -140q-128 -141 -128 -337z" />
<glyph unicode="&#x278;" horiz-adv-x="1523" d="M97 530q0 227 155 362t413 135v520h193v-520q259 0 414 -135t155 -362q0 -226 -155 -362.5t-414 -136.5v-418h-193v418q-258 0 -413 136.5t-155 362.5zM290 529q0 -156 104.5 -253.5t270.5 -97.5v702q-184 -12 -279.5 -101.5t-95.5 -249.5zM858 178q167 0 271.5 97.5 t104.5 253.5q0 160 -95.5 249.5t-280.5 101.5v-702z" />
<glyph unicode="&#x279;" horiz-adv-x="821" d="M39 -19v181q50 -17 89 -17q183 0 306 218v701h193v-1064h-193v200q-115 -224 -333 -224q-29 0 -62 5z" />
<glyph unicode="&#x27a;" horiz-adv-x="821" d="M39 -19v181q50 -17 89 -17q183 0 306 218v1184h193v-1547h-193v200q-115 -224 -333 -224q-29 0 -62 5z" />
<glyph unicode="&#x27b;" horiz-adv-x="857" d="M39 -19v181q50 -17 89 -17q183 0 306 218v701h193v-1118q0 -116 33 -164.5t111 -48.5q61 0 123 27v-151q-74 -21 -145 -21q-148 0 -231.5 85.5t-83.5 236.5v290q-115 -224 -333 -224q-29 0 -62 5z" />
<glyph unicode="&#x27c;" horiz-adv-x="821" d="M193 1064h193v-200q115 224 333 224q30 0 62 -5v-180q-50 16 -88 16q-183 0 -307 -217v-1089h-193v1451z" />
<glyph unicode="&#x27d;" horiz-adv-x="821" d="M193 -90v1154h193v-200q115 224 333 224q30 0 62 -5v-180q-50 16 -88 16q-183 0 -307 -217v-756q0 -116 33 -164.5t111 -48.5q62 0 123 27v-151q-74 -21 -145 -21q-148 0 -231.5 85.5t-83.5 236.5z" />
<glyph unicode="&#x27e;" horiz-adv-x="825" d="M193 0v580q0 508 378 508q109 0 214 -38v-160q-108 53 -210 53q-109 0 -149 -75.5t-40 -287.5v-580h-193z" />
<glyph unicode="&#x27f;" horiz-adv-x="825" d="M39 890v160q106 38 216 38q376 0 376 -508v-580h-193v580q0 213 -39 288t-150 75q-102 0 -210 -53z" />
<glyph unicode="&#x280;" horiz-adv-x="1104" d="M193 0v1064h406q323 0 323 -263q0 -213 -200 -302l343 -499h-234l-296 435h-149v-435h-193zM386 580h86q252 0 252 200q0 80 -50.5 109.5t-190.5 29.5h-97v-339z" />
<glyph unicode="&#x281;" horiz-adv-x="1104" d="M193 0v1064h193v-435h149l296 435h234l-343 -500q200 -89 200 -300q0 -264 -323 -264h-406zM386 145h97q140 0 190.5 29t50.5 110q0 200 -252 200h-86v-339z" />
<glyph unicode="&#x282;" horiz-adv-x="1022" d="M154 -36v251q189 -94 329 -94q83 0 138 45t55 112q0 99 -154 164l-112 48q-250 104 -250 299q0 139 98.5 219t269.5 80q89 0 221 -25l40 -8v-160q-162 48 -258 48q-84 0 -134.5 -37t-50.5 -98q0 -88 141 -147l93 -40q158 -66 223.5 -140t65.5 -185q0 -140 -110.5 -230 t-283.5 -90q-68 0 -176 21v-28q0 -139 36 -190t133 -51q73 0 137 26v-146q-82 -20 -155 -20q-296 0 -296 376z" />
<glyph unicode="&#x283;" horiz-adv-x="852" d="M-83 -218q109 -48 204 -48q105 0 147 79.5t42 279.5v971q0 508 378 508q109 0 214 -39v-159q-108 53 -210 53q-110 0 -149.5 -75.5t-39.5 -287.5v-967q0 -508 -377 -508q-94 0 -209 34v159z" />
<glyph unicode="&#x284;" horiz-adv-x="871" d="M-35 -209q135 -57 206 -57q80 0 124 44q29 29 36.5 66t7.5 156v290h-241v121h241v339h-241v120h241v380q0 152 83.5 237t232.5 85q71 0 144 -21v-151q-61 27 -123 27q-77 0 -110 -48.5t-33 -164.5v-344h242v-120h-242v-339h242v-121h-242v-290q0 -411 -347 -411 q-103 0 -221 49v153z" />
<glyph unicode="&#x285;" horiz-adv-x="900" d="M-83 1374v159q106 39 215 39q377 0 377 -508v-585q0 -200 42 -279t148 -79q94 0 203 48v-159q-116 -34 -214 -34q-372 0 -372 507v581q0 213 -39.5 288t-150.5 75q-102 0 -209 -53z" />
<glyph unicode="&#x286;" horiz-adv-x="1045" d="M-41 -155q0 140 117 219q86 57 295 57h84v943q0 508 379 508q108 0 214 -39v-159q-109 53 -211 53q-110 0 -149 -76t-39 -287v-943h290v-145h-290q0 -165 -118.5 -276t-294.5 -111q-118 0 -197.5 73.5t-79.5 182.5zM104 -152q0 -114 142 -114q95 0 152 62t57 166v14h-135 q-216 0 -216 -128z" />
<glyph unicode="&#x287;" horiz-adv-x="750" d="M78 0v145h279v590q0 209 -181 209q-38 0 -93 -13v133q89 24 155 24q147 0 229.5 -84.5t82.5 -233.5v-625h133v-145h-133v-193l-193 -19v212h-279z" />
<glyph unicode="&#x288;" horiz-adv-x="750" d="M68 919v145h133v193l193 19v-212h278v-145h-278v-973q0 -116 33 -164.5t111 -48.5q61 0 123 27v-151q-74 -21 -146 -21q-147 0 -230.5 85.5t-83.5 236.5v1009h-133z" />
<glyph unicode="&#x289;" horiz-adv-x="1329" d="M36 532v145h193v387h193v-387h484v387h194v-387h194v-145h-194v-532h-194v200q-153 -224 -373 -224q-139 0 -221.5 87.5t-82.5 236.5v232h-193zM422 363q0 -120 35 -170.5t116 -50.5q177 0 333 232v158h-484v-169z" />
<glyph unicode="&#x28a;" horiz-adv-x="1323" d="M84 919v145h382v-145q-147 -168 -147 -390q0 -179 96.5 -293.5t246.5 -114.5q149 0 245.5 114.5t96.5 293.5q0 222 -146 390v145h381v-145h-196q154 -223 154 -428q0 -227 -149.5 -371t-385.5 -144t-386 144t-150 371q0 205 154 428h-196z" />
<glyph unicode="&#x28b;" horiz-adv-x="1196" d="M42 1064h204l282 -885q161 16 263.5 180.5t102.5 405.5q0 160 -41 299h211q23 -101 23 -215q0 -197 -68.5 -378.5t-187.5 -298.5q-175 -172 -448 -172z" />
<glyph unicode="&#x28c;" horiz-adv-x="1038" d="M12 0l421 1064h192l396 -1064h-193l-309 827l-327 -827h-180z" />
<glyph unicode="&#x28d;" horiz-adv-x="1546" d="M14 0l348 1064h194l225 -824l254 824h195l305 -1064h-188l-235 823l-251 -823h-193l-221 823l-267 -823h-166z" />
<glyph unicode="&#x28e;" horiz-adv-x="1048" d="M12 0l582 1451h200l-173 -387l412 -1064h-209l-305 802l-324 -802h-183z" />
<glyph unicode="&#x28f;" horiz-adv-x="974" d="M12 1064h218l274 -456l287 456h170l-386 -617v-447h-193v447z" />
<glyph unicode="&#x290;" horiz-adv-x="1151" d="M121 0v145l658 774h-628v145h866v-145l-658 -774h671v-176q0 -139 36 -190t133 -51q73 0 136 26v-146q-81 -20 -155 -20q-295 0 -295 376v36h-764z" />
<glyph unicode="&#x291;" horiz-adv-x="1402" d="M121 0v151l650 768h-626v145h864v-145l-654 -768h278q238 387 496 387q105 0 174 -63t69 -160q0 -163 -135 -239t-425 -76h-96q-67 -139 -83 -290h-147q13 159 72 290h-437zM804 151h50q373 0 373 156q0 41 -28.5 69.5t-68.5 28.5q-139 0 -311 -233z" />
<glyph unicode="&#x292;" horiz-adv-x="1028" d="M78 -198q197 -68 338 -68q142 0 225.5 75.5t83.5 201.5q0 152 -135.5 238.5t-372.5 86.5h-18v134l472 436h-574v158h798v-145l-478 -449q240 -20 377 -139t137 -307q0 -196 -141.5 -315.5t-372.5 -119.5q-139 0 -339 49v164z" />
<glyph unicode="&#x293;" horiz-adv-x="1076" d="M55 -114q0 97 71.5 163t177.5 66q231 0 416 -232q54 73 54 171q0 302 -459 302l-67 -2v149l482 416h-584v145h804v-145l-502 -432q231 0 378.5 -120t147.5 -309q0 -176 -159 -317q77 -125 86 -327h-146q-6 130 -63 248q-128 -73 -273 -73q-147 0 -255.5 89t-108.5 208z M200 -119q0 -58 70 -102.5t162 -44.5q80 0 178 53q-135 182 -296 182q-114 0 -114 -88z" />
<glyph unicode="&#x294;" horiz-adv-x="888" d="M84 1352v159q188 61 356 61q188 0 297 -89.5t109 -244.5q0 -103 -42.5 -172.5t-190.5 -212.5l-45 -45q-97 -93 -117.5 -133.5t-20.5 -137.5l-1 -106v-431h-194v434q0 176 36 253t177 208l47 43q164 152 164 281q0 98 -66 153t-183 55q-159 0 -326 -75z" />
<glyph unicode="&#x295;" horiz-adv-x="888" d="M42 1238q0 155 109 244.5t297 89.5q168 0 356 -61v-159q-167 75 -329 75q-114 0 -180 -55.5t-66 -152.5q0 -129 165 -281l47 -43q140 -131 176 -208t36 -253v-434h-193v431l-2 106q0 97 -21 137.5t-117 133.5l-46 45q-147 142 -189.5 212.5t-42.5 172.5z" />
<glyph unicode="&#x296;" horiz-adv-x="888" d="M55 36v157q171 -72 331 -72q112 0 180.5 62.5t68.5 163.5q0 143 -181 329l-37 37q-127 132 -169 210t-42 184v440h194v-424q0 -107 18 -163.5t70 -110.5l59 -59l40 -41q242 -242 242 -412q0 -160 -113.5 -260.5t-294.5 -100.5q-192 0 -366 60z" />
<glyph unicode="&#x297;" horiz-adv-x="974" d="M109 319q0 347 152.5 558t402.5 211q137 0 274 -62v-172q-136 80 -258 80q-182 0 -280 -159.5t-98 -455.5q0 -295 98 -454t280 -159q122 0 258 80v-172q-137 -63 -274 -63q-250 0 -402.5 211.5t-152.5 556.5z" />
<glyph unicode="&#x298;" horiz-adv-x="1329" d="M109 532q0 230 162.5 393t392.5 163q232 0 394.5 -163t162.5 -393q0 -231 -162.5 -393.5t-394.5 -162.5q-230 0 -392.5 162.5t-162.5 393.5zM254 532q0 -170 120 -290.5t290 -120.5q171 0 291.5 120.5t120.5 290.5q0 171 -120.5 291t-291.5 120q-170 0 -290 -120.5 t-120 -290.5zM556 423v218h217v-218h-217z" />
<glyph unicode="&#x299;" horiz-adv-x="1053" d="M193 0v1064h371q161 0 249 -60t88 -171q0 -195 -204 -277q247 -80 247 -287q0 -127 -91.5 -198t-250.5 -71h-409zM385 145h81q163 0 219 29t56 112q0 89 -73 144.5t-192 55.5h-91v-341zM385 613h97q221 0 221 180q0 126 -209 126h-109v-306z" />
<glyph unicode="&#x29a;" horiz-adv-x="1160" d="M97 313q0 172 202 256q-85 34 -137.5 102.5t-52.5 146.5q0 125 111.5 197.5t301.5 72.5q248 0 389.5 -153t141.5 -421q0 -254 -134.5 -396t-374.5 -142q-200 0 -323.5 93t-123.5 244zM284 792q0 -79 76.5 -121t216.5 -42h100v-146h-103q-284 0 -284 -165 q0 -88 71.5 -142.5t185.5 -54.5q169 0 262 102.5t93 292.5q0 198 -97.5 312.5t-266.5 114.5q-112 0 -183 -42.5t-71 -108.5z" />
<glyph unicode="&#x29b;" horiz-adv-x="1188" d="M109 532q0 267 147.5 411.5t417.5 144.5q86 0 185 -13l24 -3v125q0 375 296 375q73 0 155 -20v-146q-64 27 -138 27q-95 0 -131.5 -51.5t-36.5 -189.5v-299q-221 50 -343 50q-180 0 -276.5 -108t-96.5 -310q0 -198 95.5 -306t269.5 -108q65 0 159 14v336h194v-433 q-210 -52 -360 -52q-271 0 -416 144t-145 412z" />
<glyph unicode="&#x29c;" horiz-adv-x="1252" d="M193 0v1064h194v-432h477v432h194v-1064h-194v487h-477v-487h-194z" />
<glyph unicode="&#x29d;" horiz-adv-x="973" d="M-41 -155q0 140 117 219q86 57 295 57h84v943h193v-943h291v-145h-291q0 -165 -118 -276t-295 -111q-117 0 -196.5 73.5t-79.5 182.5zM104 -152q0 -114 141 -114q95 0 152.5 62t57.5 166v14h-135q-216 0 -216 -128zM455 1257v193h193v-193h-193z" />
<glyph unicode="&#x29e;" horiz-adv-x="1173" d="M38 1064h247l501 -546v546h193v-1451h-193v903l-451 -516h-208l431 496z" />
<glyph unicode="&#x29f;" horiz-adv-x="925" d="M193 0v1064h194v-919h489v-145h-683z" />
<glyph unicode="&#x2a0;" horiz-adv-x="1263" d="M109 499q0 265 125 427t329 162q189 0 313 -145v307q0 152 83.5 237t232.5 85q71 0 144 -21v-151q-61 27 -123 27q-77 0 -110 -48.5t-33 -164.5v-1601h-194v587q-117 -224 -355 -224q-192 0 -302 140t-110 383zM315 518q0 -373 247 -373q160 0 314 175v490 q-150 133 -284 133q-132 0 -204.5 -111t-72.5 -314z" />
<glyph unicode="&#x2a1;" horiz-adv-x="919" d="M67 363v145h199v16q0 101 44.5 178.5t166.5 192.5l47 43q165 152 165 281q0 98 -65.5 153t-183.5 55q-159 0 -325 -75v159q187 61 355 61q189 0 297.5 -89.5t108.5 -244.5q0 -103 -42 -172.5t-190 -212.5l-45 -45q-96 -92 -118 -134.5t-22 -137.5l1 -28h313v-145h-313 l-1 -363h-193v363h-199z" />
<glyph unicode="&#x2a2;" horiz-adv-x="919" d="M42 1238q0 155 109.5 244.5t296.5 89.5q168 0 357 -61v-159q-168 75 -330 75q-114 0 -179.5 -55.5t-65.5 -152.5q0 -129 164 -281l47 -43q124 -115 168 -192.5t44 -181.5v-13h200v-145h-200v-363h-193v363h-315v145h315v28q0 95 -22 137.5t-118 134.5l-45 45 q-148 142 -190.5 212.5t-42.5 172.5z" />
<glyph unicode="&#x2a3;" horiz-adv-x="2088" d="M109 499q0 265 125 427t329 162q189 0 313 -145v604h194v-483h897v-145l-659 -774h672v-145h-1104v200q-117 -224 -355 -224q-192 0 -302 140t-110 383zM315 518q0 -373 247 -373q160 0 314 175v490q-150 133 -284 133q-132 0 -204.5 -111t-72.5 -314zM1070 145l659 774 h-659v-774z" />
<glyph unicode="&#x2a4;" horiz-adv-x="2001" d="M109 499q0 265 125 427t329 162q189 0 313 -145v604h194v-483h804v-145l-428 -453q214 -10 339 -123t125 -294q0 -196 -152 -335q-136 -125 -385 -125q-103 0 -255 32v159q168 -46 259 -46q148 0 238 80.5t90 212.5q0 148 -115.5 229t-326.5 81v146l411 436h-604v-919 h-194v200q-117 -224 -355 -224q-192 0 -302 140t-110 383zM315 518q0 -373 247 -373q160 0 314 175v490q-150 133 -284 133q-132 0 -204.5 -111t-72.5 -314z" />
<glyph unicode="&#x2a5;" horiz-adv-x="2352" d="M109 499q0 265 125 427t329 162q189 0 313 -145v604h194v-483h889v-145l-655 -768h279q238 387 496 387q104 0 173.5 -63t69.5 -160q0 -163 -135.5 -239t-424.5 -76h-96q-68 -139 -83 -290h-147q12 159 70 290h-630v200q-117 -224 -355 -224q-192 0 -302 140t-110 383z M315 518q0 -373 247 -373q160 0 314 175v490q-150 133 -284 133q-132 0 -204.5 -111t-72.5 -314zM1070 151l651 768h-651v-768zM1753 151h50q374 0 374 156q0 41 -28.5 69.5t-68.5 28.5q-140 0 -311 -233z" />
<glyph unicode="&#x2a6;" horiz-adv-x="1591" d="M68 919v145h133v193l193 19v-212h541q78 24 171 24q89 0 220 -25l40 -8v-160q-162 48 -258 48q-84 0 -134.5 -37t-50.5 -98q0 -88 141 -147l93 -40q158 -66 223.5 -140t65.5 -185q0 -140 -110.5 -230t-282.5 -90q-133 0 -322 61v178q189 -94 329 -94q84 0 138.5 45 t54.5 112q0 99 -152 164l-114 48q-249 104 -249 300q0 69 28 128l-372 1v-590q0 -208 180 -208q38 0 93 12v-133q-89 -24 -154 -24q-147 0 -229.5 84t-82.5 234v625h-133z" />
<glyph unicode="&#x2a7;" horiz-adv-x="1410" d="M68 919v145h133v193l193 19v-212h484v12q0 496 378 496q108 0 214 -39v-159q-108 53 -210 53q-110 0 -149.5 -75.5t-39.5 -287.5v-967q0 -508 -377 -508q-93 0 -209 34v159q109 -48 204 -48q105 0 147 79.5t42 279.5v826h-484v-590q0 -208 180 -208q38 0 93 12v-133 q-89 -24 -154 -24q-147 0 -229.5 84t-82.5 234v625h-133z" />
<glyph unicode="&#x2a8;" horiz-adv-x="1765" d="M68 919v145h133v193l193 19v-212h713q97 24 212 24q133 0 247 -32v-161q-132 48 -268 48q-157 0 -247 -103.5t-90 -285.5q0 -171 85 -281q78 104 188.5 166.5t215.5 62.5q109 0 182 -65.5t73 -163.5q0 -126 -109.5 -211.5t-271.5 -85.5q-142 0 -261 62q-53 -115 -53 -231 h-147q0 172 79 312q-185 158 -185 431q0 217 124 368l-487 1v-590q0 -208 180 -208q38 0 93 12v-133q-89 -24 -154 -24q-147 0 -229.5 84t-82.5 234v625h-133zM1152 178q92 -57 187 -57q87 0 154 46t67 106q0 84 -112 84q-144 0 -296 -179z" />
<glyph unicode="&#x2b0;" horiz-adv-x="769" d="M113 906v929h145v-408q87 135 222 135q84 0 134 -54t50 -145v-457h-145v416q0 122 -82 122q-94 0 -179 -129v-409h-145z" />
<glyph unicode="&#x2b1;" horiz-adv-x="769" d="M113 906v579q0 363 294 363q82 0 167 -28v-110q-86 30 -148 30q-97 0 -132.5 -54t-35.5 -201v-73q87 135 222 135q84 0 134 -53.5t50 -145.5v-442h-145v402q0 121 -82 121q-94 0 -179 -128v-395h-145z" />
<glyph unicode="&#x2b2;" horiz-adv-x="493" d="M12 687v104q78 -34 126 -34q56 0 77 32t21 117v641h145v-636q0 -252 -228 -252q-64 0 -141 28zM236 1692v132h145v-132h-145z" />
<glyph unicode="&#x2b3;" horiz-adv-x="520" d="M113 906v641h145v-120q68 135 202 135q16 0 35 -4v-131q-33 12 -61 12q-107 0 -176 -118v-415h-145z" />
<glyph unicode="&#x2b4;" horiz-adv-x="531" d="M36 895v131q34 -12 61 -12q107 0 176 118v415h145v-641h-145v120q-68 -135 -200 -135q-18 0 -37 4z" />
<glyph unicode="&#x2b5;" horiz-adv-x="642" d="M36 895v131q34 -12 61 -12q107 0 176 118v415h145v-620q0 -96 22 -128t86 -32q46 0 92 21v-114q-54 -15 -107 -15q-238 0 -238 241v126q-68 -135 -200 -135q-18 0 -37 4z" />
<glyph unicode="&#x2b6;" horiz-adv-x="703" d="M113 909v638h145v-253h66l179 253h177l-206 -292q120 -54 120 -184q0 -162 -194 -162h-287zM258 1004h67q124 0 124 85q0 111 -128 111h-63v-196z" />
<glyph unicode="&#x2b7;" horiz-adv-x="983" d="M25 1547h138l134 -473l143 473h133l127 -474l149 474h110l-200 -641h-142l-126 468l-142 -468h-142z" />
<glyph unicode="&#x2b8;" horiz-adv-x="665" d="M14 1547h156l171 -455l193 455h121l-374 -874h-149l125 233z" />
<glyph unicode="&#x2b9;" horiz-adv-x="580" d="M121 967l193 580h217l-290 -580h-120z" />
<glyph unicode="&#x2ba;" horiz-adv-x="1015" d="M121 967l193 580h217l-290 -580h-120zM556 967l193 580h217l-290 -580h-120z" />
<glyph unicode="&#x2bb;" horiz-adv-x="635" d="M196 992v209q0 321 242 346v-72q-94 -27 -94 -222v-20h94v-241h-242z" />
<glyph unicode="&#x2bc;" horiz-adv-x="635" d="M196 992v72q94 27 94 222v19h-94v242h242v-209q0 -323 -242 -346z" />
<glyph unicode="&#x2bd;" horiz-adv-x="635" d="M196 1338v209h242v-242h-94v-19q0 -195 94 -222v-72q-242 23 -242 346z" />
<glyph unicode="&#x2be;" horiz-adv-x="629" d="M164 992v120h60q66 0 112 46t46 112q0 65 -46 111t-112 46h-60v120h60q116 0 197.5 -80.5t81.5 -197.5q0 -116 -81 -196.5t-198 -80.5h-60z" />
<glyph unicode="&#x2bf;" horiz-adv-x="629" d="M127 1269q0 117 81.5 197.5t197.5 80.5h60v-120h-60q-66 0 -112 -46t-46 -111q0 -66 46 -112t112 -46h60v-120h-60q-117 0 -198 80.5t-81 196.5z" />
<glyph unicode="&#x2c0;" horiz-adv-x="654" d="M84 1412v116q114 34 218 34q128 0 203.5 -54t75.5 -145q0 -87 -97 -179l-38 -35q-90 -86 -90 -183v-60h-145v28q0 103 87 201l39 44q88 99 88 168q0 114 -143 114q-90 0 -198 -49z" />
<glyph unicode="&#x2c1;" horiz-adv-x="654" d="M73 1363q0 92 75.5 145.5t205.5 53.5q102 0 215 -34v-116q-107 49 -198 49q-143 0 -143 -113q0 -70 89 -169l39 -44q87 -98 87 -201v-28h-145v60q0 97 -90 183l-38 35q-97 92 -97 179z" />
<glyph unicode="&#x2c2;" horiz-adv-x="806" d="M36 1259l626 313v-135l-353 -179l353 -177v-134z" />
<glyph unicode="&#x2c3;" horiz-adv-x="806" d="M145 947v134l353 179l-353 177v135l625 -313z" />
<glyph unicode="&#x2c4;" horiz-adv-x="806" d="M91 947l313 625l312 -625h-135l-178 352l-177 -352h-135z" />
<glyph unicode="&#x2c5;" horiz-adv-x="806" d="M91 1572h135l179 -353l176 353h135l-312 -625z" />
<glyph unicode="&#x2c6;" horiz-adv-x="1232" d="M273 1257l237 315h213l236 -315h-145l-199 198l-197 -198h-145z" />
<glyph unicode="&#x2c7;" horiz-adv-x="1232" d="M273 1572h145l199 -198l197 198h145l-236 -315h-213z" />
<glyph unicode="&#x2c8;" horiz-adv-x="484" d="M170 967v580h145v-580h-145z" />
<glyph unicode="&#x2c9;" horiz-adv-x="1232" d="M302 1257v145h629v-145h-629z" />
<glyph unicode="&#x2ca;" horiz-adv-x="1232" d="M387 1257l236 315h224l-315 -315h-145z" />
<glyph unicode="&#x2cb;" horiz-adv-x="1232" d="M387 1572h224l236 -315h-145z" />
<glyph unicode="&#x2cc;" horiz-adv-x="484" d="M170 97h145v-508h-145v508z" />
<glyph unicode="&#x2cd;" horiz-adv-x="1232" d="M302 -193h629v-146h-629v146z" />
<glyph unicode="&#x2ce;" horiz-adv-x="1232" d="M387 -193h224l236 -315h-145z" />
<glyph unicode="&#x2cf;" horiz-adv-x="1232" d="M387 -508l236 315h224l-315 -315h-145z" />
<glyph unicode="&#x2d0;" horiz-adv-x="822" d="M193 0l218 435l217 -435h-435zM193 1064h435l-217 -435z" />
<glyph unicode="&#x2d1;" horiz-adv-x="822" d="M193 1064h435l-217 -435z" />
<glyph unicode="&#x2d2;" horiz-adv-x="580" d="M121 315v120h60q66 0 112 46t46 112t-46 111.5t-112 45.5h-60v120h60q116 0 197.5 -80.5t81.5 -196.5q0 -117 -81 -197.5t-198 -80.5h-60z" />
<glyph unicode="&#x2d3;" horiz-adv-x="580" d="M121 593q0 116 81 196.5t197 80.5h61v-120h-61q-66 0 -112 -45.5t-46 -111.5t46 -112t112 -46h61v-120h-61q-117 0 -197.5 80.5t-80.5 197.5z" />
<glyph unicode="&#x2d4;" horiz-adv-x="943" d="M145 460v120h266v290h121v-290h266v-120h-653z" />
<glyph unicode="&#x2d5;" horiz-adv-x="943" d="M145 750v120h653v-120h-266v-290h-121v290h-266z" />
<glyph unicode="&#x2d6;" horiz-adv-x="943" d="M145 508v121h267v266h120v-266h267v-121h-267v-266h-120v266h-267z" />
<glyph unicode="&#x2d7;" horiz-adv-x="943" d="M145 387v363h121v-121h411v121h121v-363h-121v121h-411v-121h-121z" />
<glyph unicode="&#x2d8;" horiz-adv-x="1232" d="M290 1547h121q31 -145 205 -145q175 0 206 145h121q-15 -131 -104 -210.5t-223 -79.5q-133 0 -221.5 79t-104.5 211z" />
<glyph unicode="&#x2d9;" horiz-adv-x="1232" d="M519 1257v193h193v-193h-193z" />
<glyph unicode="&#x2da;" horiz-adv-x="1232" d="M394 1480q0 92 64.5 157t157.5 65t158 -64.5t65 -157.5t-64.5 -158t-158.5 -65q-93 0 -157.5 65t-64.5 158zM478 1480q0 -57 40.5 -97.5t97.5 -40.5q58 0 98.5 40t40.5 98t-41 98t-98 40t-97.5 -40t-40.5 -98z" />
<glyph unicode="&#x2db;" horiz-adv-x="1232" d="M490 -207q0 123 155 207h105q-126 -75 -126 -174q0 -96 111 -96q56 0 90 15v-79q-59 -29 -135 -29q-90 0 -145 43.5t-55 112.5z" />
<glyph unicode="&#x2dc;" horiz-adv-x="1232" d="M290 1257q11 230 181 230q72 0 133 -38l58 -36q55 -34 84 -34q67 0 76 108h121q-11 -230 -182 -230q-71 0 -132 39l-59 36q-55 33 -83 33q-68 0 -76 -108h-121z" />
<glyph unicode="&#x2dd;" horiz-adv-x="1232" d="M232 1257l236 315h188l-315 -315h-109zM577 1257l235 315h188l-314 -315h-109z" />
<glyph unicode="&#x2de;" horiz-adv-x="524" d="M-120 557v153l409 109v-215q0 -123 23.5 -167t88.5 -44q43 0 100 32v-151q-87 -26 -134 -26q-223 0 -223 309v73z" />
<glyph unicode="&#x2e0;" horiz-adv-x="760" d="M0 1437l72 110q188 -10 351 -368q183 237 183 348q0 10 -5 20h131q5 -17 5 -31q0 -65 -82.5 -211t-172.5 -243q101 -172 101 -287q0 -93 -57 -152t-146 -59q-81 0 -133 50t-52 129q0 132 126 313q-76 184 -153 275t-168 106zM320 762q0 -86 60 -86q61 0 61 75 q0 77 -59 185q-62 -91 -62 -174z" />
<glyph unicode="&#x2e1;" horiz-adv-x="370" d="M113 906v929h145v-929h-145z" />
<glyph unicode="&#x2e2;" horiz-adv-x="692" d="M113 927v117q121 -55 209 -55q111 0 111 84q0 53 -90 90l-63 26q-164 67 -164 187q0 186 244 186q63 0 148 -17l23 -4v-109q-101 32 -166 32q-107 0 -107 -74q0 -48 82 -82l53 -21q188 -76 188 -197q0 -87 -70.5 -143t-180.5 -56q-101 0 -217 36z" />
<glyph unicode="&#x2e3;" horiz-adv-x="850" d="M109 906l232 327l-224 314h168l163 -224l150 224h127l-211 -320l228 -321h-168l-168 233l-167 -233h-130z" />
<glyph unicode="&#x2e4;" horiz-adv-x="654" d="M48 1599q0 91 76 145t205 54q102 0 216 -34v-116q-108 48 -198 48q-143 0 -143 -111q0 -71 88 -171l39 -44q87 -98 87 -201v-263h-145v296q0 96 -90 182l-38 36q-97 92 -97 179z" />
<glyph unicode="&#x2e5;" horiz-adv-x="878" d="M36 1330v120h649v-1450h-133v1330h-516z" />
<glyph unicode="&#x2e6;" horiz-adv-x="878" d="M36 1001v120h516v329h133v-1450h-133v1001h-516z" />
<glyph unicode="&#x2e7;" horiz-adv-x="878" d="M36 665v121h516v664h133v-1450h-133v665h-516z" />
<glyph unicode="&#x2e8;" horiz-adv-x="878" d="M36 329v122h516v999h133v-1450h-133v329h-516z" />
<glyph unicode="&#x2e9;" horiz-adv-x="878" d="M36 0v121h516v1329h133v-1450h-649z" />
<glyph unicode="&#x300;" horiz-adv-x="0" d="M-930 1572h223l237 -315h-145z" />
<glyph unicode="&#x301;" horiz-adv-x="0" d="M-760 1257l236 315h223l-314 -315h-145z" />
<glyph unicode="&#x302;" horiz-adv-x="0" d="M-958 1257l236 315h213l237 -315h-145l-199 198l-197 -198h-145z" />
<glyph unicode="&#x303;" horiz-adv-x="0" d="M-942 1257q11 230 182 230q71 0 132 -38l59 -36q55 -34 83 -34q68 0 76 108h121q-11 -230 -181 -230q-72 0 -133 39l-59 36q-54 33 -83 33q-67 0 -76 -108h-121z" />
<glyph unicode="&#x304;" horiz-adv-x="0" d="M-894 1257v145h557v-145h-557z" />
<glyph unicode="&#x305;" horiz-adv-x="0" d="M-1232 1572v145h1233v-145h-1233z" />
<glyph unicode="&#x306;" horiz-adv-x="0" d="M-942 1547h121q31 -145 206 -145q174 0 205 145h121q-15 -131 -104 -210.5t-222 -79.5q-134 0 -222.5 79t-104.5 211z" />
<glyph unicode="&#x307;" horiz-adv-x="0" d="M-712 1257v193h193v-193h-193z" />
<glyph unicode="&#x308;" horiz-adv-x="0" d="M-894 1257v170h170v-170h-170zM-507 1257v170h170v-170h-170z" />
<glyph unicode="&#x309;" horiz-adv-x="0" d="M-715 1514v91q64 15 112 15q153 0 153 -113q0 -54 -61 -111l-18 -17q-35 -33 -35 -86v-36h-97v15q0 98 59 152l17 16q39 35 39 54q0 42 -70 42q-41 0 -99 -22z" />
<glyph unicode="&#x30a;" horiz-adv-x="0" d="M-838 1480q0 92 64.5 157t157.5 65t157.5 -64.5t64.5 -157.5t-64.5 -158t-157.5 -65t-157.5 65t-64.5 158zM-754 1480q0 -57 40.5 -97.5t97.5 -40.5t97.5 40t40.5 98t-40.5 98t-97.5 40t-97.5 -40t-40.5 -98z" />
<glyph unicode="&#x30b;" horiz-adv-x="0" d="M-906 1257l236 315h199l-315 -315h-120zM-562 1257l236 315h200l-315 -315h-121z" />
<glyph unicode="&#x30c;" horiz-adv-x="0" d="M-958 1572h145l199 -198l197 198h145l-237 -315h-213z" />
<glyph unicode="&#x30d;" horiz-adv-x="0" d="M-688 1257v363h145v-363h-145z" />
<glyph unicode="&#x30e;" horiz-adv-x="0" d="M-858 1257v363h146v-363h-146zM-519 1257v363h145v-363h-145z" />
<glyph unicode="&#x30f;" horiz-adv-x="0" d="M-1104 1572h199l236 -315h-121zM-760 1572h199l237 -315h-122z" />
<glyph unicode="&#x310;" horiz-adv-x="0" d="M-958 1572h145l199 -198l197 198h145l-237 -315h-213zM-712 1639v193h194v-193h-194z" />
<glyph unicode="&#x311;" horiz-adv-x="0" d="M-942 1257q15 133 104 211.5t223 78.5q133 0 221.5 -78.5t104.5 -211.5h-121q-31 145 -205 145q-175 0 -206 -145h-121z" />
<glyph unicode="&#x312;" horiz-adv-x="0" d="M-712 1257v168q0 258 193 277v-58q-75 -20 -75 -177v-17h75v-193h-193z" />
<glyph unicode="&#x313;" horiz-adv-x="0" d="M-712 1257v58q74 21 74 178v16h-74v193h193v-167q0 -258 -193 -278z" />
<glyph unicode="&#x314;" horiz-adv-x="0" d="M-712 1535v167h193v-193h-75v-16q0 -157 75 -178v-58q-193 20 -193 278z" />
<glyph unicode="&#x315;" horiz-adv-x="0" d="M-192 1257v58q74 21 74 178v16h-74v193h193v-167q0 -258 -193 -278z" />
<glyph unicode="&#x316;" horiz-adv-x="0" d="M-840 -193h224l236 -315h-145z" />
<glyph unicode="&#x317;" horiz-adv-x="0" d="M-852 -508l237 315h223l-315 -315h-145z" />
<glyph unicode="&#x318;" horiz-adv-x="0" d="M-882 -315h266v218h97v-532h-97v218h-266v96z" />
<glyph unicode="&#x319;" horiz-adv-x="0" d="M-664 -97h97v-218h265v-96h-265v-218h-97v532z" />
<glyph unicode="&#x31a;" horiz-adv-x="0" d="M-482 1439v108h483v-483h-121v375h-362z" />
<glyph unicode="&#x31b;" horiz-adv-x="0" d="M-410 919v145h32q138 0 189.5 36t51.5 133q0 73 -27 136h146q20 -80 20 -155q0 -295 -375 -295h-37z" />
<glyph unicode="&#x31c;" horiz-adv-x="0" d="M-751 -416q0 93 65.5 158t157.5 65h48v-97h-48q-52 0 -89 -37t-37 -89t37 -89t89 -37h48v-96h-48q-93 0 -158 64.5t-65 157.5z" />
<glyph unicode="&#x31d;" horiz-adv-x="0" d="M-882 -460h218v267h97v-267h217v-96h-532v96z" />
<glyph unicode="&#x31e;" horiz-adv-x="0" d="M-882 -193h532v-97h-217v-266h-97v266h-218v97z" />
<glyph unicode="&#x31f;" horiz-adv-x="0" d="M-882 -412h218v219h97v-219h217v-96h-217v-217h-97v217h-218v96z" />
<glyph unicode="&#x320;" horiz-adv-x="0" d="M-882 -193h97v-97h338v97h97v-291h-97v97h-338v-97h-97v291z" />
<glyph unicode="&#x321;" horiz-adv-x="0" d="M-459 -240q61 -27 123 -27q78 0 111 49t33 164v54h193v-90q0 -151 -83.5 -236.5t-231.5 -85.5q-71 0 -145 21v151z" />
<glyph unicode="&#x322;" horiz-adv-x="0" d="M-459 0h193v-54q0 -116 33 -164.5t111 -48.5q62 0 123 27v-151q-74 -21 -145 -21q-148 0 -231.5 85.5t-83.5 236.5v90z" />
<glyph unicode="&#x323;" horiz-adv-x="0" d="M-712 -193h193v-194h-193v194z" />
<glyph unicode="&#x324;" horiz-adv-x="0" d="M-894 -193h170v-170h-170v170zM-507 -193h170v-170h-170v170z" />
<glyph unicode="&#x325;" horiz-adv-x="0" d="M-838 -416q0 93 64.5 158t157.5 65t157.5 -65t64.5 -158t-64.5 -157.5t-157.5 -64.5t-157.5 64.5t-64.5 157.5zM-754 -416q0 -57 40.5 -97.5t97.5 -40.5t97.5 40.5t40.5 97.5t-40.5 97.5t-97.5 40.5t-97.5 -40.5t-40.5 -97.5z" />
<glyph unicode="&#x326;" horiz-adv-x="0" d="M-712 -193h193v-169q0 -257 -193 -276v58q74 20 74 177v16h-74v194z" />
<glyph unicode="&#x327;" horiz-adv-x="0" d="M-695 -323q45 -15 103 -15q101 0 101 72q0 94 -183 94l93 172h95l-59 -107q76 0 133 -46.5t57 -108.5q0 -67 -57 -114t-140 -47q-70 0 -143 20v80z" />
<glyph unicode="&#x328;" horiz-adv-x="0" d="M-740 -207q0 123 155 207h105q-126 -75 -126 -174q0 -96 111 -96q56 0 90 15v-79q-59 -29 -135 -29q-90 0 -145 43.5t-55 112.5z" />
<glyph unicode="&#x329;" horiz-adv-x="0" d="M-688 -193h145v-364h-145v364z" />
<glyph unicode="&#x32a;" horiz-adv-x="0" d="M-882 -193h532v-315h-97v218h-338v-218h-97v315z" />
<glyph unicode="&#x32b;" horiz-adv-x="0" d="M-1039 -193h121q27 -133 118 -133q114 0 124 133h120q11 -133 124 -133q91 0 118 133h122q-14 -118 -77.5 -186t-158.5 -68q-114 0 -187 134q-74 -134 -188 -134q-95 0 -158.5 68t-77.5 186z" />
<glyph unicode="&#x32c;" horiz-adv-x="0" d="M-958 -193h145l199 -198l197 198h145l-237 -315h-213z" />
<glyph unicode="&#x32d;" horiz-adv-x="0" d="M-958 -508l236 315h213l237 -315h-145l-199 197l-197 -197h-145z" />
<glyph unicode="&#x32e;" horiz-adv-x="0" d="M-942 -193h121q31 -145 206 -145q174 0 205 145h121q-15 -132 -104 -211.5t-222 -79.5q-134 0 -222.5 79.5t-104.5 211.5z" />
<glyph unicode="&#x32f;" horiz-adv-x="0" d="M-942 -484q15 132 104 211.5t223 79.5q133 0 221.5 -79.5t104.5 -211.5h-121q-31 145 -205 145q-175 0 -206 -145h-121z" />
<glyph unicode="&#x330;" horiz-adv-x="0" d="M-942 -423q11 230 182 230q71 0 132 -38l59 -37q55 -34 83 -34q68 0 76 109h121q-11 -230 -181 -230q-72 0 -133 38l-59 36q-54 33 -83 33q-67 0 -76 -107h-121z" />
<glyph unicode="&#x331;" horiz-adv-x="0" d="M-930 -193h629v-146h-629v146z" />
<glyph unicode="&#x332;" horiz-adv-x="0" d="M-1232 -423h1233v-145h-1233v145z" />
<glyph unicode="&#x333;" horiz-adv-x="0" d="M-1232 -423h1233v-121h-1233v121zM-1232 -761h1233v-122h-1233v122z" />
<glyph unicode="&#x334;" horiz-adv-x="0" d="M-1123 435q0 142 75 232t192 90q87 0 190 -63l129 -79q118 -72 157 -72q58 0 92.5 48.5t34.5 128.5h145q0 -141 -75 -231t-192 -90q-87 0 -189 63l-130 79q-116 71 -157 71q-57 0 -92 -48t-35 -129h-145z" />
<glyph unicode="&#x335;" horiz-adv-x="0" d="M-1123 471v145h1015v-145h-1015z" />
<glyph unicode="&#x336;" horiz-adv-x="0" d="M-1232 471v145h1233v-145h-1233z" />
<glyph unicode="&#x337;" horiz-adv-x="0" d="M-1233 0l1064 1064h171l-1064 -1064h-171z" />
<glyph unicode="&#x338;" horiz-adv-x="0" d="M-1143 -193l920 1837h135l-919 -1837h-136z" />
<glyph unicode="&#x339;" horiz-adv-x="0" d="M-730 -193h48q75 0 128 -53.5t53 -127.5q0 -76 -53 -129t-128 -53h-48v109h48q72 0 72 72q0 73 -72 73h-48v109z" />
<glyph unicode="&#x33a;" horiz-adv-x="0" d="M-882 -193h97v-219h338v219h97v-315h-532v315z" />
<glyph unicode="&#x33b;" horiz-adv-x="0" d="M-882 -193h532v-412h-532v412zM-785 -290v-218h338v218h-338z" />
<glyph unicode="&#x33c;" horiz-adv-x="0" d="M-1039 -447q14 117 77.5 185.5t158.5 68.5q114 0 188 -135q72 135 187 135q95 0 158.5 -68.5t77.5 -185.5h-122q-27 132 -118 132q-113 0 -124 -132h-120q-10 132 -124 132q-91 0 -118 -132h-121z" />
<glyph unicode="&#x33d;" horiz-adv-x="0" d="M-872 1244l188 188l-188 188h136l121 -120l119 120h136l-188 -188l188 -188h-136l-119 119l-121 -119h-136z" />
<glyph unicode="&#x33e;" horiz-adv-x="0" d="M-712 1502q0 48 74 118h119q-80 -66 -80 -104q0 -21 15 -37l13 -15l18 -20q41 -48 41 -76q0 -45 -72 -111h-114q72 67 72 99q0 21 -28 50l-20 21q-38 39 -38 75z" />
<glyph unicode="&#x33f;" horiz-adv-x="0" d="M-1232 1572v145h1233v-145h-1233zM-1232 1887v146h1233v-146h-1233z" />
<glyph unicode="&#x340;" horiz-adv-x="0" d="M-1232 2055h224l236 -314h-145z" />
<glyph unicode="&#x341;" horiz-adv-x="0" d="M-459 1741l237 314h223l-315 -314h-145z" />
<glyph unicode="&#x344;" horiz-adv-x="0" d="M-1002 1257v170h170v-170h-170zM-711 1572h193l-24 -315h-145zM-397 1257v170h170v-170h-170z" />
<glyph unicode="&#x345;" horiz-adv-x="0" d="M-628 -121h151v-53q0 -98 59 -98q40 0 80 23v-124q-74 -39 -151 -39q-76 0 -107.5 44.5t-31.5 150.5v96z" />
<glyph unicode="&#x374;" horiz-adv-x="652" d="M145 870l193 580h218l-290 -580h-121z" />
<glyph unicode="&#x375;" horiz-adv-x="652" d="M145 0l193 580h218l-290 -580h-121z" />
<glyph unicode="&#x37a;" horiz-adv-x="1232" d="M535 -121h151v-53q0 -110 59 -110q40 0 80 22v-123q-73 -38 -151 -38q-76 0 -107.5 43.5t-31.5 150.5v108z" />
<glyph unicode="&#x37e;" horiz-adv-x="635" d="M220 0v193h194v-163q0 -297 -194 -345v73q70 36 70 219v23h-70zM220 870v194h194v-194h-194z" />
<glyph unicode="&#x384;" horiz-adv-x="1232" d="M520 1572h193l-23 -315h-145z" />
<glyph unicode="&#x385;" horiz-adv-x="1232" d="M229 1257v170h170v-170h-170zM519 1572h193l-23 -315h-145zM834 1257v170h170v-170h-170z" />
<glyph unicode="&#x386;" horiz-adv-x="1384" d="M17 0l575 1450h204l566 -1450h-222l-158 402h-614l-160 -402h-191zM104 1451h193l-23 -315h-145zM427 555h495l-247 625z" />
<glyph unicode="&#x388;" horiz-adv-x="1300" d="M11 1451h193l-23 -315h-145zM399 0v1450h811v-153h-605v-466h507v-152h-507v-525h647v-154h-853z" />
<glyph unicode="&#x389;" horiz-adv-x="1686" d="M11 1451h193l-23 -315h-145zM399 0v1450h206v-611h690v611h206v-1450h-206v685h-690v-685h-206z" />
<glyph unicode="&#x38a;" horiz-adv-x="793" d="M11 1451h193l-23 -315h-145zM401 0v1450h206v-1450h-206z" />
<glyph unicode="&#x38c;" horiz-adv-x="1731" d="M11 1451h193l-23 -315h-145zM274 725q0 347 184.5 554.5t493.5 207.5t493.5 -207.5t184.5 -554.5t-184.5 -554t-493.5 -207t-493.5 207t-184.5 554zM492 727q0 -287 122 -448t338 -161q217 0 338.5 161t121.5 448q0 285 -121.5 445.5t-338.5 160.5q-216 0 -338 -160.5 t-122 -445.5z" />
<glyph unicode="&#x38e;" horiz-adv-x="1642" d="M11 1451h193l-23 -315h-145zM387 1282v168h14q480 0 613 -585q89 239 252.5 398.5t347.5 186.5v-145q-226 -64 -378.5 -304.5t-152.5 -531.5v-469h-194v469q0 345 -144.5 579t-357.5 234z" />
<glyph unicode="&#x38f;" horiz-adv-x="1751" d="M11 1451h193l-23 -315h-145zM240 0v151h398q-350 265 -350 664q0 294 190 483t487 189t487 -188.5t190 -483.5q0 -400 -351 -664h399v-151h-598v151q332 224 332 646q0 254 -121.5 396.5t-337.5 142.5q-214 0 -337 -141.5t-123 -388.5q0 -430 333 -655v-151h-598z" />
<glyph unicode="&#x390;" horiz-adv-x="737" d="M-97 1257v170h170v-170h-170zM193 374v690h193v-671q0 -149 35 -210.5t119 -61.5q72 0 149 41v-145q-90 -41 -190 -41q-150 0 -233 93q-73 81 -73 305zM193 1572h193l-23 -315h-145zM508 1257v170h170v-170h-170z" />
<glyph unicode="&#x391;" horiz-adv-x="1384" d="M17 0l575 1450h204l566 -1450h-222l-158 402h-614l-160 -402h-191zM427 555h495l-247 625z" />
<glyph unicode="&#x392;" horiz-adv-x="1154" d="M187 0v1450h377q217 0 333 -82t116 -237q0 -126 -77.5 -224t-220.5 -151q356 -109 356 -393q0 -128 -78 -227q-60 -75 -144.5 -105.5t-234.5 -30.5h-427zM391 813h66q165 0 255.5 71t90.5 201q0 212 -332 212h-80v-484zM391 154h42q227 0 293 28q128 54 128 200 q0 130 -116 215.5t-289 85.5h-58v-529z" />
<glyph unicode="&#x393;" horiz-adv-x="1022" d="M187 0v1450h812v-168h-606v-1282h-206z" />
<glyph unicode="&#x394;" horiz-adv-x="1405" d="M48 0v181l554 1269h204l551 -1269v-181h-1309zM225 181h910l-454 1043z" />
<glyph unicode="&#x395;" horiz-adv-x="1087" d="M187 0v1450h811v-153h-605v-466h507v-152h-507v-525h647v-154h-853z" />
<glyph unicode="&#x396;" horiz-adv-x="1213" d="M93 0v165l779 1132h-731v153h978v-153l-779 -1132h779v-165h-1026z" />
<glyph unicode="&#x397;" horiz-adv-x="1474" d="M187 0v1450h206v-611h690v611h206v-1450h-206v685h-690v-685h-206z" />
<glyph unicode="&#x398;" horiz-adv-x="1560" d="M102 725q0 347 184.5 554.5t493.5 207.5t493.5 -207.5t184.5 -554.5q0 -346 -184.5 -553.5t-493.5 -207.5t-493.5 207t-184.5 554zM320 727q0 -287 122 -448t338 -161q217 0 338.5 160.5t121.5 446.5q0 287 -121.5 447.5t-338.5 160.5q-216 0 -338 -160.5t-122 -445.5z M508 671v157h545v-157h-545z" />
<glyph unicode="&#x399;" horiz-adv-x="578" d="M186 0v1450h206v-1450h-206z" />
<glyph unicode="&#x39a;" horiz-adv-x="1310" d="M187 0v1450h193v-713l587 713h207l-568 -691l669 -759h-261l-634 735v-735h-193z" />
<glyph unicode="&#x39b;" horiz-adv-x="1305" d="M19 0l526 1450h193l550 -1450h-207l-458 1207l-437 -1207h-167z" />
<glyph unicode="&#x39c;" horiz-adv-x="1728" d="M187 0v1450h285l402 -1122l414 1122h255v-1450h-193v1180l-399 -1083h-199l-388 1086v-1183h-177z" />
<glyph unicode="&#x39d;" horiz-adv-x="1482" d="M187 0v1450h202l730 -1120v1120h177v-1450h-201l-731 1120v-1120h-177z" />
<glyph unicode="&#x39e;" horiz-adv-x="1221" d="M36 0v181h1149v-181h-1149zM91 1269v181h1040v-181h-1040zM187 665v182h847v-182h-847z" />
<glyph unicode="&#x39f;" horiz-adv-x="1559" d="M102 725q0 347 184.5 554.5t493.5 207.5t493.5 -207.5t184.5 -554.5t-184.5 -554t-493.5 -207t-493.5 207t-184.5 554zM320 727q0 -287 122 -448t338 -161q217 0 338.5 161t121.5 448q0 285 -121.5 445.5t-338.5 160.5q-216 0 -338 -160.5t-122 -445.5z" />
<glyph unicode="&#x3a0;" horiz-adv-x="1523" d="M78 1297v153h1368v-153h-134v-1297h-205v1297h-691v-1297h-204v1297h-134z" />
<glyph unicode="&#x3a1;" horiz-adv-x="1109" d="M187 0v1450h395q171 0 263.5 -27.5t151.5 -98.5q77 -93 77 -254q0 -231 -157 -362.5t-435 -131.5h-91v-576h-204zM391 732h83q184 0 284 84.5t100 238.5q0 130 -79 186t-262 56h-126v-565z" />
<glyph unicode="&#x3a3;" horiz-adv-x="1190" d="M61 0v181l561 546l-513 572v151h997v-151h-724l487 -542l-594 -576h862v-181h-1076z" />
<glyph unicode="&#x3a4;" horiz-adv-x="1269" d="M18 1297v153h1234v-153h-514v-1297h-206v1297h-514z" />
<glyph unicode="&#x3a5;" horiz-adv-x="1280" d="M25 1282v168h14q480 0 613 -585q89 239 252.5 398.5t347.5 186.5v-145q-226 -64 -378.5 -304.5t-152.5 -531.5v-469h-194v469q0 345 -144.5 579t-357.5 234z" />
<glyph unicode="&#x3a6;" horiz-adv-x="1414" d="M61 721q0 223 155.5 367.5t394.5 144.5v217h193v-217q239 0 394.5 -144.5t155.5 -367.5q0 -206 -155 -354t-371 -148h-24v-219h-193v219h-27q-214 0 -368.5 148.5t-154.5 353.5zM266 717q0 -156 94.5 -251.5t250.5 -95.5v713q-156 0 -250.5 -100t-94.5 -266zM804 1083 v-713q155 0 250 95.5t95 251.5q0 166 -94.5 266t-250.5 100z" />
<glyph unicode="&#x3a7;" horiz-adv-x="1256" d="M16 0l481 728l-458 722h243l349 -546l367 546h194l-464 -700l475 -750h-243l-368 575l-381 -575h-195z" />
<glyph unicode="&#x3a8;" horiz-adv-x="1469" d="M12 1299v151h16q172 0 242 -59t101 -233l20 -112q29 -160 76.5 -221t144.5 -61q4 0 16 1v685h212v-685q12 -1 17 -1q96 0 143.5 61t76.5 221l21 112q31 174 100.5 233t241.5 59h16v-151h-13q-96 0 -128 -33.5t-52 -158.5l-20 -123q-30 -185 -124 -272.5t-279 -100.5v-611 h-212v611q-184 13 -278.5 100.5t-124.5 272.5l-19 123q-21 125 -52.5 158.5t-128.5 33.5h-13z" />
<glyph unicode="&#x3a9;" d="M73 0v151h398q-350 265 -350 664q0 294 190 483t487 189t487 -188.5t190 -483.5q0 -400 -351 -664h399v-151h-598v151q332 224 332 646q0 254 -121.5 396.5t-337.5 142.5q-214 0 -337 -141.5t-123 -388.5q0 -430 333 -655v-151h-598z" />
<glyph unicode="&#x3aa;" horiz-adv-x="578" d="M11 1572v170h170v-170h-170zM186 0v1450h206v-1450h-206zM398 1572v170h170v-170h-170z" />
<glyph unicode="&#x3ab;" horiz-adv-x="1280" d="M25 1282v168h14q480 0 613 -585q89 239 252.5 398.5t347.5 186.5v-145q-226 -64 -378.5 -304.5t-152.5 -531.5v-469h-194v469q0 345 -144.5 579t-357.5 234zM373 1572v170h170v-170h-170zM760 1572v170h170v-170h-170z" />
<glyph unicode="&#x3ac;" horiz-adv-x="1438" d="M129 458q0 259 129 445t308 186q113 0 199 -101.5t212 -383.5q119 207 119 460h205q-42 -298 -252 -595q169 -310 289 -469h-224l-27 46l-65 104l-66 113q-8 16 -31 54q-252 -341 -458 -341q-153 0 -245.5 131.5t-92.5 350.5zM335 497q0 -176 46 -276t128 -100 q133 0 349 316l-51 114q-100 218 -158.5 302t-110.5 84q-80 0 -141.5 -133t-61.5 -307zM646 1572h193l-23 -315h-145z" />
<glyph unicode="&#x3ad;" horiz-adv-x="1058" d="M109 534q0 265 139 410t395 145q136 0 282 -36v-158q-177 48 -299 48q-136 0 -219 -82.5t-94 -231.5h551v-146h-551q12 -188 95 -275t250 -87q132 0 279 64v-150q-162 -59 -313 -59q-236 0 -375.5 151t-139.5 407zM532 1572h193l-23 -315h-145z" />
<glyph unicode="&#x3ae;" horiz-adv-x="1248" d="M132 1064h216q26 -86 42 -202q172 226 374 226q156 0 229.5 -95.5t73.5 -297.5v-1082h-193v1058q0 235 -174 235q-171 0 -310 -211v-695h-193v738q0 178 -65 326zM549 1572h193l-23 -315h-145z" />
<glyph unicode="&#x3af;" horiz-adv-x="737" d="M193 374v690h193v-671q0 -149 35 -210.5t119 -61.5q72 0 149 41v-145q-90 -41 -190 -41q-150 0 -233 93q-73 81 -73 305zM193 1572h193l-23 -315h-145z" />
<glyph unicode="&#x3b0;" horiz-adv-x="1221" d="M181 491v573h193v-532q0 -256 57 -328q64 -83 182 -83q134 0 217 110t83 287q0 121 -43 277t-108 269h198q116 -261 116 -544q0 -242 -130 -393t-337 -151q-193 0 -317 120q-65 64 -88 145t-23 250zM205 1257v170h170v-170h-170zM495 1572h193l-23 -315h-145zM810 1257 v170h170v-170h-170z" />
<glyph unicode="&#x3b1;" horiz-adv-x="1438" d="M129 458q0 259 129 445t308 186q113 0 199 -101.5t212 -383.5q119 207 119 460h205q-42 -298 -252 -595q169 -310 289 -469h-224l-27 46l-65 104l-66 113q-8 16 -31 54q-252 -341 -458 -341q-153 0 -245.5 131.5t-92.5 350.5zM335 497q0 -176 46 -276t128 -100 q133 0 349 316l-51 114q-100 218 -158.5 302t-110.5 84q-80 0 -141.5 -133t-61.5 -307z" />
<glyph unicode="&#x3b2;" horiz-adv-x="1209" d="M193 -387v1420q0 255 114.5 397t319.5 142q169 0 273 -88t104 -233q0 -251 -266 -390q170 -53 272 -173.5t102 -267.5q0 -195 -135 -319.5t-346 -124.5q-134 0 -245 41v-404h-193zM386 184l35 -14q103 -49 207 -49q123 0 206.5 84.5t83.5 207.5q0 152 -115 244.5 t-306 92.5h-38v145h35q127 0 221 101.5t94 239.5q0 87 -52.5 139t-142.5 52q-228 0 -228 -364v-879z" />
<glyph unicode="&#x3b3;" horiz-adv-x="1147" d="M6 1064h222q219 -331 359 -732q40 107 133.5 297t154.5 288l76 125l13 22h178q-232 -329 -477 -901l-17 -41q37 -103 37 -230q0 -124 -62 -279h-147l-10 32q-42 131 -42 209q0 83 52 250q-39 171 -179.5 458t-290.5 502z" />
<glyph unicode="&#x3b4;" horiz-adv-x="1184" d="M109 466q0 347 371 491q-178 94 -256.5 175t-78.5 171q0 127 121 198t336 71q136 0 251 -28v-161q-126 44 -272 44q-110 0 -176.5 -29.5t-66.5 -77.5q0 -72 174 -174l92 -53l106 -65q194 -117 280 -244.5t86 -299.5q0 -222 -135.5 -365t-348.5 -143q-208 0 -345.5 139.5 t-137.5 350.5zM315 463q0 -146 81 -244t203 -98q116 0 193.5 102t77.5 255q0 132 -54 216t-192 169q-309 -107 -309 -400z" />
<glyph unicode="&#x3b5;" horiz-adv-x="1058" d="M109 534q0 265 139 410t395 145q136 0 282 -36v-158q-177 48 -299 48q-136 0 -219 -82.5t-94 -231.5h551v-146h-551q12 -188 95 -275t250 -87q132 0 279 64v-150q-162 -59 -313 -59q-236 0 -375.5 151t-139.5 407z" />
<glyph unicode="&#x3b6;" horiz-adv-x="1275" d="M42 1244v171q224 -117 485 -117l68 1q298 253 576 273l46 -132q-98 -97 -250.5 -167.5t-313.5 -93.5q-118 -161 -186 -342.5t-68 -334.5q0 -179 86 -255.5t286 -76.5h87q393 0 393 -270q0 -147 -122.5 -229.5t-341.5 -82.5q-47 0 -134 8v161q120 -23 195 -23 q246 0 246 150q0 116 -137 116h-218q-275 0 -410.5 121.5t-135.5 369.5q0 167 78.5 358.5t203.5 329.5q-53 -4 -76 -4q-169 0 -357 69z" />
<glyph unicode="&#x3b7;" horiz-adv-x="1248" d="M132 1064h216q26 -86 42 -202q172 226 374 226q156 0 229.5 -95.5t73.5 -297.5v-1082h-193v1058q0 235 -174 235q-171 0 -310 -211v-695h-193v738q0 178 -65 326z" />
<glyph unicode="&#x3b8;" horiz-adv-x="1232" d="M133 760q0 397 123.5 604.5t359.5 207.5t360.5 -206t124.5 -592q0 -387 -125 -592.5t-360 -205.5t-359 201t-124 583zM339 858h556q0 252 -77.5 410.5t-201.5 158.5q-122 0 -199.5 -158.5t-77.5 -410.5zM339 713q0 -271 75 -431.5t201 -160.5q125 0 202.5 164.5 t77.5 427.5h-556z" />
<glyph unicode="&#x3b9;" horiz-adv-x="737" d="M193 374v690h193v-671q0 -149 35 -210.5t119 -61.5q72 0 149 41v-145q-90 -41 -190 -41q-150 0 -233 93q-73 81 -73 305z" />
<glyph unicode="&#x3ba;" horiz-adv-x="1094" d="M193 0v1064h193v-521l100 123l93 116q138 173 217.5 227.5t188.5 54.5v-174q-22 3 -32 3q-51 0 -111 -50t-185 -200l-61 -72l438 -571h-233l-415 543v-543h-193z" />
<glyph unicode="&#x3bb;" horiz-adv-x="1192" d="M44 0l445 965l-98 226q-48 110 -100 148.5t-154 38.5h-28v169h36q189 0 270 -56.5t165 -250.5l349 -796q95 -216 197 -387l33 -57h-217q-100 166 -182 351l-181 409l-349 -760h-186z" />
<glyph unicode="&#x3bc;" horiz-adv-x="1268" d="M193 1064h193v-542q0 -129 18 -189t70 -107q70 -63 161 -63q76 0 128 45t113 164v692h193v-736q0 -210 60 -328h-213q-20 57 -36 170q-1 9 -4 29q-84 -223 -254 -223q-127 0 -236 141v-407h-193v1354z" />
<glyph unicode="&#x3bd;" horiz-adv-x="1101" d="M0 1064h204q41 -67 114 -231l89 -197q85 -190 157 -406l12 -39q266 485 266 722q0 90 -25 151h191q15 -50 15 -111q0 -154 -141 -463q-161 -352 -238 -490h-194q-76 240 -211 559.5t-239 504.5z" />
<glyph unicode="&#x3be;" horiz-adv-x="1160" d="M-11 1408v158q165 -78 418 -96l44 -4q177 106 366 106q67 0 139 -13l30 -93q-171 -125 -432 -125l-75 2q-66 -78 -66 -171q0 -136 114 -219t301 -83h128v-145h-133q-147 0 -217 -17t-142 -71q-124 -93 -124 -234q0 -111 79 -172t223 -61h97q200 0 293.5 -66t93.5 -206 q0 -142 -121.5 -225.5t-328.5 -83.5q-32 0 -88 4l-61 5v158q115 -22 203 -22q245 0 245 142q0 124 -220 124h-102q-264 0 -391 116q-128 115 -128 279q0 135 94 248.5t258 176.5q-119 46 -193 139t-74 196q0 88 72 188q-139 0 -302 65z" />
<glyph unicode="&#x3bf;" horiz-adv-x="1232" d="M109 532q0 257 136.5 406.5t370.5 149.5q236 0 372 -149.5t136 -406.5t-136.5 -406.5t-371.5 -149.5q-234 0 -370.5 149.5t-136.5 406.5zM315 532q0 -196 78.5 -303.5t222.5 -107.5t223.5 107.5t79.5 303.5t-79.5 303.5t-223.5 107.5t-222.5 -107.5t-78.5 -303.5z" />
<glyph unicode="&#x3c0;" horiz-adv-x="1566" d="M73 826v189q114 49 277 49h1144v-169h-254v-606q0 -165 74 -289h-204q-64 141 -64 297v598h-472v-895h-193v895h-41q-140 0 -267 -69z" />
<glyph unicode="&#x3c1;" horiz-adv-x="1245" d="M193 -387v796q0 377 148 538q130 141 339 141q203 0 317.5 -121.5t114.5 -337.5q0 -271 -153.5 -450t-388.5 -179q-88 0 -184 34v-421h-193zM386 221q92 -76 207 -76q140 0 233 128.5t93 322.5q0 156 -72.5 251.5t-190.5 95.5q-129 0 -199.5 -116.5t-70.5 -331.5v-274z " />
<glyph unicode="&#x3c2;" horiz-adv-x="1167" d="M109 459q0 269 198.5 449t496.5 180q116 0 205 -22v-150q-102 28 -212 28q-234 0 -361.5 -122t-127.5 -348q0 -160 84 -232t270 -72h69q387 0 387 -272q0 -143 -120 -226.5t-327 -83.5q-71 0 -146 13v150q93 -18 184 -18q258 0 258 148q0 119 -235 119h-98 q-150 0 -237.5 30.5t-164.5 107.5q-123 125 -123 321z" />
<glyph unicode="&#x3c3;" horiz-adv-x="1351" d="M109 532q0 255 136 405.5t368 150.5q65 0 162 -24h637v-169h-393q105 -167 105 -362q0 -258 -136 -407.5t-372 -149.5q-234 0 -370.5 149.5t-136.5 406.5zM315 532q0 -196 78.5 -303.5t222.5 -107.5t223.5 107.5t79.5 303.5t-79.5 303.5t-223.5 107.5t-222.5 -107.5 t-78.5 -303.5z" />
<glyph unicode="&#x3c4;" horiz-adv-x="1081" d="M39 846v179q104 39 259 39h745v-169h-411v-584q0 -192 78 -311h-205q-40 90 -53.5 172.5t-13.5 245.5v477h-154q-135 0 -245 -49z" />
<glyph unicode="&#x3c5;" horiz-adv-x="1221" d="M181 491v573h193v-532q0 -256 57 -328q64 -83 182 -83q134 0 217 110t83 287q0 121 -43 277t-108 269h198q116 -261 116 -544q0 -242 -130 -393t-337 -151q-193 0 -317 120q-65 64 -88 145t-23 250z" />
<glyph unicode="&#x3c6;" horiz-adv-x="1547" d="M109 530q0 227 154.5 362t413.5 135v520h193v-520q259 0 414 -135t155 -362q0 -226 -155 -362.5t-414 -136.5v-418h-193v418q-259 0 -413.5 136.5t-154.5 362.5zM302 529q0 -156 104.5 -253.5t270.5 -97.5v702q-184 -12 -279.5 -101.5t-95.5 -249.5zM870 178 q167 0 271.5 97.5t104.5 253.5q0 160 -96 249.5t-280 101.5v-702z" />
<glyph unicode="&#x3c7;" horiz-adv-x="1100" d="M7 -387l435 743l-197 352l-43 76l-68 112q-64 107 -112 168h224q86 -118 185 -295l54 -97l69 -122l302 514h167l-388 -661l241 -434l65 -107l67 -111q35 -57 90 -138h-223l-14 20q-125 195 -177 288l-162 289l-346 -597h-169z" />
<glyph unicode="&#x3c8;" horiz-adv-x="1583" d="M91 1064h195q53 -91 53 -268v-150q0 -180 30 -272.5t108 -150.5q105 -78 225 -78v1112h193v-1112q393 20 393 507q0 244 -78 412h193q78 -200 78 -448q0 -332 -216 -505q-119 -96 -370 -111v-387h-193v387l-23 2q-297 33 -418.5 175t-121.5 456v150q0 170 -48 281z" />
<glyph unicode="&#x3c9;" horiz-adv-x="1801" d="M109 505q0 136 46.5 292t119.5 267h201q-78 -112 -129.5 -265.5t-51.5 -275.5q0 -168 71 -279t179 -111q97 0 169 87.5t98 236.5q-46 120 -46 246q0 137 46 258h178q45 -121 45 -258q0 -126 -45 -246q25 -149 97 -236.5t169 -87.5q108 0 179.5 111.5t71.5 278.5 q0 122 -52 275.5t-130 265.5h201q73 -111 119.5 -267t46.5 -292q0 -234 -122.5 -381.5t-314.5 -147.5q-231 0 -354 305q-124 -305 -355 -305q-192 0 -314.5 147.5t-122.5 381.5z" />
<glyph unicode="&#x3ca;" horiz-adv-x="737" d="M12 1257v170h170v-170h-170zM193 374v690h193v-671q0 -149 35 -210.5t119 -61.5q72 0 149 41v-145q-90 -41 -190 -41q-150 0 -233 93q-73 81 -73 305zM399 1257v170h170v-170h-170z" />
<glyph unicode="&#x3cb;" horiz-adv-x="1221" d="M181 491v573h193v-532q0 -256 57 -328q64 -83 182 -83q134 0 217 110t83 287q0 121 -43 277t-108 269h198q116 -261 116 -544q0 -242 -130 -393t-337 -151q-193 0 -317 120q-65 64 -88 145t-23 250zM302 1257v170h170v-170h-170zM689 1257v170h170v-170h-170z" />
<glyph unicode="&#x3cc;" horiz-adv-x="1232" d="M109 532q0 257 136.5 406.5t370.5 149.5q236 0 372 -149.5t136 -406.5t-136.5 -406.5t-371.5 -149.5q-234 0 -370.5 149.5t-136.5 406.5zM315 532q0 -196 78.5 -303.5t222.5 -107.5t223.5 107.5t79.5 303.5t-79.5 303.5t-223.5 107.5t-222.5 -107.5t-78.5 -303.5z M519 1572h193l-23 -315h-145z" />
<glyph unicode="&#x3cd;" horiz-adv-x="1221" d="M181 491v573h193v-532q0 -256 57 -328q64 -83 182 -83q134 0 217 110t83 287q0 121 -43 277t-108 269h198q116 -261 116 -544q0 -242 -130 -393t-337 -151q-193 0 -317 120q-65 64 -88 145t-23 250zM501 1572h193l-23 -315h-145z" />
<glyph unicode="&#x3ce;" horiz-adv-x="1801" d="M109 505q0 136 46.5 292t119.5 267h201q-78 -112 -129.5 -265.5t-51.5 -275.5q0 -168 71 -279t179 -111q97 0 169 87.5t98 236.5q-46 120 -46 246q0 137 46 258h178q45 -121 45 -258q0 -126 -45 -246q25 -149 97 -236.5t169 -87.5q108 0 179.5 111.5t71.5 278.5 q0 122 -52 275.5t-130 265.5h201q73 -111 119.5 -267t46.5 -292q0 -234 -122.5 -381.5t-314.5 -147.5q-231 0 -354 305q-124 -305 -355 -305q-192 0 -314.5 147.5t-122.5 381.5zM803 1572h193l-23 -315h-145z" />
<glyph unicode="&#x3d0;" horiz-adv-x="1039" d="M109 706q0 368 154 617t383 249q130 0 210.5 -79t80.5 -205q0 -150 -113 -259.5t-267 -109.5q-121 0 -227 79q-36 -137 -36 -298q0 -82 14 -151q151 146 315 146q144 0 241 -94.5t97 -235.5q0 -160 -120.5 -274.5t-287.5 -114.5q-203 0 -323.5 198t-120.5 532zM330 403 q27 -127 99 -204.5t162 -77.5q73 0 128 67.5t55 157.5q0 86 -55 145.5t-134 59.5q-152 0 -255 -148zM358 1130q99 -66 191 -66q87 0 147 64t60 156q0 62 -40 102.5t-100 40.5q-76 0 -146.5 -81t-111.5 -216z" />
<glyph unicode="&#x3d1;" horiz-adv-x="1251" d="M109 1078q0 196 130 345t302 149q383 0 448 -689h202v-170h-202q0 -321 -133.5 -529t-338.5 -208q-231 0 -311 236l-29 88l-14 47q-15 45 -37 88h178q18 -41 35 -96l19 -65q44 -153 161 -153q118 0 189.5 151.5t71.5 400.5v40h-206q-253 0 -341 76q-124 107 -124 289z M278 1085q0 -89 52 -144q35 -35 89 -46.5t188 -11.5h173v28q0 231 -70 373.5t-183 142.5q-98 0 -173.5 -103.5t-75.5 -238.5z" />
<glyph unicode="&#x3d2;" horiz-adv-x="1276" d="M4 1450h279q100 -83 199 -233.5t160 -310.5q53 204 157 343q84 111 183.5 156t263.5 45h23v-145h-23l-84 1h-11l-195 -102q-103 -107 -164 -286q-75 -218 -75 -452v-466h-194v469q0 263 -108 484q-154 311 -411 497z" />
<glyph unicode="&#x3d3;" horiz-adv-x="1643" d="M11 1451h193l-23 -315h-145zM350 1450h279q100 -83 199 -233.5t160 -310.5q53 204 157 343q84 111 183.5 156t263.5 45h23v-145h-23l-84 1h-11q-97 0 -195 -102q-103 -107 -164 -286q-75 -218 -75 -452v-466h-194v469q0 263 -108 484q-154 311 -411 497z" />
<glyph unicode="&#x3d4;" horiz-adv-x="1276" d="M4 1450h279q100 -83 199 -233.5t160 -310.5q53 204 157 343q84 111 183.5 156t263.5 45h23v-145h-23l-84 1h-11q-97 0 -195 -102q-103 -107 -164 -286q-75 -218 -75 -452v-466h-194v469q0 263 -108 484q-154 311 -411 497zM364 1572v170h170v-170h-170zM751 1572v170h170 v-170h-170z" />
<glyph unicode="&#x3d5;" horiz-adv-x="1705" d="M97 620q0 198 120.5 333t296.5 135q254 0 339 -272q83 272 338 272q176 0 296.5 -135t120.5 -333q0 -225 -145 -395q-81 -94 -189 -143.5t-293 -76.5l-31 -5v-387h-194v387l-32 5q-185 27 -293 76.5t-189 143.5q-145 170 -145 395zM290 612q0 -103 44 -203t115 -159 q106 -89 307 -104v379q0 412 -236 412q-100 0 -165 -92t-65 -233zM950 146q201 15 306 104q72 59 115.5 159t43.5 203q0 141 -65 233t-165 92q-235 0 -235 -412v-379z" />
<glyph unicode="&#x3d6;" horiz-adv-x="1776" d="M18 874v153q114 37 285 37h1401v-145h-184q94 -206 94 -432q0 -219 -114 -365t-287 -146q-192 0 -314 222q-132 -222 -317 -222q-171 0 -286 148.5t-115 369.5q0 219 95 425h-33q-113 0 -225 -45zM374 516q0 -163 65.5 -267t168.5 -104q61 0 123 54.5t101 144.5 q-53 111 -53 215q0 101 47 215h142q47 -111 47 -209q0 -99 -48 -221q90 -193 231 -193q93 0 157.5 102t64.5 249q0 193 -96 417h-852q-98 -208 -98 -403z" />
<glyph unicode="&#x3da;" horiz-adv-x="1348" d="M109 572q0 393 245.5 654.5t614.5 261.5q150 0 294 -38v-157q-168 50 -303 50q-281 0 -466.5 -211.5t-185.5 -531.5q0 -226 130 -333q65 -54 134.5 -70t243.5 -16h90q217 0 317.5 -67t100.5 -212q0 -314 -504 -314l-42 1l-63 1l-32 1v149q95 -7 160 -7q311 0 311 151 q0 66 -60.5 91t-216.5 25h-91q-201 0 -293 20t-182 83q-202 142 -202 469z" />
<glyph unicode="&#x3dc;" horiz-adv-x="1076" d="M187 0v1450h811v-153h-605v-487h508v-151h-508v-659h-206z" />
<glyph unicode="&#x3de;" horiz-adv-x="1070" d="M97 635l301 815h156l-234 -628h727l-302 -822h-156l229 635h-721z" />
<glyph unicode="&#x3e0;" horiz-adv-x="1257" d="M0 1338v154q483 0 821.5 -342.5t338.5 -830.5q0 -171 -57 -356l-147 49q53 157 53 315q0 139 -46 297l-539 -368l-93 127l572 392q-71 131 -164 239l-576 -399l-90 126l547 382q-285 215 -620 215z" />
<glyph unicode="&#x3ee;" horiz-adv-x="1269" d="M24 1028v154h508v268h206v-268h508v-154h-508v-1028h-206v1028h-508z" />
<glyph unicode="&#x3ef;" horiz-adv-x="1100" d="M67 919v145h387v483h193v-483h387v-145h-387v-1306h-193v1306h-387z" />
<glyph unicode="&#x3f0;" horiz-adv-x="1094" d="M84 41q51 219 212 373q6 60 6 119q0 207 -37.5 284.5t-137.5 77.5q-18 0 -43 -6v176q76 23 122 23q126 0 182 -115t56 -373v-52q95 98 206 162q42 271 261 378l98 -72q-58 -214 -220 -368q-3 -39 -3 -91v-125q0 -262 167 -262q14 0 40 2l16 1v-172q-54 -25 -122 -25 q-246 0 -246 482l1 55q-90 -75 -198 -185q-31 -221 -254 -352z" />
<glyph unicode="&#x3f1;" horiz-adv-x="1209" d="M157 393q0 219 30 339.5t106 206.5q132 150 350 150q198 0 315.5 -121t117.5 -323q0 -248 -157 -416t-388 -168q-111 0 -207 44q9 -169 104.5 -246t297.5 -77h350v-169h-303q-340 0 -478 175t-138 605zM350 270q97 -64 203 -64q135 0 226 114.5t91 285.5q0 154 -70 245.5 t-188 91.5q-120 0 -191 -110.5t-71 -298.5v-264z" />
<glyph unicode="&#x3f2;" horiz-adv-x="1028" d="M109 538q0 260 140.5 405t392.5 145q124 0 278 -34v-162q-163 48 -267 48q-152 0 -245 -112t-93 -296q0 -178 95.5 -289.5t248.5 -111.5q133 0 273 68v-167q-187 -56 -323 -56q-216 0 -358 159.5t-142 402.5z" />
<glyph unicode="&#x401;" horiz-adv-x="1087" d="M187 0v1450h811v-153h-605v-466h507v-152h-507v-525h647v-154h-853zM335 1572v170h170v-170h-170zM722 1572v170h170v-170h-170z" />
<glyph unicode="&#x402;" d="M12 1297v153h1221v-153h-508v-489q172 129 357 129q190 0 315.5 -127.5t125.5 -321.5q0 -214 -132 -357t-329 -143q-58 0 -107 12v147q29 -8 67 -8q119 0 201 95t82 232q0 128 -76 211.5t-192 83.5q-154 0 -312 -140v-621h-206v1297h-507z" />
<glyph unicode="&#x403;" horiz-adv-x="1022" d="M187 0v1450h812v-153h-606v-1297h-206zM393 1572l236 315h224l-315 -315h-145z" />
<glyph unicode="&#x404;" horiz-adv-x="1209" d="M103 730q0 345 184 551t492 206q158 0 327 -56v-165q-191 70 -329 70q-185 0 -307 -134.5t-148 -367.5h548v-151h-548q0 -235 135 -396t333 -161q166 0 335 84v-190q-171 -56 -342 -56q-319 0 -499.5 203t-180.5 563z" />
<glyph unicode="&#x405;" horiz-adv-x="1080" d="M98 231q245 -113 404 -113q120 0 194 64t74 167q0 85 -48.5 145t-178.5 133l-100 58q-185 106 -261 199.5t-76 217.5q0 168 121.5 276.5t309.5 108.5q168 0 354 -56v-188q-229 90 -342 90q-107 0 -176.5 -57t-69.5 -143q0 -73 51 -128.5t186 -133.5l104 -59 q188 -106 262.5 -201.5t74.5 -228.5q0 -189 -139 -303.5t-370 -114.5q-147 0 -374 63v204z" />
<glyph unicode="&#x406;" horiz-adv-x="578" d="M186 0v1450h206v-1450h-206z" />
<glyph unicode="&#x407;" horiz-adv-x="578" d="M11 1572v170h170v-170h-170zM186 0v1450h206v-1450h-206zM398 1572v170h170v-170h-170z" />
<glyph unicode="&#x408;" horiz-adv-x="624" d="M-179 -87q117 -38 209 -38q116 0 162.5 67.5t46.5 233.5v1274h206v-1267q0 -473 -448 -473q-69 0 -176 20v183z" />
<glyph unicode="&#x409;" horiz-adv-x="1970" d="M30 181q211 30 277 225q68 203 68 952v92h846v-622h112q171 0 249.5 -14t150.5 -59q165 -105 165 -314q0 -241 -189 -360q-128 -81 -430 -81h-264v1299h-435v-32q0 -660 -74 -898q-57 -180 -166 -264.5t-310 -104.5v181zM1221 151h74q211 0 294 61q103 76 103 216 q0 132 -87.5 190.5t-282.5 58.5h-101v-526z" />
<glyph unicode="&#x40a;" horiz-adv-x="1941" d="M187 0v1450h206v-611h593v611h206v-622h110q173 0 251.5 -14t148.5 -59q167 -106 167 -313q0 -242 -189 -361q-130 -81 -430 -81h-264v685h-593v-685h-206zM1192 151h73q212 0 294 61q104 76 104 216q0 132 -87.5 190.5t-282.5 58.5h-101v-526z" />
<glyph unicode="&#x40b;" horiz-adv-x="1529" d="M19 1297v153h1076v-153h-435v-479q160 138 375 138q194 0 311 -118q61 -62 83 -137.5t22 -220.5v-480h-205v475q0 169 -58 240t-196 71q-188 0 -332 -151v-635h-206v1297h-435z" />
<glyph unicode="&#x40c;" horiz-adv-x="1189" d="M187 0v1450h206v-626h10q81 0 122 40t143 213l62 106l51 90q58 99 116.5 138.5t147.5 39.5l25 -1v-151q-11 1 -16 1q-76 0 -158 -148l-38 -69l-31 -53q-74 -133 -114.5 -183t-101.5 -88q105 -36 164.5 -102t147.5 -246l50 -101l55 -115q52 -111 101 -195h-218l-15 30 l-64 129l-82 168q-127 257 -257 344h-100v-671h-206zM465 1572l236 315h224l-315 -315h-145z" />
<glyph unicode="&#x40e;" horiz-adv-x="1287" d="M73 1450h230l389 -770l421 770h192l-595 -1089q-120 -221 -225 -291t-313 -70h-38v170h40q145 0 217.5 45.5t149.5 186.5l31 59zM356 1862h121q31 -145 205 -145q175 0 206 145h121q-15 -131 -104 -210.5t-223 -79.5q-133 0 -221.5 79t-104.5 211z" />
<glyph unicode="&#x40f;" horiz-adv-x="1475" d="M187 0v1450h206v-1296h690v1296h206v-1450h-455v-315h-193v315h-454z" />
<glyph unicode="&#x410;" horiz-adv-x="1384" d="M17 0l575 1450h204l566 -1450h-222l-158 402h-614l-160 -402h-191zM427 555h495l-247 625z" />
<glyph unicode="&#x411;" horiz-adv-x="1167" d="M187 0v1450h811v-153h-605v-469h111q172 0 250.5 -14t149.5 -59q166 -106 166 -313q0 -242 -189 -361q-129 -81 -430 -81h-264zM393 151h73q211 0 294 61q104 76 104 216q0 132 -87.5 190.5t-282.5 58.5h-101v-526z" />
<glyph unicode="&#x412;" horiz-adv-x="1154" d="M187 0v1450h377q217 0 333 -82t116 -237q0 -126 -77.5 -224t-220.5 -151q356 -109 356 -393q0 -128 -78 -227q-60 -75 -144.5 -105.5t-234.5 -30.5h-427zM391 813h66q165 0 255.5 71t90.5 201q0 212 -332 212h-80v-484zM391 154h42q227 0 293 28q128 54 128 200 q0 130 -116 215.5t-289 85.5h-58v-529z" />
<glyph unicode="&#x413;" horiz-adv-x="1022" d="M187 0v1450h812v-153h-606v-1297h-206z" />
<glyph unicode="&#x414;" horiz-adv-x="1529" d="M73 181h114q162 259 226 511.5t64 623.5v134h792v-1269h200v-496h-200v315h-997v-315h-199v496zM423 181h641v1118h-381v-23q0 -642 -260 -1095z" />
<glyph unicode="&#x415;" horiz-adv-x="1087" d="M187 0v1450h811v-153h-605v-466h507v-152h-507v-525h647v-154h-853z" />
<glyph unicode="&#x416;" horiz-adv-x="1639" d="M55 0l21 49q59 132 107 250l46 110q73 176 133.5 248.5t163.5 104.5q-54 32 -88 79.5t-99 180.5l-36 77q-62 126 -97 163t-93 37v151l20 1q101 0 169 -62t152 -230l30 -62l39 -80q59 -117 96 -153t104 -39v625h194v-625q69 8 108 45t92 147q27 53 39 80l31 62 q83 168 151 230t169 62l21 -1v-151q-58 0 -93.5 -37t-96.5 -163l-37 -77q-64 -133 -98.5 -180.5t-88.5 -79.5q103 -32 164 -104.5t133 -248.5l45 -110l108 -250l22 -49h-212q-17 38 -58 145q-101 267 -173 400q-35 63 -62.5 88t-90.5 50h-73v-683h-194v683h-84 q-90 -45 -141 -138q-70 -128 -175 -400q-41 -109 -56 -145h-212z" />
<glyph unicode="&#x417;" horiz-adv-x="1084" d="M64 206q228 -84 394 -84q149 0 237.5 74t88.5 198q0 149 -116.5 227t-341.5 78h-30v145h28q201 0 312 73t111 206q0 212 -299 212q-156 0 -360 -76v167q187 61 372 61q238 0 368 -91t130 -257q0 -258 -315 -351q169 -28 264 -127t95 -248q0 -192 -155 -320.5t-385 -128.5 q-206 0 -398 60v182z" />
<glyph unicode="&#x418;" horiz-adv-x="1486" d="M187 0v1450h206v-1154l701 1154h205v-1450h-205v1154l-701 -1154h-206z" />
<glyph unicode="&#x419;" horiz-adv-x="1486" d="M187 0v1450h206v-1154l701 1154h205v-1450h-205v1154l-701 -1154h-206zM406 1862h121q31 -145 205 -145q175 0 206 145h121q-15 -131 -104 -210.5t-223 -79.5q-133 0 -221.5 79t-104.5 211z" />
<glyph unicode="&#x41a;" horiz-adv-x="1189" d="M187 0v1450h206v-626h10q81 0 122 40t143 213l62 106l51 90q58 99 116.5 138.5t147.5 39.5l25 -1v-151q-11 1 -16 1q-76 0 -158 -148l-38 -69l-31 -53q-74 -133 -114.5 -183t-101.5 -88q105 -36 164.5 -102t147.5 -246l50 -101l55 -115q52 -111 101 -195h-218l-15 30 l-64 129l-82 168q-127 257 -257 344h-100v-671h-206z" />
<glyph unicode="&#x41b;" horiz-adv-x="1408" d="M30 0v181q211 30 277 225q68 203 68 952v92h846v-1450h-206v1299h-435v-32q0 -660 -74 -898q-57 -180 -166 -264.5t-310 -104.5z" />
<glyph unicode="&#x41c;" horiz-adv-x="1728" d="M187 0v1450h283l404 -1122l414 1122h255v-1450h-193l-2 1180l-399 -1083h-195l-390 1086v-1183h-177z" />
<glyph unicode="&#x41d;" horiz-adv-x="1474" d="M187 0v1450h206v-611h690v611h206v-1450h-206v685h-690v-685h-206z" />
<glyph unicode="&#x41e;" horiz-adv-x="1559" d="M102 725q0 347 184.5 554.5t493.5 207.5t493.5 -207.5t184.5 -554.5t-184.5 -554t-493.5 -207t-493.5 207t-184.5 554zM320 727q0 -287 122 -448t338 -161q217 0 338.5 161t121.5 448q0 285 -121.5 445.5t-338.5 160.5q-216 0 -338 -160.5t-122 -445.5z" />
<glyph unicode="&#x41f;" horiz-adv-x="1474" d="M187 0v1450h1102v-1450h-206v1297h-690v-1297h-206z" />
<glyph unicode="&#x420;" horiz-adv-x="1109" d="M187 0v1450h395q171 0 263.5 -27.5t151.5 -98.5q77 -93 77 -254q0 -231 -157 -362.5t-435 -131.5h-91v-576h-204zM391 732h83q184 0 284 84.5t100 238.5q0 130 -79 186t-262 56h-126v-565z" />
<glyph unicode="&#x421;" horiz-adv-x="1388" d="M102 724q0 364 187.5 563.5t529.5 199.5q194 0 456 -64v-193q-298 103 -460 103q-236 0 -365.5 -160t-129.5 -451q0 -278 138.5 -438t378.5 -160q205 0 440 127v-177q-215 -110 -469 -110q-338 0 -522 198t-184 562z" />
<glyph unicode="&#x422;" horiz-adv-x="1269" d="M18 1297v153h1234v-153h-514v-1297h-206v1297h-514z" />
<glyph unicode="&#x423;" horiz-adv-x="1287" d="M73 1450h230l389 -770l421 770h192l-595 -1089q-120 -221 -225 -291t-313 -70h-38v170h40q145 0 217.5 45.5t149.5 186.5l31 59z" />
<glyph unicode="&#x424;" horiz-adv-x="1390" d="M61 720q0 218 154 365t384 147v218h193v-218q229 0 383.5 -147t154.5 -365q0 -205 -154.5 -353.5t-367.5 -148.5h-16v-218h-193v218h-19q-211 0 -365 149t-154 353zM267 715q0 -151 93 -249t239 -98v714q-159 -11 -245.5 -106.5t-86.5 -260.5zM792 1082v-714 q146 0 239.5 98t93.5 249q0 165 -86.5 260.5t-246.5 106.5z" />
<glyph unicode="&#x425;" horiz-adv-x="1256" d="M16 0l481 728l-458 722h243l349 -546l367 546h194l-464 -700l475 -750h-243l-368 575l-381 -575h-195z" />
<glyph unicode="&#x426;" horiz-adv-x="1542" d="M187 0v1450h206v-1269h690v1269h206v-1269h193v-496h-193v315h-1102z" />
<glyph unicode="&#x427;" horiz-adv-x="1263" d="M78 970v480h206v-474q0 -174 60.5 -243t215.5 -69q170 0 310 88v698h206v-1450h-206v584q-158 -88 -363 -88q-208 0 -324 117q-61 62 -83 137.5t-22 219.5z" />
<glyph unicode="&#x428;" horiz-adv-x="1910" d="M187 0v1450h206v-1269h460v1269h204v-1269h460v1269h206v-1450h-1536z" />
<glyph unicode="&#x429;" horiz-adv-x="1976" d="M187 0v1450h206v-1269h460v1269h204v-1269h460v1269h206v-1269h193v-496h-193v315h-1536z" />
<glyph unicode="&#x42a;" horiz-adv-x="1360" d="M19 1297v153h593v-622h110q173 0 251 -14t149 -59q166 -105 166 -314q0 -241 -189 -360q-129 -81 -430 -81h-263v1297h-387zM612 151h72q212 0 295 61q104 76 104 216q0 132 -88 190.5t-284 58.5h-99v-526z" />
<glyph unicode="&#x42b;" horiz-adv-x="1614" d="M187 0v1450h206v-622h111q172 0 250.5 -14t149.5 -59q166 -106 166 -313q0 -242 -189 -361q-129 -81 -430 -81h-264zM393 151h73q211 0 294 61q104 76 104 216q0 132 -87.5 190.5t-282.5 58.5h-101v-526zM1221 0v1450h206v-1450h-206z" />
<glyph unicode="&#x42c;" horiz-adv-x="1142" d="M187 0v1450h206v-622h111q172 0 250.5 -14t149.5 -59q166 -106 166 -313q0 -242 -189 -361q-129 -81 -430 -81h-264zM393 151h73q211 0 294 61q104 76 104 216q0 132 -87.5 190.5t-282.5 58.5h-101v-526z" />
<glyph unicode="&#x42d;" horiz-adv-x="1209" d="M84 20v189q191 -76 337 -76q205 0 327 144t139 406h-549v151h549q0 222 -125 362t-324 140q-161 0 -335 -87v163q159 75 356 75q301 0 456 -168q88 -93 139.5 -246.5t51.5 -318.5q0 -377 -220 -609q-172 -181 -464 -181q-149 0 -338 56z" />
<glyph unicode="&#x42e;" horiz-adv-x="1937" d="M187 1450h206v-647h229q23 326 180 505t422 179q280 0 442.5 -204.5t162.5 -557.5t-162.5 -557t-442.5 -204q-264 0 -424 182.5t-178 502.5h-229v-649h-206v1450zM838 725q0 -286 102.5 -448t283.5 -162q182 0 284.5 162t102.5 448t-102.5 448.5t-284.5 162.5 q-181 0 -283.5 -162.5t-102.5 -448.5z" />
<glyph unicode="&#x42f;" horiz-adv-x="1244" d="M24 0q84 97 162 220l42 66l27 40l58 89q112 171 223 240q-152 30 -247.5 140t-95.5 254q0 189 140 310q61 53 145.5 72t249.5 19h329v-1450h-205v616h-132q-138 -138 -332 -457l-71 -118l-26 -41h-267zM411 1044q0 -138 93.5 -207.5t277.5 -69.5h70v532h-122 q-162 0 -231 -58q-88 -76 -88 -197z" />
<glyph unicode="&#x430;" horiz-adv-x="1108" d="M101 268q0 174 146.5 267.5t420.5 93.5h45v129q0 185 -193 185q-150 0 -327 -94v159q195 80 368 80q177 0 261 -81t84 -249v-483q0 -165 102 -165q13 0 38 4l13 -107q-65 -31 -145 -31q-135 0 -172 159q-174 -159 -334 -159q-133 0 -220 82.5t-87 209.5zM294 299 q0 -70 49 -118t120 -48q120 0 250 107v275l-61 2q-161 0 -259.5 -59.5t-98.5 -158.5z" />
<glyph unicode="&#x431;" horiz-adv-x="1196" d="M109 691q0 450 135.5 653t435.5 203h41q144 0 259 52v-155q-91 -42 -236 -42h-24q-213 0 -304 -124t-114 -448q149 234 389 234q182 0 293.5 -143.5t111.5 -379.5q0 -254 -137.5 -409.5t-360.5 -155.5q-489 0 -489 715zM303 662q0 -541 306 -541q129 0 205 110.5 t76 297.5q0 360 -252 360q-177 0 -334 -193z" />
<glyph unicode="&#x432;" horiz-adv-x="1053" d="M193 0v1064h371q161 0 249 -60t88 -171q0 -195 -204 -277q247 -80 247 -287q0 -127 -91.5 -198t-250.5 -71h-409zM385 145h81q163 0 219 29t56 112q0 89 -73 144.5t-192 55.5h-91v-341zM385 613h97q221 0 221 180q0 126 -209 126h-109v-306z" />
<glyph unicode="&#x433;" horiz-adv-x="991" d="M193 0v1064h774v-169h-581v-895h-193z" />
<glyph unicode="&#x434;" horiz-adv-x="1348" d="M73 170h99q112 142 160.5 330t48.5 480v84h689v-894h193v-412h-193v242h-804v-242h-193v412zM401 170h475v749h-302v-23q0 -229 -41 -401t-132 -325z" />
<glyph unicode="&#x435;" horiz-adv-x="1118" d="M109 537q0 242 130.5 397t334.5 155q193 0 298.5 -138t105.5 -390l-1 -59h-671q42 -380 371 -380q121 0 296 65v-153q-194 -58 -332 -58q-236 0 -384 156t-148 405zM315 647h469q0 297 -221 297q-223 0 -248 -297z" />
<glyph unicode="&#x436;" horiz-adv-x="1460" d="M48 0q44 71 80 141q38 75 44 85l51 96l40 75q57 105 167 142q-77 45 -137 171l-20 42l-22 52q-28 65 -49.5 86.5t-64.5 28.5v145h11q85 0 135 -46t109 -177l23 -52q48 -107 83 -145t86 -38l49 -1v459h194v-459l49 1q51 0 86 37.5t83 145.5l23 52q60 132 109 177.5 t135 45.5h10v-145q-43 -7 -64 -28.5t-49 -86.5q-15 -38 -22 -52l-20 -42q-60 -126 -138 -171q111 -37 169 -142l38 -75l53 -96q6 -10 43 -85q36 -70 80 -141h-209l-13 26l-45 87l-62 114q-70 118 -73 124q-48 92 -94 120h-89v-471h-194v471h-89q-46 -28 -94 -120 q-3 -6 -73 -124l-62 -114l-45 -87l-14 -26h-208z" />
<glyph unicode="&#x437;" horiz-adv-x="964" d="M84 22v162q153 -59 315 -59q113 0 183 51.5t70 134.5q0 194 -310 194h-25v127h32q275 0 275 155q0 154 -247 154q-123 0 -274 -54v156q140 45 309 45q193 0 301 -68.5t108 -191.5q0 -154 -195 -258q229 -69 229 -260q0 -144 -132 -239t-331 -95q-129 0 -308 46z" />
<glyph unicode="&#x438;" horiz-adv-x="1257" d="M193 0v1064h181v-805l496 805h193v-1064h-181v806l-495 -806h-194z" />
<glyph unicode="&#x439;" horiz-adv-x="1257" d="M193 0v1064h181v-805l496 805h193v-1064h-181v806l-495 -806h-194zM340 1547h121q31 -145 205 -145q175 0 206 145h121q-15 -131 -104 -210.5t-223 -79.5q-133 0 -221.5 79t-104.5 211z" />
<glyph unicode="&#x43a;" horiz-adv-x="1078" d="M193 0v1064h193v-465l18 1q70 4 101.5 26.5t67.5 91.5l34 65l21 45q72 149 127 192.5t176 43.5v-145q-58 0 -86.5 -27t-75.5 -125l-18 -39l-25 -54q-43 -89 -140 -139q79 -27 121.5 -72.5t111.5 -178.5l39 -74q66 -126 123 -210h-214l-61 117l-53 93q-102 183 -170 244 h-97v-454h-193z" />
<glyph unicode="&#x43b;" horiz-adv-x="1178" d="M36 0v170q75 3 117.5 47.5t73.5 150.5q69 228 69 591v105h689v-1064h-193v919h-309v-18q0 -444 -108 -676q-105 -225 -339 -225z" />
<glyph unicode="&#x43c;" horiz-adv-x="1457" d="M193 0v1064h211l321 -832l314 832h224v-1064h-197l1 808l-276 -735h-186l-261 666v-739h-151z" />
<glyph unicode="&#x43d;" horiz-adv-x="1257" d="M193 0v1064h193v-432h484v432h193v-1064h-193v487h-484v-487h-193z" />
<glyph unicode="&#x43e;" horiz-adv-x="1232" d="M109 532q0 257 136.5 406.5t370.5 149.5q235 0 371.5 -149.5t136.5 -406.5t-136.5 -406.5t-371.5 -149.5q-234 0 -370.5 149.5t-136.5 406.5zM315 532q0 -196 78.5 -303.5t222.5 -107.5t223.5 107.5t79.5 303.5t-79.5 303.5t-223.5 107.5t-222.5 -107.5t-78.5 -303.5z " />
<glyph unicode="&#x43f;" horiz-adv-x="1257" d="M193 0v1064h870v-1064h-193v895h-484v-895h-193z" />
<glyph unicode="&#x440;" horiz-adv-x="1263" d="M193 -387v1451h193v-200q119 224 356 224q192 0 302 -140t110 -384q0 -264 -124.5 -426t-328.5 -162q-189 0 -315 145v-508h-193zM386 254q149 -133 284 -133q134 0 206.5 111t72.5 313q0 374 -247 374q-162 0 -316 -175v-490z" />
<glyph unicode="&#x441;" horiz-adv-x="1028" d="M109 538q0 260 140.5 405t392.5 145q124 0 278 -34v-162q-163 48 -266 48q-149 0 -238.5 -111.5t-89.5 -296.5q0 -179 92.5 -290t241.5 -111q132 0 272 68v-167q-187 -56 -323 -56q-216 0 -358 159.5t-142 402.5z" />
<glyph unicode="&#x442;" horiz-adv-x="991" d="M12 895v169h967v-169h-387v-895h-193v895h-387z" />
<glyph unicode="&#x443;" horiz-adv-x="1055" d="M12 1064h186l340 -771l305 771h194l-409 -1040q-105 -265 -198 -338t-328 -73h-23v169h28q148 0 206 45t124 207l12 32z" />
<glyph unicode="&#x444;" horiz-adv-x="1619" d="M121 524q0 240 109 402.5t272 162.5q140 0 211 -97v458h193v-458q72 97 211 97q163 0 272 -162.5t109 -402.5q0 -234 -109 -391t-272 -157q-119 0 -211 97v-460h-193v460q-92 -97 -210 -97q-164 0 -273 157t-109 391zM314 528q0 -177 69.5 -286t181.5 -109q64 0 148 45 v706q-80 47 -151 47q-111 0 -179.5 -111.5t-68.5 -291.5zM906 178q85 -45 148 -45q113 0 182 109t69 286q0 180 -68.5 291.5t-178.5 111.5q-72 0 -152 -47v-706z" />
<glyph unicode="&#x445;" horiz-adv-x="1230" d="M86 0l405 550l-393 514h229l311 -409l281 409h188l-368 -540l401 -524h-230l-320 421l-310 -421h-194z" />
<glyph unicode="&#x446;" horiz-adv-x="1341" d="M193 0v1064h193v-894h484v894h193v-894h194v-412h-194v242h-870z" />
<glyph unicode="&#x447;" horiz-adv-x="1051" d="M78 823v241h193v-278q0 -160 42.5 -218t156.5 -58q108 0 194 49v505h194v-1064h-194v416q-114 -48 -231 -48q-200 0 -277.5 99.5t-77.5 355.5z" />
<glyph unicode="&#x448;" horiz-adv-x="1692" d="M193 0v1064h193v-894h364v894h193v-894h362v894h193v-1064h-1305z" />
<glyph unicode="&#x449;" horiz-adv-x="1777" d="M193 0v1064h193v-894h364v894h193v-894h362v894h193v-894h194v-412h-194v242h-1305z" />
<glyph unicode="&#x44a;" horiz-adv-x="1125" d="M19 919v145h483v-429h93q440 0 440 -310q0 -325 -469 -325h-257v919h-290zM502 145h77q250 0 250 179q0 91 -56.5 128.5t-190.5 37.5h-80v-345z" />
<glyph unicode="&#x44b;" horiz-adv-x="1451" d="M193 0v1064h193v-429h93q440 0 440 -310q0 -325 -468 -325h-258zM386 145h78q249 0 249 179q0 91 -56 128.5t-191 37.5h-80v-345zM1063 0v1064h194v-1064h-194z" />
<glyph unicode="&#x44c;" horiz-adv-x="1016" d="M200 0v1064h193v-429h93q440 0 440 -310q0 -325 -468 -325h-258zM393 145h77q250 0 250 179q0 91 -56 128.5t-191 37.5h-80v-345z" />
<glyph unicode="&#x44d;" horiz-adv-x="1021" d="M84 27v174q140 -68 306 -68q269 0 321 338h-373v145h373q0 152 -82.5 239.5t-226.5 87.5q-126 0 -281 -75v165q143 56 305 56q231 0 358.5 -141t127.5 -395q0 -262 -144 -419.5t-382 -157.5q-145 0 -302 51z" />
<glyph unicode="&#x44e;" horiz-adv-x="1633" d="M193 0v1064h193v-459h199q19 225 144 354t324 129q215 0 343.5 -151t128.5 -405q0 -255 -128.5 -405.5t-343.5 -150.5q-200 0 -323.5 127.5t-144.5 356.5h-199v-460h-193zM787 532q0 -198 69 -304.5t197 -106.5t197 107t69 304t-69 304t-197 107t-197 -107t-69 -304z" />
<glyph unicode="&#x44f;" horiz-adv-x="1024" d="M36 0q69 104 124 208l25 48q92 175 181 226q-100 36 -159.5 114.5t-59.5 174.5q0 174 164 252q83 41 306 41h214v-1064h-194v429h-110q-68 -67 -143 -196l-62 -108l-69 -125h-217zM353 751q0 -177 241 -177h43v345h-54q-230 0 -230 -168z" />
<glyph unicode="&#x451;" horiz-adv-x="1118" d="M109 537q0 242 130.5 397t334.5 155q193 0 298.5 -138t105.5 -390l-1 -59h-671q42 -380 371 -380q121 0 296 65v-153q-194 -58 -332 -58q-236 0 -384 156t-148 405zM302 1257v170h170v-170h-170zM315 647h469q0 297 -221 297q-223 0 -248 -297zM689 1257v170h170v-170 h-170z" />
<glyph unicode="&#x452;" horiz-adv-x="1245" d="M0 1112v122h193v313h193v-313h367v-122h-367v-416q153 223 374 223q140 0 221.5 -87.5t81.5 -236.5v-685q0 -151 -82.5 -236.5t-231.5 -85.5q-72 0 -145 21v151q61 -27 123 -27q78 0 110.5 49t32.5 164v586q0 120 -34.5 170.5t-115.5 50.5q-177 0 -334 -233v-520h-193 v1112h-193z" />
<glyph unicode="&#x453;" horiz-adv-x="991" d="M193 0v1064h774v-169h-581v-895h-193zM386 1257l236 315h224l-315 -315h-145z" />
<glyph unicode="&#x454;" horiz-adv-x="1021" d="M109 534q0 265 139 410t395 145q136 0 282 -36v-158q-177 48 -299 48q-136 0 -219 -82.5t-94 -231.5h370v-146h-370q12 -188 95 -275t250 -87q132 0 279 64v-150q-162 -59 -313 -59q-236 0 -375.5 151t-139.5 407z" />
<glyph unicode="&#x455;" horiz-adv-x="1023" d="M154 37v178q189 -94 329 -94q83 0 138 45t55 112q0 99 -154 164l-112 48q-250 104 -250 299q0 139 98.5 219t269.5 80q89 0 221 -25l40 -8v-160q-162 48 -258 48q-84 0 -134.5 -37t-50.5 -98q0 -88 141 -147l93 -40q158 -66 223.5 -140t65.5 -185q0 -140 -110.5 -230 t-283.5 -90q-132 0 -321 61z" />
<glyph unicode="&#x456;" horiz-adv-x="580" d="M193 0v1064h193v-1064h-193zM193 1257v193h193v-193h-193z" />
<glyph unicode="&#x457;" horiz-adv-x="580" d="M12 1257v170h170v-170h-170zM193 0v1064h193v-1064h-193zM399 1257v170h170v-170h-170z" />
<glyph unicode="&#x458;" horiz-adv-x="610" d="M-150 -362v153q135 -57 206 -57q80 0 124 44q30 29 37 66t7 156v1064h194v-1064q0 -411 -346 -411q-103 0 -222 49zM224 1257v193h194v-193h-194z" />
<glyph unicode="&#x459;" horiz-adv-x="1608" d="M36 0v170q75 3 117.5 47.5t73.5 150.5q69 228 69 591v105h689v-429h93q440 0 440 -310q0 -325 -468 -325h-258v919h-309v-18q0 -444 -108 -676q-105 -225 -339 -225zM985 145h77q250 0 250 179q0 91 -56 128.5t-191 37.5h-80v-345z" />
<glyph unicode="&#x45a;" horiz-adv-x="1686" d="M193 0v1064h194v-429h483v429h193v-429h93q439 0 439 -310q0 -325 -468 -325h-257v490h-483v-490h-194zM1063 145h78q249 0 249 179q0 91 -56 128.5t-190 37.5h-81v-345z" />
<glyph unicode="&#x45b;" horiz-adv-x="1245" d="M0 1112v122h193v289h193v-289h367v-122h-367v-416q153 223 374 223q140 0 221.5 -87.5t81.5 -235.5v-596h-193v532q0 120 -34.5 170.5t-115.5 50.5q-177 0 -334 -233v-520h-193v1112h-193z" />
<glyph unicode="&#x45c;" horiz-adv-x="1078" d="M193 0v1064h193v-465l18 1q70 4 101.5 26.5t67.5 91.5l34 65l21 45q72 149 127 192.5t176 43.5v-145q-58 0 -86.5 -27t-75.5 -125l-18 -39l-25 -54q-43 -89 -140 -139q79 -27 121.5 -72.5t111.5 -178.5l39 -74q66 -126 123 -210h-214l-61 117l-53 93q-102 183 -170 244 h-97v-454h-193zM411 1257l236 315h224l-315 -315h-145z" />
<glyph unicode="&#x45e;" horiz-adv-x="1055" d="M12 1064h186l340 -771l305 771h194l-409 -1040q-105 -265 -198 -338t-328 -73h-23v169h28q148 0 206 45t124 207l12 32zM194 1547h121q31 -145 205 -145q175 0 206 145h121q-15 -131 -104 -210.5t-223 -79.5q-133 0 -221.5 79t-104.5 211z" />
<glyph unicode="&#x45f;" horiz-adv-x="1257" d="M193 0v1064h193v-894h484v894h193v-1064h-338v-242h-194v242h-338z" />
<glyph unicode="&#x462;" horiz-adv-x="1318" d="M0 1106v151h363v193h205v-193h388v-151h-388v-278h111q173 0 251 -14t149 -59q167 -106 167 -313q0 -242 -190 -361q-129 -81 -430 -81h-263v1106h-363zM568 151h74q212 0 294 61q104 76 104 216q0 132 -88 190.5t-283 58.5h-101v-526z" />
<glyph unicode="&#x463;" horiz-adv-x="1106" d="M24 943v121h266v483h193v-483h315v-121h-315v-308h93q440 0 440 -310q0 -325 -468 -325h-258v943h-266zM483 145h78q249 0 249 176q0 162 -246 162h-81v-338z" />
<glyph unicode="&#x46a;" horiz-adv-x="1616" d="M55 0l21 49q59 132 107 250l46 110q81 197 154 271.5t201 92.5l-447 526v151h1343v-151l-448 -526q129 -18 201.5 -92.5t154.5 -271.5l45 -110q48 -118 107 -250l21 -49h-211q-16 37 -57 145q-103 271 -175 400q-51 93 -141 138h-72v-683h-194v683h-72q-90 -45 -141 -138 q-70 -128 -175 -400q-41 -109 -56 -145h-212zM336 1299l430 -507h84l431 507h-945z" />
<glyph unicode="&#x46b;" horiz-adv-x="1407" d="M50 0q44 71 80 141l43 85l52 96l40 75q57 105 167 142l63 15l-366 365v145h1146v-145l-366 -365q170 -27 242 -157l39 -75l53 -96q6 -10 43 -85q36 -70 80 -141h-209l-13 26l-45 87l-62 114q-70 118 -73 124q-48 92 -94 120h-65v-471h-193v471h-66q-46 -28 -94 -120 q-3 -6 -73 -124l-62 -114l-45 -87l-14 -26h-208zM377 919l338 -338h25l337 338h-700z" />
<glyph unicode="&#x490;" horiz-adv-x="1022" d="M187 0v1450h618v291h194v-444h-606v-1297h-206z" />
<glyph unicode="&#x491;" horiz-adv-x="991" d="M193 0v1064h580v241h194v-410h-581v-895h-193z" />
<glyph unicode="&#x492;" horiz-adv-x="1130" d="M24 659v150h218v641h811v-153h-605v-488h362v-150h-362v-659h-206v659h-218z" />
<glyph unicode="&#x493;" horiz-adv-x="991" d="M48 448v120h145v496h774v-169h-581v-327h339v-120h-339v-448h-193v448h-145z" />
<glyph unicode="&#x494;" horiz-adv-x="1257" d="M187 0v1450h725v-153h-519v-512q163 110 331 110q208 0 334.5 -148.5t126.5 -393.5q0 -277 -151.5 -460t-379.5 -183q-44 0 -92 16v155q50 -20 97 -20q137 0 222.5 124t85.5 323q0 196 -73.5 306.5t-202.5 110.5q-140 0 -298 -127v-598h-206z" />
<glyph unicode="&#x495;" horiz-adv-x="1094" d="M193 0v1064h659v-145h-466v-338q129 79 248 79q161 0 262.5 -127.5t101.5 -329.5q0 -219 -117 -356t-302 -137q-24 0 -60 4v143l20 -1q14 -1 25 -1q98 0 163 96t65 244q0 130 -55 209.5t-144 79.5q-93 0 -207 -73v-411h-193z" />
<glyph unicode="&#x496;" horiz-adv-x="1752" d="M55 0l21 49q59 132 107 250l46 110q73 176 133.5 248.5t163.5 104.5q-54 32 -88 79.5t-99 180.5l-36 77q-62 126 -97 163t-93 37v151l20 1q101 0 169 -62t152 -230l30 -62l39 -80q59 -117 96 -153t104 -39v625h194v-625q69 8 108 45t92 147q27 53 39 80l31 62 q83 168 151 230t169 62l21 -1v-151q-58 0 -93.5 -37t-96.5 -163l-37 -77q-64 -133 -98.5 -180.5t-88.5 -79.5q103 -32 164 -104.5t133 -248.5l45 -110q39 -95 46 -111l8 -18h194v-460h-194v290h-136q-17 37 -58 145q-103 271 -173 400q-51 93 -141 138h-85v-683h-194v683 h-84q-90 -45 -141 -138q-70 -128 -175 -400q-41 -109 -56 -145h-212z" />
<glyph unicode="&#x497;" horiz-adv-x="1571" d="M48 0q44 71 80 141q38 75 44 85l51 96l40 75q57 105 167 142q-77 45 -137 171l-20 42l-22 52q-28 65 -49.5 86.5t-64.5 28.5v145h11q85 0 135 -46t109 -177l23 -52q48 -107 83 -145t86 -38l49 -1v459h194v-459l49 1q51 0 86 37.5t83 145.5l23 52q60 132 109 177.5 t135 45.5h10v-145q-43 -7 -64 -28.5t-49 -86.5q-15 -38 -22 -52l-20 -42q-60 -126 -138 -171q111 -37 169 -142l38 -75l53 -96l29 -56h193v-412h-193v242h-115l-13 26l-45 87l-62 114q-70 118 -73 124q-48 92 -94 120h-89v-471h-194v471h-89q-46 -28 -94 -120 q-3 -6 -73 -124l-62 -114l-45 -87l-14 -26h-208z" />
<glyph unicode="&#x498;" horiz-adv-x="1084" d="M64 24v182q228 -84 394 -84q149 0 237.5 74t88.5 198q0 149 -116.5 227t-341.5 78h-30v145h28q201 0 312 73t111 206q0 212 -299 212q-156 0 -360 -76v167q187 61 372 61q238 0 368 -91t130 -257q0 -258 -315 -351q169 -28 264 -127t95 -248q0 -192 -155 -320.5 t-385 -128.5q-206 0 -398 60zM305 -323q45 -15 103 -15q101 0 101 72q0 94 -184 94l93 172h96l-59 -107q75 0 132.5 -46.5t57.5 -108.5q0 -67 -57.5 -114t-139.5 -47q-71 0 -143 20v80z" />
<glyph unicode="&#x499;" horiz-adv-x="964" d="M84 22v162q153 -59 315 -59q113 0 183 51.5t70 134.5q0 194 -310 194h-25v127h32q275 0 275 155q0 154 -247 154q-123 0 -274 -54v156q140 45 309 45q193 0 301 -68.5t108 -191.5q0 -154 -195 -258q229 -69 229 -260q0 -144 -132 -239t-331 -95q-129 0 -308 46zM254 -323 q45 -15 103 -15q101 0 101 72q0 94 -184 94l93 172h96l-59 -107q75 0 132.5 -46.5t57.5 -108.5q0 -67 -57.5 -114t-139.5 -47q-71 0 -143 20v80z" />
<glyph unicode="&#x49a;" horiz-adv-x="1281" d="M187 0v1450h206v-626h10q81 0 122 40t143 213l62 106l51 90q58 99 116.5 138.5t147.5 39.5l25 -1v-151q-11 1 -16 1q-76 0 -158 -148l-38 -69l-31 -53q-74 -133 -114.5 -183t-101.5 -88q105 -36 164.5 -102t147.5 -246l50 -101l55 -115l12 -25h194v-485h-194v315h-129 l-15 30l-64 129l-82 168q-127 257 -257 344h-100v-671h-206z" />
</font>
</defs>
</svg>
